<svg width="1920" height="353" viewBox="0 0 1920 353" fill="none" xmlns="http://www.w3.org/2000/svg">
<path d="M1920 0H0V353H1920V0Z" fill="url(#paint0_radial_24_38)"/>
<path d="M63.104 272.269C50.496 275.976 45.248 276.752 37.44 275.729C29.632 274.705 10.432 269.022 1.088 269.022C0.704 269.022 0.384 269.057 0 269.092V281.024C10.176 280.035 28.928 285.86 14.08 288.86C7.36 290.237 3.456 292.39 0 294.402V338.951C13.952 338.704 31.104 338.28 31.04 337.751C30.976 336.833 44.48 324.019 55.552 320.03C66.624 316.076 59.648 311.134 54.848 306.722C49.984 302.309 70.272 296.273 69.632 295.355C68.992 294.473 68.48 289.637 75.456 286.989C82.432 284.306 91.2 280.494 91.264 276.258C91.392 272.022 103.104 265.597 103.104 265.597C86.336 265.527 75.712 268.563 63.104 272.269Z" fill="url(#paint1_linear_24_38)"/>
<path d="M88.064 301.18C86.912 295.002 99.392 294.72 99.392 294.72C99.392 294.72 99.904 303.968 100.928 309.652C103.104 322.324 83.008 324.831 73.344 332.173C67.776 336.374 60.48 345.799 55.232 353.035H122.112C128.512 343.963 132.288 331.361 122.88 316.253C119.744 311.169 109.44 309.404 122.432 300.156C135.488 290.907 130.88 290.413 120.576 285.648C101.056 276.575 123.456 273.151 123.456 273.151C123.456 273.151 97.92 274.881 89.28 289.601C85.696 295.779 79.04 294.473 80 303.968C80.96 313.464 64.064 317.17 67.456 316.817C70.848 316.5 90.496 314.629 87.936 301.215L88.064 301.18Z" fill="url(#paint2_linear_24_38)"/>
<g style="mix-blend-mode:multiply">
<path d="M164.864 53.9384C157.76 53.5854 146.816 53.9384 144.832 53.9384C142.848 53.9384 113.216 53.9384 106.752 51.7145C100.288 49.4906 91.904 50.7261 83.52 49.3141C75.136 47.9021 59.648 50.3731 51.904 51.4674C44.16 52.5264 37.696 50.7614 17.728 39.3595C12.48 36.3943 6.27197 34.9823 -0.0640259 34.5234V76.5304C8.19197 75.7891 21.184 73.5299 22.912 73.5299C24.832 73.5299 74.496 73.5299 88.704 71.4119C102.912 69.2586 95.168 61.8103 97.088 61.4573C99.008 61.1043 121.6 66.7876 129.344 68.1996C137.088 69.6116 151.296 67.4936 155.136 65.6933C158.976 63.9283 156.416 60.01 164.8 58.5627C173.184 57.1154 203.52 56.0917 203.52 56.0917C203.52 56.0917 171.904 54.3267 164.8 53.9384H164.864Z" fill="#BCBEC0"/>
</g>
<path d="M158.08 48.0431C150.976 47.6901 140.032 48.0431 138.112 48.0431C136.192 48.0431 106.496 48.0431 100.032 45.8192C93.568 43.5953 85.184 44.8308 76.8 43.4188C68.416 42.0068 52.928 44.4778 45.184 45.5721C37.44 46.6311 30.976 44.8661 11.008 33.4642C7.68 31.558 3.904 30.3578 0 29.5459V69.8232C7.232 68.8701 14.848 67.5993 16.192 67.5993C18.112 67.5993 67.776 67.5993 81.984 65.446C96.192 63.328 88.448 55.8444 90.368 55.4914C92.288 55.1384 114.88 60.8217 122.624 62.269C130.368 63.681 144.576 61.563 148.416 59.798C152.256 58.033 149.696 54.1147 158.08 52.6674C166.464 51.2201 196.8 50.1964 196.8 50.1964C196.8 50.1964 165.184 48.4314 158.08 48.0784V48.0431Z" fill="white"/>
<path d="M138.752 248.698C122.176 236.221 116.544 225.158 115.968 223.99C114.24 220.364 115.072 216.185 117.76 213.48C115.584 210.469 114.048 208.133 113.216 206.535C110.4 205.491 105.6 203.339 99.712 198.976C96.96 196.886 94.144 194.489 91.456 191.846C78.912 179.37 76.608 169.782 76.288 167.999C75.776 165.295 76.544 162.652 78.144 160.562C77.888 157.858 78.656 155.092 81.472 152.634C81.6 152.511 81.792 152.388 81.984 152.204C107.456 132.905 152.96 102.728 172.352 117.294C172.992 117.785 173.632 118.339 174.208 118.892C175.68 120.367 176.832 121.965 177.6 123.624C247.552 62.2861 267.392 77.2212 274.368 82.4454C281.28 87.6696 301.12 102.605 255.936 182.504C257.792 182.873 259.712 183.487 261.568 184.532C262.272 184.901 262.976 185.393 263.616 185.884C282.944 200.451 263.36 250.173 249.984 278.506C249.92 278.691 249.792 278.875 249.664 279.059C247.872 282.255 245.248 283.608 242.432 284.038C240.768 286.066 238.208 287.357 235.392 287.541C233.472 287.664 223.232 287.787 207.616 279.121C204.288 277.277 201.216 275.249 198.4 273.159C192.576 268.796 189.184 264.801 187.456 262.404C185.664 261.973 182.912 261.113 179.392 259.822C177.28 263.018 173.312 264.8 169.216 264.002C167.872 263.756 155.328 261.174 138.752 248.698Z" fill="white"/>
<path d="M173.056 243.044L155.008 228.723L136.192 215.325L122.304 221.717C122.304 221.717 127.168 231.858 142.848 243.597C158.528 255.397 169.92 257.487 169.92 257.487L173.056 243.044Z" fill="url(#paint3_radial_24_38)"/>
<g style="mix-blend-mode:multiply" opacity="0.71">
<path d="M151.04 249.251C162.304 256.135 169.92 257.548 169.92 257.548L173.056 243.105L155.008 228.784L152 226.633L151.04 249.251Z" fill="#262262"/>
</g>
<path d="M195.84 234.316L168.32 212.497L139.648 192.03L118.464 201.803C118.464 201.803 125.824 217.229 149.76 235.237C173.696 253.246 191.104 256.38 191.104 256.38L195.84 234.316Z" fill="url(#paint4_radial_24_38)"/>
<g style="mix-blend-mode:multiply" opacity="0.71">
<path d="M147.52 233.517C148.224 234.07 148.992 234.623 149.696 235.176C173.632 253.184 191.04 256.319 191.04 256.319L195.776 234.254L168.256 212.435L149.056 198.791L147.52 233.517Z" fill="#262262"/>
</g>
<path d="M270.144 87.4851C240.064 64.8674 141.248 169.966 141.248 169.966C141.248 169.966 120.64 195.226 158.848 223.929C197.056 252.631 217.664 227.371 217.664 227.371C217.664 227.371 300.288 110.103 270.144 87.4236V87.4851Z" fill="url(#paint5_linear_24_38)"/>
<path d="M270.144 87.4854C261.248 80.7861 246.336 85.2728 229.76 94.9222C233.92 102.297 239.936 109.243 247.616 115.081C255.36 120.92 263.872 124.854 272.256 126.943C278.016 109.181 278.976 94.2461 270.08 87.5468L270.144 87.4854Z" fill="url(#paint6_radial_24_38)"/>
<path d="M251.648 110.225C244.288 104.694 238.464 98.3635 234.624 92.2788C233.024 93.1393 231.424 93.9997 229.824 94.9216C233.984 102.297 240 109.242 247.68 115.081C255.424 120.92 263.936 124.853 272.32 126.943C272.896 125.222 273.408 123.501 273.856 121.842C266.752 119.752 259.008 115.818 251.584 110.225H251.648Z" fill="#25285F"/>
<path d="M250.752 113.483C250.304 114.037 249.472 114.098 248.832 113.606C248.192 113.115 248.064 112.316 248.512 111.762C248.96 111.209 249.792 111.148 250.432 111.64C251.072 112.131 251.2 112.93 250.752 113.483Z" fill="#5D99C8"/>
<path d="M264.256 121.658C263.808 122.211 262.976 122.272 262.336 121.781C261.696 121.289 261.568 120.49 262.016 119.937C262.464 119.384 263.296 119.322 263.936 119.814C264.576 120.306 264.704 121.105 264.256 121.658Z" fill="#5D99C8"/>
<path opacity="0.63" d="M260.864 89.0219C259.456 89.2063 258.112 88.8375 257.92 88.1C257.728 87.4239 258.752 86.6249 260.16 86.4405C261.568 86.2562 262.912 86.6249 263.104 87.3624C263.296 88.1 262.272 88.7761 260.864 89.0219Z" fill="white"/>
<path opacity="0.63" d="M256.32 88.5913C256.064 88.8986 255.552 88.9601 255.232 88.6528C254.848 88.4069 254.784 87.9153 255.04 87.608C255.296 87.3006 255.808 87.3006 256.128 87.5465C256.512 87.7923 256.576 88.284 256.32 88.5913Z" fill="white"/>
<path d="M237.056 101.191C236.608 101.744 236.736 102.543 237.376 103.035C238.016 103.527 238.848 103.465 239.296 102.912C239.744 102.42 239.552 101.56 238.976 101.13C238.336 100.638 237.504 100.7 237.056 101.253V101.191Z" fill="#5D99C8"/>
<g style="mix-blend-mode:multiply" opacity="0.28">
<path d="M170.368 157.182L146.624 164.434C143.232 167.938 141.248 169.966 141.248 169.966C141.248 169.966 120.64 195.226 158.848 223.929C161.728 226.08 164.48 227.924 167.168 229.522L170.368 157.121V157.182Z" fill="#262262"/>
</g>
<path style="mix-blend-mode:multiply" opacity="0.28" d="M259.776 156.937L186.624 151.405L189.504 237.512C208 239.356 217.728 227.433 217.728 227.433C217.728 227.433 242.368 192.4 259.84 156.998L259.776 156.937Z" fill="url(#paint7_linear_24_38)"/>
<path d="M153.536 159.887C142.208 167.815 138.368 179.37 138.368 179.37L147.008 185.885L170.368 157.244L153.536 159.948V159.887Z" fill="url(#paint8_radial_24_38)"/>
<path d="M117.696 192.092L103.808 178.263L89.92 164.435L82.176 166.278C82.176 166.278 83.712 174.453 95.168 185.823C106.624 197.193 115.264 199.16 115.264 199.16L117.696 192.092Z" fill="url(#paint9_radial_24_38)"/>
<path d="M165.76 124.239C180.928 139.236 122.688 197.624 122.688 197.624C121.792 198.423 111.104 191.662 100.544 181.152C89.92 170.642 83.392 160.317 84.288 159.518C84.288 159.518 150.656 109.243 165.76 124.239Z" fill="url(#paint10_linear_24_38)"/>
<path d="M165.76 124.239C160.64 119.138 149.632 121.535 137.344 126.943C140.16 131.43 144 136.04 148.736 140.403C152.832 144.214 157.184 147.348 161.408 149.807C167.744 138.99 170.88 129.217 165.824 124.178L165.76 124.239Z" fill="url(#paint11_radial_24_38)"/>
<path d="M224.96 213.604L223.616 197.255L200.256 225.896L208.896 232.411C208.896 232.411 219.648 226.08 224.96 213.604Z" fill="url(#paint12_radial_24_38)"/>
<path d="M235.584 274.019L218.304 264.37L201.024 254.721L194.496 258.716C194.496 258.716 198.528 266.337 212.8 274.265C227.008 282.194 235.648 281.641 235.648 281.641V274.019H235.584Z" fill="url(#paint13_radial_24_38)"/>
<path d="M258.112 193.629C239.296 183.119 194.24 251.402 194.24 251.402C193.664 252.447 203.008 260.744 216.192 268.119C229.376 275.495 241.344 279.121 241.984 278.076C241.984 278.076 276.928 204.138 258.112 193.629Z" fill="url(#paint14_linear_24_38)"/>
<path d="M258.112 193.628C251.84 190.125 242.688 195.349 233.28 203.892C236.8 207.273 241.024 210.53 245.824 213.419C251.328 216.738 256.96 219.258 262.144 220.794C264.64 208.01 264.448 197.193 258.112 193.628Z" fill="url(#paint15_radial_24_38)"/>
<path d="M237.376 172.916C228.48 183.856 211.008 185.024 198.4 175.497C185.792 166.032 182.784 149.438 191.68 138.559C200.576 127.619 218.048 126.451 230.656 135.978C243.264 145.443 246.272 162.037 237.376 172.916Z" fill="#25285F"/>
<path d="M233.984 170.396C226.368 179.677 211.52 180.722 200.768 172.609C190.016 164.557 187.456 150.421 195.008 141.079C202.624 131.737 217.472 130.754 228.288 138.867C239.04 146.98 241.6 161.054 233.984 170.396Z" fill="#5D99C8"/>
<path d="M226.304 141.325C217.088 134.38 204.416 135.241 197.888 143.231C191.424 151.159 193.6 163.267 202.752 170.151C211.968 177.034 224.64 176.235 231.168 168.245C237.632 160.317 235.456 148.209 226.24 141.325H226.304Z" fill="url(#paint16_radial_24_38)"/>
<path d="M209.984 142.8C208.64 143.476 206.976 143.23 206.4 142.247C205.824 141.264 206.4 139.973 207.808 139.297C209.152 138.621 210.752 138.928 211.392 139.85C211.968 140.833 211.392 142.124 209.984 142.8Z" fill="white"/>
<path d="M205.056 143.292C204.608 143.783 203.904 143.906 203.328 143.476C202.816 143.046 202.688 142.37 203.136 141.817C203.584 141.325 204.288 141.202 204.864 141.632C205.376 142.062 205.504 142.738 205.056 143.292Z" fill="white"/>
<defs>
<radialGradient id="paint0_radial_24_38" cx="0" cy="0" r="1" gradientUnits="userSpaceOnUse" gradientTransform="translate(960 176.5) scale(1248 688.35)">
<stop offset="0.35" stop-color="#9586DE"/>
<stop offset="1" stop-color="#4D568F"/>
</radialGradient>
<linearGradient id="paint1_linear_24_38" x1="-51.5843" y1="305.422" x2="105.466" y2="289.602" gradientUnits="userSpaceOnUse">
<stop stop-color="white"/>
<stop offset="1" stop-color="#E6E7E8"/>
</linearGradient>
<linearGradient id="paint2_linear_24_38" x1="43.8419" y1="315.437" x2="131.917" y2="306.565" gradientUnits="userSpaceOnUse">
<stop stop-color="white"/>
<stop offset="1" stop-color="#E6E7E8"/>
</linearGradient>
<radialGradient id="paint3_radial_24_38" cx="0" cy="0" r="1" gradientUnits="userSpaceOnUse" gradientTransform="translate(168.027 217.034) rotate(36.94) scale(44.0699 43.6106)">
<stop offset="0.59" stop-color="#2B3990"/>
<stop offset="1" stop-color="#262262"/>
</radialGradient>
<radialGradient id="paint4_radial_24_38" cx="0" cy="0" r="1" gradientUnits="userSpaceOnUse" gradientTransform="translate(185.883 193.537) rotate(36.94) scale(65.1907 64.5113)">
<stop offset="0.59" stop-color="#2B3990"/>
<stop offset="1" stop-color="#262262"/>
</radialGradient>
<linearGradient id="paint5_linear_24_38" x1="230.35" y1="96.926" x2="196.423" y2="178.485" gradientUnits="userSpaceOnUse">
<stop offset="0.59" stop-color="#00AEEF"/>
<stop offset="1" stop-color="#1C75BC"/>
</linearGradient>
<radialGradient id="paint6_radial_24_38" cx="0" cy="0" r="1" gradientUnits="userSpaceOnUse" gradientTransform="translate(259.505 90.2785) rotate(36.94) scale(30.0104 29.6977)">
<stop offset="0.59" stop-color="#2B3990"/>
<stop offset="1" stop-color="#262262"/>
</radialGradient>
<linearGradient id="paint7_linear_24_38" x1="224.261" y1="176.574" x2="244.285" y2="163.24" gradientUnits="userSpaceOnUse">
<stop stop-color="#262262"/>
<stop offset="1" stop-color="#262262"/>
</linearGradient>
<radialGradient id="paint8_radial_24_38" cx="0" cy="0" r="1" gradientUnits="userSpaceOnUse" gradientTransform="translate(171.58 155.151) rotate(36.94) scale(41.5481 41.115)">
<stop offset="0.59" stop-color="#2B3990"/>
<stop offset="1" stop-color="#262262"/>
</radialGradient>
<radialGradient id="paint9_radial_24_38" cx="0" cy="0" r="1" gradientUnits="userSpaceOnUse" gradientTransform="translate(108.376 175.147) rotate(36.94) scale(25.9124 25.6423)">
<stop offset="0.59" stop-color="#2B3990"/>
<stop offset="1" stop-color="#262262"/>
</radialGradient>
<linearGradient id="paint10_linear_24_38" x1="148.616" y1="163.828" x2="104.213" y2="138.548" gradientUnits="userSpaceOnUse">
<stop stop-color="#00AEEF"/>
<stop offset="1" stop-color="#1C75BC"/>
</linearGradient>
<radialGradient id="paint11_radial_24_38" cx="0" cy="0" r="1" gradientUnits="userSpaceOnUse" gradientTransform="translate(182.778 143.509) rotate(36.94) scale(39.9088 39.4929)">
<stop offset="0.59" stop-color="#2B3990"/>
<stop offset="1" stop-color="#262262"/>
</radialGradient>
<radialGradient id="paint12_radial_24_38" cx="0" cy="0" r="1" gradientUnits="userSpaceOnUse" gradientTransform="translate(238.952 212.989) rotate(36.94) scale(36.4413 36.0614)">
<stop offset="0.59" stop-color="#2B3990"/>
<stop offset="1" stop-color="#262262"/>
</radialGradient>
<radialGradient id="paint13_radial_24_38" cx="0" cy="0" r="1" gradientUnits="userSpaceOnUse" gradientTransform="translate(227.705 245.826) rotate(36.94) scale(37.0717 36.6853)">
<stop offset="0.59" stop-color="#2B3990"/>
<stop offset="1" stop-color="#262262"/>
</radialGradient>
<linearGradient id="paint14_linear_24_38" x1="222.301" y1="218.593" x2="255.626" y2="256.489" gradientUnits="userSpaceOnUse">
<stop stop-color="#00AEEF"/>
<stop offset="1" stop-color="#1C75BC"/>
</linearGradient>
<radialGradient id="paint15_radial_24_38" cx="0" cy="0" r="1" gradientUnits="userSpaceOnUse" gradientTransform="translate(276.197 197.515) rotate(36.94) scale(36.2521 35.8743)">
<stop offset="0.59" stop-color="#2B3990"/>
<stop offset="1" stop-color="#262262"/>
</radialGradient>
<radialGradient id="paint16_radial_24_38" cx="0" cy="0" r="1" gradientUnits="userSpaceOnUse" gradientTransform="translate(216.472 144.255) rotate(36.94) scale(28.7495 28.4499)">
<stop offset="0.67" stop-color="#F8CA10"/>
<stop offset="1" stop-color="#F19D1F"/>
</radialGradient>
</defs>
</svg>
