<svg width="37" height="37" viewBox="0 0 37 37" fill="none" xmlns="http://www.w3.org/2000/svg">
<path fill-rule="evenodd" clip-rule="evenodd" d="M0 18.3333C0 8.20783 8.20783 0 18.3333 0C28.4588 0 36.6667 8.20783 36.6667 18.3333C36.6667 28.4588 28.4588 36.6667 18.3333 36.6667C8.20783 36.6667 0 28.4588 0 18.3333ZM26.5835 12.8335C27.5011 12.7217 28.525 12.3852 29.3335 12.0268C29.2556 12.1434 29.1817 12.2558 29.1102 12.3646C28.6287 13.0975 28.2563 13.6641 27.4837 14.2085C28.1134 26.116 15.5734 30.494 7.3335 25.6457C8.13466 25.7392 12.2679 25.6934 14.6668 23.8335C12.6914 23.795 9.80666 22.8572 9.23283 21.0835C10.6333 21.0835 11.2123 20.8487 11.5799 20.6996C11.6762 20.6606 11.7579 20.6274 11.8362 20.6059C9.77275 20.1952 8.25016 18.7222 8.25016 16.5524V16.5002C8.85975 16.8292 10.2604 17.3939 11.0002 17.4168C10.5702 17.1317 6.80091 14.4899 8.86708 11.0002C11.0918 13.7071 14.6668 16.5002 18.3335 16.5002V14.6668C18.3335 9.85891 23.6401 8.99083 25.8566 11.3412C26.8851 11.1432 28.4617 10.5959 29.3335 10.0835C28.9971 11.1267 27.5167 12.2798 26.5835 12.8335Z" fill="white"/>
</svg>
