<svg width="185" height="111" viewBox="0 0 185 111" fill="none" xmlns="http://www.w3.org/2000/svg">
<g clip-path="url(#clip0_118_210)">
<path d="M72.8071 7.15954L65.5083 2.94912C62.921 1.45641 59.7345 1.45641 57.1427 2.94912L49.8438 7.15954C47.2566 8.65224 45.6633 11.4108 45.6633 14.4007V22.8261C45.6633 25.8115 47.2566 28.5746 49.8438 30.0673L57.1427 34.2778C59.73 35.7705 62.9164 35.7705 65.5083 34.2778L72.8071 30.0673C75.3944 28.5746 76.9876 25.8161 76.9876 22.8261V14.4007C76.9876 11.4153 75.3944 8.65224 72.8071 7.15954Z" fill="#E1C7FE"/>
<path d="M61.3278 36.7371C60.1295 36.7371 58.9357 36.4286 57.869 35.8115L48.1553 30.2082C46.0219 28.9787 44.6965 26.6829 44.6965 24.2192V13.0081C44.6965 10.5444 46.0219 8.24868 48.1553 7.01913L57.869 1.41582C60.0024 0.186264 62.6532 0.186264 64.7866 1.41582L74.5003 7.01913C76.6336 8.24868 77.959 10.5444 77.959 13.0081V24.2192C77.959 26.6829 76.6336 28.9787 74.5003 30.2082L64.7866 35.8115C63.7199 36.4286 62.5216 36.7371 61.3278 36.7371ZM61.3278 2.42759C60.4654 2.42759 59.6029 2.64991 58.8358 3.09454L49.1222 8.69785C47.5879 9.58259 46.6302 11.2386 46.6302 13.0126V24.2238C46.6302 25.9978 47.5834 27.6493 49.1222 28.5386L58.8358 34.1419C60.37 35.0266 62.281 35.0266 63.8198 34.1419L73.5334 28.5386C75.0676 27.6538 76.0254 25.9978 76.0254 24.2238V13.0126C76.0254 11.2386 75.0722 9.58712 73.5334 8.69785L63.8198 3.09454C63.0526 2.64991 62.1902 2.42759 61.3278 2.42759Z" fill="#231F20"/>
<path d="M108.13 6.66931L100.832 2.45888C98.2442 0.96618 95.0578 0.96618 92.466 2.45888L85.1671 6.66931C82.5798 8.16201 80.9866 10.9206 80.9866 13.9105V22.3359C80.9866 25.3213 82.5798 28.0844 85.1671 29.5771L92.466 33.7875C95.0532 35.2802 98.2397 35.2802 100.832 33.7875L108.13 29.5771C110.718 28.0844 112.311 25.3258 112.311 22.3359V13.9105C112.311 10.9251 110.718 8.16201 108.13 6.66931Z" fill="#4A54F3"/>
<path d="M96.651 36.2466C95.4527 36.2466 94.2589 35.9381 93.1922 35.321L83.4786 29.7177C81.3452 28.4882 80.0198 26.1924 80.0198 23.7288V12.5176C80.0198 10.054 81.3452 7.7582 83.4786 6.52864L93.1922 0.925331C95.3256 -0.308758 97.9764 -0.304221 100.11 0.925331L109.823 6.52864C111.957 7.76273 113.282 10.054 113.282 12.5176V23.7288C113.282 26.1924 111.957 28.4882 109.823 29.7177L100.11 35.321C99.0431 35.9381 97.8448 36.2466 96.651 36.2466ZM96.651 1.9371C95.7886 1.9371 94.9307 2.15942 94.1591 2.60406L84.4454 8.20737C82.9112 9.0921 81.9534 10.7481 81.9534 12.5221V23.7333C81.9534 25.5073 82.9066 27.1588 84.4454 28.0481L94.1591 33.6514C95.6933 34.5361 97.6042 34.5361 99.143 33.6514L108.857 28.0481C110.395 27.1633 111.349 25.5073 111.349 23.7333V12.5221C111.349 10.7481 110.395 9.09664 108.857 8.20737L99.143 2.60406C98.3759 2.15942 97.5135 1.9371 96.651 1.9371Z" fill="#231F20"/>
<path d="M94.8398 52.6118V44.1864C94.8398 41.201 93.2466 38.4379 90.6593 36.9452L83.3604 32.7348C80.7732 31.2421 77.5867 31.2421 74.9949 32.7348L67.696 36.9452C65.1087 38.4379 63.5155 41.1964 63.5155 44.1864V52.6118C63.5155 55.5972 65.1087 58.3603 67.696 59.853L74.9949 64.0634C77.5822 65.5561 80.7686 65.5561 83.3604 64.0634L90.6593 59.853C93.2466 58.3603 94.8398 55.6017 94.8398 52.6118Z" fill="#BA42AB"/>
<path d="M79.1754 66.5227C77.9771 66.5227 76.7833 66.2142 75.7167 65.5972L66.003 59.9939C63.8696 58.7643 62.5442 56.4685 62.5442 54.0049V42.7937C62.5442 40.3301 63.8696 38.0343 66.003 36.8048L75.7167 31.2015C77.85 29.9719 80.5009 29.9719 82.6342 31.2015L92.3479 36.8048C94.4813 38.0343 95.8067 40.3301 95.8067 42.7937V54.0049C95.8067 56.4685 94.4813 58.7643 92.3479 59.9939L82.6342 65.5972C81.5676 66.2142 80.3692 66.5227 79.1754 66.5227ZM79.1754 32.2132C78.313 32.2132 77.4506 32.4356 76.6835 32.8802L66.9698 38.4835C65.4356 39.3682 64.4778 41.0243 64.4778 42.7983V54.0094C64.4778 55.7834 65.4311 57.4349 66.9698 58.3197L76.6835 63.923C78.2177 64.8077 80.1287 64.8077 81.6674 63.923L91.3811 58.3197C92.9153 57.4349 93.873 55.7789 93.873 54.0049V42.7937C93.873 41.0197 92.9198 39.3682 91.3811 38.479L81.6674 32.8756C80.9003 32.431 80.0379 32.2087 79.1754 32.2087V32.2132Z" fill="#231F20"/>
<path d="M81.15 69.5445C88.1583 74.4718 92.6929 82.752 93.1922 91.2908C93.2557 92.348 93.342 93.4913 93.1514 94.5394C92.9426 95.6872 92.7791 96.8487 92.6702 98.0102C92.5113 99.7253 92.4886 101.463 92.6974 103.178C92.9516 105.265 93.5236 107.329 94.6856 109.099C94.9261 109.471 95.1939 109.829 95.4481 110.188C95.5752 110.369 95.43 110.106 95.439 110.147C95.3982 109.993 95.4209 109.707 95.6297 109.494C95.5571 109.566 95.8521 109.344 95.7432 109.403C95.6751 109.439 96.0064 109.299 95.8657 109.348C95.6297 109.435 96.0564 109.348 95.8567 109.353C93.1559 109.371 90.4506 109.217 87.7634 108.931C84.518 108.582 81.2725 107.987 78.1133 107.093C75.3082 106.3 72.7254 105.324 70.1835 104.031C65.717 101.758 61.9451 98.7997 58.7768 94.8887C58.3773 94.3987 58.1958 94.1628 57.7963 93.6093C57.4559 93.1419 57.1291 92.6655 56.8113 92.1801C56.194 91.2409 55.6266 90.27 55.1001 89.2809C53.9971 87.2074 53.2572 85.4425 52.5173 83.2239C51.7775 81.0052 51.2691 78.9499 50.856 76.763C50.7516 76.2141 50.6609 75.6651 50.5746 75.1115C50.5338 74.8484 50.4929 74.5807 50.4566 74.3175C50.4475 74.2495 50.4384 74.186 50.4294 74.1179C50.3976 73.8956 50.4521 74.2903 50.4203 74.068C50.4021 73.9137 50.3794 73.7595 50.3613 73.6052C50.2296 72.5299 50.1252 71.4546 50.0481 70.3748C49.753 66.2098 49.862 62.0129 50.2932 57.8615C50.3431 57.3715 50.3976 56.8815 50.4566 56.396C50.4838 56.1646 50.5156 55.9332 50.5428 55.7064C50.5519 55.6474 50.5565 55.593 50.5655 55.534C50.5928 55.3343 50.5383 55.72 50.5655 55.5204C50.5837 55.3888 50.6019 55.2572 50.62 55.1256C50.7471 54.2273 50.8878 53.3335 51.0467 52.4397C51.3326 50.8063 51.6731 49.1775 52.068 47.5668C52.3948 46.2329 52.7625 44.9036 53.1846 43.5969C53.3571 43.066 53.5386 42.5352 53.7338 42.0134C53.8201 41.7866 53.9063 41.5597 53.9971 41.3374C54.0379 41.2376 54.0833 41.1378 54.1197 41.0334C54.0198 41.283 54.1197 41.0243 54.1787 40.8973C54.3194 40.5797 54.4646 40.2667 54.6326 39.9672C54.8187 39.6269 54.746 39.273 54.5055 38.9872C53.053 37.2586 51.3372 35.7069 49.6078 34.2641C45.6769 30.9838 41.2695 28.2388 36.458 26.4603C30.4937 24.2553 23.9846 23.7698 17.8205 25.4258C14.3072 26.3695 10.8711 27.9394 7.87533 29.9992C6.15501 31.1834 4.64349 32.6171 3.39978 34.3004C1.162 37.3312 0.0453839 41.0969 -7.06874e-06 44.8582C-0.045398 48.6603 0.97136 52.4533 2.75069 55.8017C4.55271 59.1909 7.20354 62.1581 10.4445 64.2316C13.8397 66.4003 17.875 67.4801 21.9057 67.285C26.9577 67.04 31.7328 64.9484 35.8362 62.0765C41.9367 57.8071 46.8117 51.9542 50.9514 45.8291C52.245 43.9145 53.4706 41.9499 54.6416 39.9581C55.1682 39.0598 53.7747 38.2476 53.2481 39.1415C49.2083 46.0242 44.4877 52.6983 38.4461 57.984C36.2855 59.876 33.9388 61.5683 31.3924 62.9067C29.3089 64.0047 27.1801 64.8214 24.8107 65.3023C24.5656 65.3522 24.3205 65.3976 24.0708 65.4384C23.9483 65.4611 23.8257 65.4793 23.7032 65.4974C23.6305 65.5065 23.5579 65.5201 23.4853 65.5292C23.6623 65.5065 23.449 65.5337 23.4081 65.5383C22.8861 65.6018 22.3596 65.6472 21.8331 65.6698C20.8208 65.7152 19.8041 65.6835 18.7964 65.5655C18.7419 65.561 18.406 65.5156 18.6103 65.5428C18.5014 65.5292 18.3879 65.511 18.2789 65.4929C18.0247 65.4521 17.7751 65.4112 17.5254 65.3613C17.0625 65.2706 16.604 65.1617 16.1501 65.0346C15.6962 64.9076 15.2377 64.7579 14.7884 64.5945C14.575 64.5174 14.3662 64.4358 14.1574 64.3495C14.1075 64.3314 14.0576 64.3087 14.0076 64.286C14.1938 64.3632 13.994 64.2815 13.9623 64.2679C13.8442 64.218 13.7262 64.1635 13.6082 64.1091C12.7776 63.728 11.9741 63.2879 11.2025 62.7933C10.8121 62.5392 10.4263 62.2761 10.0541 61.9948C10.0132 61.9676 9.75905 61.7725 9.91338 61.8904C9.8226 61.8179 9.73182 61.7453 9.64104 61.6727C9.45039 61.5184 9.26429 61.3641 9.08273 61.2053C8.39732 60.611 7.74823 59.9713 7.13999 59.2952C6.83133 58.9504 6.53175 58.592 6.24125 58.229C6.10508 58.0611 6.25941 58.2608 6.13231 58.0929C6.05515 57.9931 5.97798 57.8887 5.90536 57.7889C5.76919 57.6029 5.63301 57.4123 5.50138 57.2218C4.97938 56.4641 4.50732 55.6792 4.0761 54.867C3.8673 54.4678 3.66758 54.0594 3.48148 53.6465C3.43609 53.5513 3.39524 53.456 3.35439 53.3562C3.32715 53.2972 3.30446 53.2382 3.27722 53.1838C3.35892 53.3698 3.27722 53.1747 3.25906 53.1429C3.17282 52.9297 3.08658 52.7164 3.00488 52.4987C2.6826 51.6457 2.41025 50.7746 2.19238 49.8898C2.08344 49.4543 1.99266 49.0187 1.91095 48.5786C1.8701 48.3518 1.83379 48.1294 1.79748 47.9026C1.7884 47.8481 1.74755 47.5215 1.77478 47.7483C1.75662 47.6258 1.74301 47.5033 1.72939 47.3808C1.62953 46.4825 1.58414 45.5751 1.60229 44.6676C1.61137 44.2366 1.63407 43.8101 1.67038 43.3791C1.68854 43.1568 1.71577 42.9299 1.74301 42.7076C1.77024 42.4671 1.72485 42.7984 1.76116 42.5579C1.77932 42.4354 1.79748 42.3174 1.81563 42.1949C1.96088 41.3102 2.17422 40.4345 2.45564 39.5816C2.58728 39.1732 2.74161 38.7694 2.90502 38.3747C2.98672 38.1796 2.83693 38.5335 2.91863 38.3384C2.94133 38.2839 2.96856 38.225 2.99126 38.1705C3.03211 38.0752 3.0775 37.9845 3.11835 37.8892C3.21367 37.685 3.31353 37.4809 3.41793 37.2767C3.84461 36.4555 4.33937 35.6797 4.89314 34.9401C5.02931 34.7586 4.85683 34.9764 5.00208 34.7995C5.07017 34.7178 5.13825 34.6316 5.20634 34.5499C5.36521 34.3594 5.52861 34.1688 5.69202 33.9873C6.00976 33.638 6.34111 33.2977 6.68608 32.9755C7.04921 32.6353 7.4305 32.3131 7.82086 32.0001C7.83901 31.9865 8.02058 31.8458 7.87533 31.9547C7.91164 31.9275 7.94795 31.9003 7.98427 31.8685C8.08867 31.7914 8.18853 31.7142 8.29292 31.6416C8.51534 31.4828 8.73776 31.3286 8.96471 31.1789C10.4898 30.1716 12.1148 29.2914 13.7852 28.5428C19.6497 25.9158 26.1997 25.3487 32.4001 26.8913C37.4839 28.1526 42.1546 30.6253 46.3669 33.7559C47.1385 34.3276 47.8829 34.9174 48.7045 35.6161C49.3899 36.1923 50.0572 36.7912 50.7063 37.4037C51.5187 38.166 52.304 38.96 53.0484 39.7857C53.1483 39.8946 53.2436 40.0035 53.3389 40.1169L53.2118 39.1369C52.7806 39.9264 52.4447 40.7748 52.1315 41.6142C51.7049 42.7711 51.3372 43.9508 51.0058 45.135C50.5837 46.6458 50.2206 48.1703 49.8983 49.7083C49.5306 51.4869 49.2265 53.279 48.9814 55.0803C48.7045 57.131 48.4912 59.1863 48.3686 61.2507C48.2461 63.3151 48.2052 65.5156 48.2642 67.648C48.3323 69.9211 48.5184 72.1851 48.8225 74.44C49.1266 76.695 49.5579 78.8819 50.1434 81.0551C50.7516 83.3055 51.5278 85.5015 52.472 87.6339C53.4161 89.7663 54.5236 91.7536 55.8218 93.6501C57.1972 95.651 58.7677 97.5202 60.5198 99.199C62.3717 100.973 64.4234 102.543 66.6067 103.89C69.026 105.378 71.6133 106.59 74.2823 107.561C77.269 108.65 80.3647 109.426 83.5012 109.956C87.1507 110.578 90.85 110.882 94.5494 110.959C95.085 110.968 95.7069 111.045 96.2334 110.905C96.9415 110.714 97.1594 110.002 96.8235 109.389C96.6147 109.013 96.3106 108.681 96.0745 108.323C95.8793 108.028 95.6978 107.724 95.5344 107.416C95.43 107.221 95.3347 107.021 95.2439 106.821C95.2212 106.771 95.1985 106.721 95.1758 106.672C95.1576 106.631 95.2303 106.808 95.1712 106.658C95.1259 106.54 95.0759 106.422 95.0305 106.304C93.9593 103.428 93.9729 100.374 94.3179 97.3025C94.4495 96.1273 94.7627 94.9568 94.799 93.7771C94.8354 92.6837 94.799 91.5903 94.7083 90.4968C94.5176 88.2691 94.0819 86.0595 93.4055 83.9271C92.0574 79.6804 89.797 75.7331 86.8011 72.4346C85.3396 70.8285 83.7009 69.3948 81.9216 68.1471C81.563 67.8976 81.0229 68.0836 80.8186 68.4375C80.5826 68.8413 80.7505 69.2904 81.1091 69.54L81.15 69.5445Z" fill="#231F20"/>
<path d="M79.8019 75.461C79.575 75.6788 79.3253 75.883 79.0802 76.0781C79.0166 76.128 78.9576 76.1779 78.8941 76.2278C78.7125 76.3684 78.994 76.1507 78.7988 76.3004C78.6308 76.4274 78.4583 76.5545 78.2859 76.6815C77.8683 76.9855 77.4416 77.2759 77.0058 77.5526C74.2324 79.3402 71.2003 80.7241 68.0774 81.7767C65.5128 82.6432 62.8756 83.2875 60.2066 83.7503C59.7754 83.8229 59.5348 84.3537 59.6438 84.7439C59.7709 85.1976 60.2066 85.3837 60.6378 85.3065C65.0635 84.5398 69.3983 83.2512 73.4699 81.3366C75.7712 80.2567 77.9863 78.9682 79.9926 77.3984C80.3194 77.1443 80.6462 76.8857 80.9458 76.5953C81.6947 75.8739 80.5509 74.7306 79.8019 75.452V75.461Z" fill="#231F20"/>
<path d="M86.4879 82.7476C86.261 82.9654 86.0113 83.1696 85.7662 83.3647C85.7027 83.4146 85.6437 83.4645 85.5801 83.5144C85.3986 83.6551 85.68 83.4373 85.4848 83.587C85.3169 83.714 85.1444 83.8411 84.9719 83.9681C84.5543 84.2721 84.1276 84.5625 83.6919 84.8393C80.9185 86.6269 77.8864 88.0107 74.7635 89.0633C72.1989 89.9299 69.5616 90.5741 66.8927 91.0369C66.4614 91.1095 66.2209 91.6404 66.3298 92.0305C66.4569 92.4842 66.8927 92.6703 67.3239 92.5931C71.7495 91.8264 76.0843 90.5378 80.1559 88.6232C82.4572 87.5434 84.6723 86.2548 86.6786 84.685C87.0054 84.4309 87.3322 84.1723 87.6318 83.8819C88.3807 83.1605 87.2369 82.0172 86.4879 82.7386V82.7476Z" fill="#231F20"/>
<path d="M89.4792 92.2027C89.2976 92.3751 89.1025 92.5339 88.9073 92.6927C88.8573 92.729 88.812 92.7698 88.762 92.8061C88.6077 92.9286 88.9027 92.7018 88.7302 92.8288C88.5986 92.9286 88.467 93.0284 88.3308 93.1237C88.0085 93.3597 87.6772 93.582 87.3413 93.7998C85.2079 95.1745 82.8839 96.2362 80.4827 97.0438C78.4946 97.7153 76.452 98.2143 74.3822 98.5728C73.9509 98.6454 73.7104 99.1762 73.8193 99.5664C73.9419 100.02 74.3822 100.206 74.8134 100.129C80.1377 99.2034 85.5756 97.3296 89.8741 93.9676C90.1283 93.768 90.387 93.5638 90.6185 93.3415C91.3675 92.6201 90.2236 91.4813 89.4747 92.1982L89.4792 92.2027Z" fill="#231F20"/>
<path d="M74.2641 69.6988C74.0826 69.8712 73.8874 70.03 73.6922 70.1888C73.6423 70.2251 73.5969 70.2659 73.5469 70.3022C73.3926 70.4247 73.6877 70.1979 73.5152 70.3249C73.3835 70.4247 73.2519 70.5245 73.1157 70.6198C72.7934 70.8557 72.4621 71.0781 72.1262 71.2958C69.9928 72.6706 67.6688 73.7323 65.2676 74.5399C63.2795 75.2114 61.2369 75.7104 59.1671 76.0689C58.7359 76.1415 58.4953 76.6723 58.6042 77.0625C58.7268 77.5162 59.1671 77.7022 59.5983 77.6251C64.9227 76.6995 70.3605 74.8257 74.659 71.4637C74.9132 71.2641 75.1719 71.0599 75.4034 70.8376C76.1524 70.1162 75.0085 68.9774 74.2596 69.6943L74.2641 69.6988Z" fill="#231F20"/>
<path d="M70.3651 63.8326C70.1835 64.005 69.9883 64.1638 69.7931 64.3226C69.7432 64.3589 69.6978 64.3997 69.6479 64.436C69.4936 64.5585 69.7886 64.3317 69.6161 64.4587C69.4845 64.5585 69.3529 64.6583 69.2167 64.7536C68.8944 64.9895 68.563 65.2119 68.2272 65.4296C66.0938 66.8044 63.7698 67.8661 61.3686 68.6737C59.3804 69.3452 57.3379 69.8442 55.268 70.2027C54.8368 70.2753 54.5962 70.8061 54.7052 71.1963C54.8277 71.65 55.268 71.836 55.6992 71.7589C61.0236 70.8333 66.4614 68.9595 70.76 65.5975C71.0142 65.3979 71.2729 65.1937 71.5044 64.9714C72.2533 64.25 71.1095 63.1112 70.3605 63.828L70.3651 63.8326Z" fill="#231F20"/>
<path d="M22.1371 27.041C22.1371 27.041 -3.50422 33.5563 6.47272 54.4904C10.0178 61.1645 19.913 67.5119 34.016 59.5175C34.016 59.5175 18.0202 67.6934 10.0223 53.0885C2.0244 38.4836 22.1417 27.041 22.1417 27.041H22.1371Z" fill="white"/>
<path d="M98.7934 81.908C98.6482 81.7673 98.5801 81.5904 98.5801 81.3862V61.423C98.5801 61.1962 98.6482 61.0147 98.7798 60.8695C98.9114 60.7288 99.093 60.6562 99.3154 60.6562H107.54C109.996 60.6562 111.93 61.2325 113.341 62.3894C114.753 63.5464 115.456 65.2387 115.456 67.4664C115.456 69.6941 114.757 71.3774 113.355 72.5117C111.952 73.646 110.014 74.2131 107.54 74.2131H102.969V81.3908C102.969 81.5949 102.901 81.7673 102.77 81.9125C102.638 82.0577 102.456 82.1258 102.234 82.1258H99.32C99.1157 82.1258 98.9432 82.0532 98.798 81.9125L98.7934 81.908ZM107.386 70.8057C108.571 70.8057 109.483 70.5244 110.118 69.9618C110.754 69.3992 111.072 68.5644 111.072 67.4619C111.072 66.3594 110.763 65.5654 110.15 64.9619C109.537 64.3585 108.616 64.0591 107.39 64.0591H102.91V70.8057H107.39H107.386Z" fill="white"/>
<path d="M117.894 81.908C117.749 81.7673 117.681 81.5904 117.681 81.3862V66.9401C117.681 66.7359 117.753 66.559 117.894 66.4047C118.035 66.2505 118.212 66.1733 118.416 66.1733H120.903C121.13 66.1733 121.312 66.2459 121.457 66.3866C121.598 66.5318 121.67 66.7132 121.67 66.9401V68.1969C122.161 67.5435 122.778 67.0399 123.527 66.6951C124.271 66.3457 125.129 66.1733 126.087 66.1733H127.344C127.571 66.1733 127.748 66.2414 127.88 66.373C128.012 66.5045 128.08 66.686 128.08 66.9083V69.1179C128.08 69.3221 128.012 69.4945 127.88 69.6397C127.748 69.7849 127.567 69.8529 127.344 69.8529H124.952C123.99 69.8529 123.232 70.1297 122.683 70.6832C122.133 71.2367 121.857 71.9899 121.857 72.9518V81.3862C121.857 81.5904 121.784 81.7628 121.643 81.908C121.502 82.0532 121.316 82.1212 121.089 82.1212H118.42C118.216 82.1212 118.044 82.0486 117.898 81.908H117.894Z" fill="white"/>
<path d="M132.451 80.5742C131.144 79.3356 130.435 77.6432 130.336 75.4972L130.304 74.1497L130.336 72.8022C130.44 70.6743 131.153 68.991 132.483 67.7433C133.813 66.4956 135.651 65.874 138.007 65.874C140.362 65.874 142.201 66.5001 143.531 67.7433C144.861 68.991 145.578 70.6788 145.678 72.8022C145.696 73.0472 145.71 73.4963 145.71 74.1497C145.71 74.803 145.7 75.2522 145.678 75.4972C145.573 77.6432 144.87 79.3356 143.563 80.5742C142.255 81.8128 140.403 82.4299 138.011 82.4299C135.619 82.4299 133.767 81.8128 132.46 80.5742H132.451ZM140.521 78.3646C141.116 77.6795 141.443 76.6723 141.502 75.3429C141.52 75.1388 141.534 74.7395 141.534 74.1451C141.534 73.5508 141.524 73.1561 141.502 72.9474C141.438 71.618 141.111 70.6107 140.521 69.9256C139.927 69.2405 139.092 68.9003 138.007 68.9003C136.922 68.9003 136.082 69.2405 135.492 69.9256C134.897 70.6107 134.571 71.618 134.512 72.9474L134.48 74.1451L134.512 75.3429C134.575 76.6723 134.902 77.6795 135.492 78.3646C136.087 79.0497 136.922 79.39 138.007 79.39C139.092 79.39 139.931 79.0497 140.521 78.3646Z" fill="white"/>
<path d="M150.462 81.0098C148.896 79.558 148.065 77.5344 147.961 74.9392C147.938 74.3449 147.929 73.3966 147.929 72.0854C147.929 70.7742 147.938 69.8259 147.961 69.2315C148.065 66.6953 148.905 64.7081 150.494 63.2653C152.078 61.8225 154.252 61.1011 157.012 61.1011C158.896 61.1011 160.512 61.4187 161.86 62.0539C163.208 62.6891 164.234 63.4785 164.928 64.4313C165.623 65.3841 165.99 66.3187 166.031 67.2352V67.2987C166.031 67.4621 165.972 67.6027 165.845 67.7116C165.722 67.8251 165.568 67.8795 165.387 67.8795H162.227C162.023 67.8795 161.869 67.8432 161.769 67.7706C161.665 67.698 161.574 67.571 161.492 67.3895C161.206 66.6318 160.702 65.983 159.99 65.4431C159.272 64.9032 158.283 64.6309 157.012 64.6309C155.582 64.6309 154.461 65.0211 153.653 65.797C152.845 66.5728 152.409 67.7706 152.35 69.3858C152.328 69.9802 152.319 70.8785 152.319 72.0854C152.319 73.2922 152.328 74.1724 152.35 74.785C152.473 78.038 154.048 79.6623 157.075 79.6623C158.528 79.6623 159.695 79.2676 160.575 78.4827C161.456 77.6978 161.896 76.5272 161.896 74.971V74.0182H158.151C157.924 74.0182 157.747 73.9456 157.616 73.8049C157.484 73.6643 157.416 73.4783 157.416 73.2514V71.6271C157.416 71.4048 157.484 71.2188 157.616 71.0736C157.747 70.933 157.929 70.8604 158.151 70.8604H165.486C165.713 70.8604 165.89 70.933 166.022 71.0736C166.154 71.2188 166.222 71.4003 166.222 71.6271V74.8485C166.222 76.5453 165.85 78.0244 165.101 79.2812C164.352 80.538 163.285 81.5044 161.896 82.1804C160.503 82.8564 158.878 83.1922 157.016 83.1922C154.216 83.1922 152.033 82.4662 150.467 81.0144L150.462 81.0098Z" fill="white"/>
<path d="M170.588 81.332C169.281 80.0934 168.573 78.4011 168.473 76.255L168.441 74.9075L168.473 73.56C168.577 71.4321 169.29 69.7488 170.62 68.5011C171.95 67.2534 173.788 66.6318 176.144 66.6318C178.5 66.6318 180.338 67.258 181.668 68.5011C182.998 69.7488 183.715 71.4366 183.815 73.56C183.833 73.805 183.847 74.2542 183.847 74.9075C183.847 75.5608 183.838 76.01 183.815 76.255C183.711 78.4011 183.007 80.0934 181.7 81.332C180.393 82.5706 178.541 83.1877 176.149 83.1877C173.757 83.1877 171.905 82.5706 170.597 81.332H170.588ZM178.659 79.1225C179.253 78.4374 179.58 77.4301 179.639 76.1007C179.657 75.8966 179.671 75.4973 179.671 74.903C179.671 74.3086 179.662 73.9139 179.639 73.7052C179.576 72.3758 179.249 71.3686 178.659 70.6835C178.064 69.9984 177.229 69.6581 176.144 69.6581C175.059 69.6581 174.22 69.9984 173.629 70.6835C173.035 71.3686 172.708 72.3758 172.649 73.7052L172.617 74.903L172.649 76.1007C172.713 77.4301 173.039 78.4374 173.629 79.1225C174.224 79.8076 175.059 80.1478 176.144 80.1478C177.229 80.1478 178.069 79.8076 178.659 79.1225Z" fill="white"/>
<path d="M98.8479 109.557C98.6709 109.38 98.5801 109.162 98.5801 108.908V83.9905C98.5801 83.7092 98.6618 83.4824 98.8297 83.3009C98.9977 83.124 99.2201 83.0332 99.5015 83.0332H110.604C113.591 83.0332 115.82 83.6911 117.286 85.0023C118.752 86.3181 119.487 88.1102 119.487 90.3788C119.487 91.7036 119.16 92.8333 118.511 93.768C117.862 94.6981 117.1 95.3696 116.233 95.7779C117.304 96.2634 118.203 97.0528 118.933 98.1508C119.66 99.2488 120.023 100.501 120.023 101.903C120.023 104.276 119.224 106.191 117.631 107.642C116.033 109.099 113.795 109.825 110.908 109.825H99.497C99.2428 109.825 99.0249 109.734 98.8479 109.557ZM109.914 94.0175C111.24 94.0175 112.252 93.6999 112.937 93.0602C113.627 92.425 113.972 91.5675 113.972 90.4967C113.972 89.426 113.627 88.5503 112.937 87.9514C112.247 87.3525 111.24 87.0531 109.914 87.0531H103.904V94.0175H109.914ZM110.295 105.769C111.621 105.769 112.656 105.406 113.396 104.68C114.136 103.954 114.508 103.028 114.508 101.903C114.508 100.778 114.136 99.8159 113.396 99.09C112.656 98.364 111.621 98.0011 110.295 98.0011H103.9V105.769H110.295Z" fill="white"/>
<path d="M126.205 107.738C124.535 106.091 123.645 103.777 123.545 100.792L123.509 99.8342L123.545 98.8769C123.672 95.9686 124.571 93.6865 126.246 92.0259C127.916 90.3653 130.159 89.5396 132.964 89.5396C135.978 89.5396 138.306 90.456 139.954 92.2936C141.602 94.1311 142.423 96.5811 142.423 99.6437V100.447C142.423 100.701 142.332 100.919 142.155 101.096C141.978 101.272 141.747 101.363 141.465 101.363H128.751V101.667C128.801 103.069 129.192 104.249 129.918 105.206C130.644 106.163 131.647 106.64 132.923 106.64C134.43 106.64 135.642 106.055 136.559 104.879C136.79 104.598 136.972 104.421 137.112 104.344C137.253 104.267 137.462 104.231 137.743 104.231H141.034C141.266 104.231 141.461 104.303 141.629 104.439C141.797 104.58 141.879 104.752 141.879 104.957C141.879 105.569 141.515 106.291 140.789 107.121C140.063 107.951 139.019 108.672 137.671 109.285C136.318 109.897 134.748 110.201 132.959 110.201C130.127 110.201 127.871 109.38 126.2 107.733L126.205 107.738ZM137.212 98.151V98.0375C137.212 96.5312 136.836 95.3198 136.082 94.4033C135.329 93.4868 134.289 93.024 132.959 93.024C131.629 93.024 130.599 93.4823 129.859 94.4033C129.119 95.3198 128.747 96.5357 128.747 98.0375V98.151H137.208H137.212Z" fill="white"/>
<path d="M148.301 107.738C146.631 106.091 145.741 103.777 145.641 100.792L145.605 99.8342L145.641 98.8769C145.769 95.9686 146.667 93.6865 148.342 92.0259C150.013 90.3653 152.255 89.5396 155.06 89.5396C158.074 89.5396 160.403 90.456 162.05 92.2936C163.698 94.1311 164.52 96.5811 164.52 99.6437V100.447C164.52 100.701 164.429 100.919 164.252 101.096C164.075 101.272 163.843 101.363 163.562 101.363H150.848V101.667C150.898 103.069 151.288 104.249 152.014 105.206C152.741 106.163 153.744 106.64 155.019 106.64C156.526 106.64 157.738 106.055 158.655 104.879C158.887 104.598 159.068 104.421 159.209 104.344C159.349 104.267 159.558 104.231 159.84 104.231H163.131C163.362 104.231 163.557 104.303 163.725 104.439C163.893 104.58 163.975 104.752 163.975 104.957C163.975 105.569 163.612 106.291 162.885 107.121C162.159 107.951 161.115 108.672 159.767 109.285C158.414 109.897 156.844 110.201 155.056 110.201C152.223 110.201 149.967 109.38 148.297 107.733L148.301 107.738ZM159.309 98.151V98.0375C159.309 96.5312 158.932 95.3198 158.178 94.4033C157.425 93.4868 156.385 93.024 155.056 93.024C153.726 93.024 152.695 93.4823 151.955 94.4033C151.215 95.3198 150.843 96.5357 150.843 98.0375V98.151H159.304H159.309Z" fill="white"/>
<path d="M171.292 109.348C169.989 108.772 169.027 108.101 168.401 107.32C167.774 106.545 167.461 105.873 167.461 105.31C167.461 105.056 167.552 104.852 167.729 104.698C167.906 104.544 168.11 104.467 168.342 104.467H171.365C171.596 104.467 171.787 104.557 171.941 104.734C172.041 104.811 172.309 105.038 172.744 105.424C173.18 105.832 173.689 106.15 174.274 106.381C174.86 106.613 175.513 106.726 176.226 106.726C177.247 106.726 178.092 106.522 178.754 106.114C179.417 105.705 179.748 105.143 179.748 104.43C179.748 103.895 179.603 103.459 179.308 103.128C179.013 102.797 178.486 102.497 177.719 102.23C176.952 101.962 175.817 101.676 174.31 101.368C172.141 100.91 170.538 100.206 169.504 99.2625C168.469 98.3188 167.951 97.0666 167.951 95.5104C167.951 94.4895 168.255 93.5277 168.868 92.6202C169.481 91.7128 170.393 90.9733 171.605 90.4016C172.817 89.8254 174.265 89.5396 175.954 89.5396C177.642 89.5396 179.145 89.8163 180.397 90.3608C181.646 90.9098 182.599 91.5586 183.248 92.3117C183.897 93.0649 184.224 93.7364 184.224 94.3216C184.224 94.553 184.142 94.7481 183.974 94.916C183.806 95.0839 183.611 95.1655 183.38 95.1655H180.547C180.343 95.1655 180.125 95.0748 179.898 94.8979C179.721 94.7708 179.44 94.5258 179.054 94.1719C178.673 93.8135 178.223 93.5367 177.715 93.328C177.202 93.1239 176.603 93.024 175.917 93.024C174.973 93.024 174.238 93.2282 173.716 93.6365C173.194 94.0449 172.931 94.5803 172.931 95.2427C172.931 95.7281 173.058 96.1229 173.312 96.4314C173.566 96.7354 174.065 97.0303 174.805 97.3116C175.545 97.5929 176.657 97.8742 178.137 98.1555C180.588 98.641 182.345 99.3941 183.402 100.415C184.46 101.436 184.991 102.688 184.991 104.167C184.991 105.955 184.21 107.407 182.653 108.532C181.096 109.657 178.913 110.215 176.103 110.215C174.188 110.215 172.581 109.929 171.278 109.353L171.292 109.348Z" fill="white"/>
</g>
<defs>
<clipPath id="clip0_118_210">
<rect width="185" height="111" fill="white"/>
</clipPath>
</defs>
</svg>
