<svg width="185" height="111" viewBox="0 0 185 111" fill="none" xmlns="http://www.w3.org/2000/svg">
<g clip-path="url(#clip0_118_70)">
<path d="M72.8071 7.15954L65.5082 2.94912C62.9209 1.45641 59.7345 1.45641 57.1426 2.94912L49.8438 7.15954C47.2565 8.65224 45.6633 11.4108 45.6633 14.4007V22.8261C45.6633 25.8115 47.2565 28.5746 49.8438 30.0673L57.1426 34.2778C59.7299 35.7705 62.9164 35.7705 65.5082 34.2778L72.8071 30.0673C75.3944 28.5746 76.9876 25.8161 76.9876 22.8261V14.4007C76.9876 11.4153 75.3944 8.65224 72.8071 7.15954Z" fill="#E1C7FE"/>
<path d="M61.3277 36.7368C60.1294 36.7368 58.9356 36.4283 57.8689 35.8113L48.1553 30.208C46.0219 28.9784 44.6965 26.6826 44.6965 24.219V13.0078C44.6965 10.5442 46.0219 8.24844 48.1553 7.01888L57.8689 1.41557C60.0023 0.18602 62.6531 0.18602 64.7865 1.41557L74.5002 7.01888C76.6336 8.24844 77.959 10.5442 77.959 13.0078V24.219C77.959 26.6826 76.6336 28.9784 74.5002 30.208L64.7865 35.8113C63.7198 36.4283 62.5215 36.7368 61.3277 36.7368ZM61.3277 2.42734C60.4653 2.42734 59.6029 2.64966 58.8358 3.0943L49.1221 8.69761C47.5879 9.58234 46.6301 11.2384 46.6301 13.0124V24.2235C46.6301 25.9975 47.5833 27.649 49.1221 28.5383L58.8358 34.1416C60.37 35.0264 62.2809 35.0264 63.8197 34.1416L73.5334 28.5383C75.0676 27.6536 76.0253 25.9975 76.0253 24.2235V13.0124C76.0253 11.2384 75.0721 9.58688 73.5334 8.69761L63.8197 3.0943C63.0526 2.64966 62.1902 2.42734 61.3277 2.42734Z" fill="#231F20"/>
<path d="M108.13 6.66955L100.832 2.45913C98.2442 0.966424 95.0578 0.966424 92.466 2.45913L85.1671 6.66955C82.5798 8.16225 80.9866 10.9208 80.9866 13.9108V22.3361C80.9866 25.3215 82.5798 28.0846 85.1671 29.5773L92.466 33.7878C95.0532 35.2805 98.2397 35.2805 100.832 33.7878L108.13 29.5773C110.718 28.0846 112.311 25.3261 112.311 22.3361V13.9108C112.311 10.9253 110.718 8.16225 108.13 6.66955Z" fill="#4A54F3"/>
<path d="M96.651 36.2469C95.4527 36.2469 94.2589 35.9383 93.1922 35.3213L83.4786 29.718C81.3452 28.4884 80.0198 26.1926 80.0198 23.729V12.5179C80.0198 10.0542 81.3452 7.75844 83.4786 6.52889L93.1922 0.925576C95.3256 -0.308514 97.9764 -0.303977 100.11 0.925576L109.823 6.52889C111.957 7.76298 113.282 10.0542 113.282 12.5179V23.729C113.282 26.1926 111.957 28.4884 109.823 29.718L100.11 35.3213C99.0431 35.9383 97.8448 36.2469 96.651 36.2469ZM96.651 1.93735C95.7886 1.93735 94.9307 2.15966 94.1591 2.6043L84.4454 8.20761C82.9112 9.09235 81.9534 10.7484 81.9534 12.5224V23.7335C81.9534 25.5076 82.9066 27.1591 84.4454 28.0483L94.1591 33.6516C95.6933 34.5364 97.6042 34.5364 99.143 33.6516L108.857 28.0483C110.395 27.1636 111.349 25.5076 111.349 23.7335V12.5224C111.349 10.7484 110.395 9.09688 108.857 8.20761L99.143 2.6043C98.3759 2.15966 97.5135 1.93735 96.651 1.93735Z" fill="#231F20"/>
<path d="M94.8399 52.6121V44.1868C94.8399 41.2013 93.2467 38.4383 90.6594 36.9456L83.3606 32.7351C80.7733 31.2424 77.5868 31.2424 74.995 32.7351L67.6961 36.9456C65.1089 38.4383 63.5156 41.1968 63.5156 44.1868V52.6121C63.5156 55.5975 65.1089 58.3606 67.6961 59.8533L74.995 64.0638C77.5823 65.5565 80.7687 65.5565 83.3606 64.0638L90.6594 59.8533C93.2467 58.3606 94.8399 55.6021 94.8399 52.6121Z" fill="#BA42AB"/>
<path d="M79.1755 66.5229C77.9772 66.5229 76.7834 66.2143 75.7167 65.5973L66.003 59.994C63.8697 58.7644 62.5443 56.4687 62.5443 54.005V42.7939C62.5443 40.3302 63.8697 38.0344 66.003 36.8049L75.7167 31.2016C77.8501 29.972 80.5009 29.972 82.6343 31.2016L92.348 36.8049C94.4813 38.0344 95.8068 40.3302 95.8068 42.7939V54.005C95.8068 56.4687 94.4813 58.7644 92.348 59.994L82.6343 65.5973C81.5676 66.2143 80.3693 66.5229 79.1755 66.5229ZM79.1755 32.2134C78.3131 32.2134 77.4507 32.4357 76.6835 32.8803L66.9699 38.4836C65.4357 39.3684 64.4779 41.0244 64.4779 42.7984V54.0096C64.4779 55.7836 65.4311 57.4351 66.9699 58.3198L76.6835 63.9231C78.2178 64.8078 80.1287 64.8078 81.6675 63.9231L91.3811 58.3198C92.9154 57.4351 93.8731 55.779 93.8731 54.005V42.7939C93.8731 41.0199 92.9199 39.3684 91.3811 38.4791L81.6675 32.8758C80.9004 32.4311 80.0379 32.2088 79.1755 32.2088V32.2134Z" fill="#231F20"/>
<path d="M81.15 69.5446C88.1583 74.4719 92.6929 82.7521 93.1922 91.2909C93.2557 92.348 93.342 93.4914 93.1514 94.5394C92.9426 95.6873 92.7791 96.8488 92.6702 98.0103C92.5113 99.7253 92.4886 101.463 92.6974 103.178C92.9516 105.265 93.5236 107.329 94.6856 109.099C94.9261 109.471 95.1939 109.829 95.4481 110.188C95.5752 110.369 95.43 110.106 95.439 110.147C95.3982 109.993 95.4209 109.707 95.6297 109.494C95.5571 109.566 95.8521 109.344 95.7432 109.403C95.6751 109.439 96.0064 109.299 95.8657 109.348C95.6297 109.435 96.0564 109.349 95.8567 109.353C93.1559 109.371 90.4506 109.217 87.7634 108.931C84.518 108.582 81.2725 107.987 78.1133 107.094C75.3082 106.3 72.7254 105.324 70.1835 104.031C65.717 101.758 61.9451 98.7998 58.7768 94.8888C58.3773 94.3988 58.1958 94.1628 57.7963 93.6093C57.4559 93.142 57.1291 92.6656 56.8113 92.1801C56.194 91.241 55.6266 90.27 55.1001 89.2809C53.9971 87.2075 53.2572 85.4426 52.5173 83.2239C51.7775 81.0053 51.2691 78.95 50.856 76.7631C50.7516 76.2141 50.6609 75.6651 50.5746 75.1116C50.5338 74.8484 50.4929 74.5808 50.4566 74.3176C50.4475 74.2495 50.4384 74.186 50.4294 74.118C50.3976 73.8957 50.4521 74.2904 50.4203 74.0681C50.4021 73.9138 50.3794 73.7595 50.3613 73.6053C50.2296 72.53 50.1252 71.4547 50.0481 70.3749C49.753 66.2098 49.862 62.013 50.2932 57.8616C50.3431 57.3716 50.3976 56.8816 50.4566 56.3961C50.4838 56.1647 50.5156 55.9333 50.5428 55.7064C50.5519 55.6475 50.5565 55.593 50.5655 55.534C50.5928 55.3344 50.5383 55.7201 50.5655 55.5204C50.5837 55.3889 50.6019 55.2573 50.62 55.1257C50.7471 54.2274 50.8878 53.3335 51.0467 52.4397C51.3326 50.8064 51.6731 49.1776 52.068 47.5669C52.3948 46.233 52.7625 44.9036 53.1846 43.5969C53.3571 43.0661 53.5386 42.5353 53.7338 42.0135C53.8201 41.7866 53.9063 41.5598 53.9971 41.3375C54.0379 41.2377 54.0833 41.1378 54.1197 41.0335C54.0198 41.283 54.1197 41.0244 54.1787 40.8974C54.3194 40.5798 54.4646 40.2667 54.6326 39.9673C54.8187 39.627 54.746 39.2731 54.5055 38.9873C53.053 37.2586 51.3372 35.7069 49.6078 34.2641C45.6769 30.9838 41.2695 28.2389 36.458 26.4603C30.4937 24.2553 23.9846 23.7698 17.8205 25.4259C14.3072 26.3696 10.8711 27.9394 7.87533 29.9993C6.15501 31.1835 4.64349 32.6172 3.39978 34.3004C1.162 37.3312 0.0453839 41.097 -7.06874e-06 44.8583C-0.045398 48.6603 0.97136 52.4533 2.75069 55.8017C4.55271 59.1909 7.20354 62.1582 10.4445 64.2316C13.8397 66.4004 17.875 67.4802 21.9057 67.2851C26.9577 67.0401 31.7328 64.9485 35.8362 62.0765C41.9367 57.8071 46.8117 51.9543 50.9514 45.8292C52.245 43.9145 53.4706 41.95 54.6416 39.9582C55.1682 39.0598 53.7747 38.2477 53.2481 39.1415C49.2083 46.0243 44.4877 52.6984 38.4461 57.9841C36.2855 59.876 33.9388 61.5684 31.3924 62.9068C29.3089 64.0048 27.1801 64.8215 24.8107 65.3024C24.5656 65.3523 24.3205 65.3977 24.0708 65.4385C23.9483 65.4612 23.8257 65.4793 23.7032 65.4975C23.6305 65.5066 23.5579 65.5202 23.4853 65.5293C23.6623 65.5066 23.449 65.5338 23.4081 65.5383C22.8861 65.6018 22.3596 65.6472 21.8331 65.6699C20.8208 65.7153 19.8041 65.6835 18.7964 65.5655C18.7419 65.561 18.406 65.5156 18.6103 65.5429C18.5014 65.5293 18.3879 65.5111 18.2789 65.493C18.0247 65.4521 17.7751 65.4113 17.5254 65.3614C17.0625 65.2706 16.604 65.1617 16.1501 65.0347C15.6962 64.9077 15.2377 64.7579 14.7884 64.5946C14.575 64.5175 14.3662 64.4358 14.1574 64.3496C14.1075 64.3315 14.0576 64.3088 14.0076 64.2861C14.1938 64.3632 13.994 64.2816 13.9623 64.2679C13.8442 64.218 13.7262 64.1636 13.6082 64.1091C12.7776 63.728 11.9741 63.2879 11.2025 62.7934C10.8121 62.5393 10.4263 62.2762 10.0541 61.9949C10.0132 61.9676 9.75905 61.7725 9.91338 61.8905C9.8226 61.8179 9.73182 61.7453 9.64104 61.6727C9.45039 61.5185 9.26429 61.3642 9.08273 61.2054C8.39732 60.611 7.74823 59.9713 7.13999 59.2953C6.83133 58.9505 6.53175 58.592 6.24125 58.2291C6.10508 58.0612 6.25941 58.2608 6.13231 58.093C6.05515 57.9931 5.97798 57.8888 5.90536 57.789C5.76919 57.603 5.63301 57.4124 5.50138 57.2218C4.97938 56.4641 4.50732 55.6792 4.0761 54.8671C3.8673 54.4678 3.66758 54.0595 3.48148 53.6466C3.43609 53.5513 3.39524 53.456 3.35439 53.3562C3.32715 53.2972 3.30446 53.2383 3.27722 53.1838C3.35892 53.3698 3.27722 53.1747 3.25906 53.143C3.17282 52.9297 3.08658 52.7165 3.00488 52.4987C2.6826 51.6457 2.41025 50.7746 2.19238 49.8899C2.08344 49.4543 1.99266 49.0188 1.91095 48.5787C1.8701 48.3518 1.83379 48.1295 1.79748 47.9026C1.7884 47.8482 1.74755 47.5215 1.77478 47.7484C1.75662 47.6259 1.74301 47.5034 1.72939 47.3809C1.62953 46.4825 1.58414 45.5751 1.60229 44.6677C1.61137 44.2367 1.63407 43.8102 1.67038 43.3792C1.68854 43.1568 1.71577 42.93 1.74301 42.7077C1.77024 42.4672 1.72485 42.7984 1.76116 42.5579C1.77932 42.4354 1.79748 42.3175 1.81563 42.195C1.96088 41.3102 2.17422 40.4346 2.45564 39.5816C2.58728 39.1733 2.74161 38.7695 2.90502 38.3747C2.98672 38.1797 2.83693 38.5335 2.91863 38.3385C2.94133 38.284 2.96856 38.225 2.99126 38.1706C3.03211 38.0753 3.0775 37.9846 3.11835 37.8893C3.21367 37.6851 3.31353 37.4809 3.41793 37.2768C3.84461 36.4556 4.33937 35.6797 4.89314 34.9402C5.02931 34.7587 4.85683 34.9765 5.00208 34.7995C5.07017 34.7178 5.13825 34.6316 5.20634 34.55C5.36521 34.3594 5.52861 34.1689 5.69202 33.9874C6.00976 33.638 6.34111 33.2977 6.68608 32.9756C7.04921 32.6353 7.4305 32.3132 7.82086 32.0001C7.83901 31.9865 8.02058 31.8459 7.87533 31.9548C7.91164 31.9275 7.94795 31.9003 7.98427 31.8686C8.08867 31.7914 8.18853 31.7143 8.29292 31.6417C8.51534 31.4829 8.73776 31.3286 8.96471 31.1789C10.4898 30.1717 12.1148 29.2915 13.7852 28.5429C19.6497 25.9159 26.1997 25.3488 32.4001 26.8914C37.4839 28.1527 42.1546 30.6254 46.3669 33.756C47.1385 34.3277 47.8829 34.9175 48.7045 35.6162C49.3899 36.1924 50.0572 36.7913 50.7063 37.4038C51.5187 38.166 52.304 38.96 53.0484 39.7858C53.1483 39.8947 53.2436 40.0036 53.3389 40.117L53.2118 39.137C52.7806 39.9264 52.4447 40.7749 52.1315 41.6142C51.7049 42.7712 51.3372 43.9508 51.0058 45.135C50.5837 46.6459 50.2206 48.1703 49.8983 49.7084C49.5306 51.4869 49.2265 53.2791 48.9814 55.0803C48.7045 57.1311 48.4912 59.1864 48.3686 61.2508C48.2461 63.3152 48.2052 65.5156 48.2642 67.6481C48.3323 69.9212 48.5184 72.1852 48.8225 74.4401C49.1266 76.695 49.5579 78.8819 50.1434 81.0552C50.7516 83.3056 51.5278 85.5015 52.472 87.634C53.4161 89.7664 54.5236 91.7537 55.8218 93.6502C57.1972 95.651 58.7677 97.5203 60.5198 99.199C62.3717 100.973 64.4234 102.543 66.6067 103.89C69.026 105.379 71.6133 106.59 74.2823 107.561C77.269 108.65 80.3647 109.426 83.5012 109.956C87.1507 110.578 90.85 110.882 94.5494 110.959C95.085 110.968 95.7069 111.045 96.2334 110.905C96.9415 110.714 97.1594 110.002 96.8235 109.389C96.6147 109.013 96.3106 108.682 96.0745 108.323C95.8793 108.028 95.6978 107.724 95.5344 107.416C95.43 107.221 95.3347 107.021 95.2439 106.821C95.2212 106.771 95.1985 106.722 95.1758 106.672C95.1576 106.631 95.2303 106.808 95.1712 106.658C95.1259 106.54 95.0759 106.422 95.0305 106.304C93.9593 103.428 93.9729 100.374 94.3179 97.3025C94.4495 96.1274 94.7627 94.9568 94.799 93.7772C94.8354 92.6838 94.799 91.5903 94.7083 90.4969C94.5176 88.2692 94.0819 86.0596 93.4055 83.9272C92.0574 79.6804 89.797 75.7332 86.8011 72.4347C85.3396 70.8286 83.7009 69.3949 81.9216 68.1472C81.563 67.8976 81.0229 68.0836 80.8186 68.4375C80.5826 68.8413 80.7505 69.2905 81.1091 69.54L81.15 69.5446Z" fill="#231F20"/>
<path d="M79.8018 75.4609C79.5749 75.6787 79.3252 75.8829 79.0801 76.078C79.0166 76.1279 78.9576 76.1778 78.894 76.2277C78.7125 76.3683 78.9939 76.1506 78.7987 76.3003C78.6308 76.4273 78.4583 76.5544 78.2858 76.6814C77.8682 76.9854 77.4415 77.2758 77.0058 77.5525C74.2324 79.3401 71.2003 80.724 68.0774 81.7766C65.5128 82.6432 62.8756 83.2874 60.2066 83.7502C59.7754 83.8228 59.5348 84.3536 59.6437 84.7438C59.7708 85.1975 60.2066 85.3836 60.6378 85.3064C65.0634 84.5397 69.3982 83.2511 73.4698 81.3365C75.7711 80.2566 77.9862 78.9681 79.9925 77.3983C80.3193 77.1442 80.6461 76.8856 80.9457 76.5952C81.6947 75.8738 80.5508 74.7305 79.8018 75.4519V75.4609Z" fill="#231F20"/>
<path d="M86.4879 82.7475C86.261 82.9653 86.0113 83.1695 85.7662 83.3646C85.7027 83.4145 85.6437 83.4644 85.5801 83.5143C85.3986 83.6549 85.68 83.4372 85.4848 83.5869C85.3169 83.7139 85.1444 83.841 84.9719 83.968C84.5543 84.272 84.1276 84.5624 83.6919 84.8391C80.9185 86.6267 77.8864 88.0106 74.7635 89.0632C72.1989 89.9297 69.5616 90.574 66.8927 91.0368C66.4614 91.1094 66.2209 91.6402 66.3298 92.0304C66.4569 92.4841 66.8927 92.6702 67.3239 92.593C71.7495 91.8263 76.0843 90.5377 80.1559 88.6231C82.4572 87.5432 84.6723 86.2547 86.6786 84.6849C87.0054 84.4308 87.3322 84.1722 87.6318 83.8818C88.3807 83.1604 87.2369 82.0171 86.4879 82.7385V82.7475Z" fill="#231F20"/>
<path d="M89.4792 92.2028C89.2976 92.3752 89.1025 92.534 88.9073 92.6928C88.8573 92.7291 88.812 92.77 88.762 92.8063C88.6077 92.9288 88.9027 92.7019 88.7302 92.8289C88.5986 92.9288 88.467 93.0286 88.3308 93.1238C88.0085 93.3598 87.6772 93.5821 87.3413 93.7999C85.2079 95.1746 82.8839 96.2363 80.4827 97.0439C78.4946 97.7154 76.452 98.2145 74.3822 98.5729C73.9509 98.6455 73.7104 99.1763 73.8193 99.5665C73.9419 100.02 74.3822 100.206 74.8134 100.129C80.1377 99.2036 85.5756 97.3297 89.8741 93.9677C90.1283 93.7681 90.387 93.5639 90.6185 93.3416C91.3675 92.6202 90.2236 91.4814 89.4747 92.1983L89.4792 92.2028Z" fill="#231F20"/>
<path d="M74.2642 69.6988C74.0826 69.8712 73.8874 70.03 73.6923 70.1888C73.6423 70.2251 73.5969 70.266 73.547 70.3023C73.3927 70.4248 73.6877 70.1979 73.5152 70.3249C73.3836 70.4248 73.252 70.5246 73.1158 70.6199C72.7935 70.8558 72.4622 71.0781 72.1263 71.2959C69.9929 72.6706 67.6689 73.7323 65.2677 74.5399C63.2796 75.2114 61.237 75.7105 59.1671 76.0689C58.7359 76.1415 58.4953 76.6723 58.6043 77.0625C58.7268 77.5162 59.1671 77.7023 59.5984 77.6251C64.9227 76.6996 70.3605 74.8257 74.6591 71.4638C74.9133 71.2641 75.172 71.06 75.4035 70.8376C76.1524 70.1162 75.0086 68.9774 74.2596 69.6943L74.2642 69.6988Z" fill="#231F20"/>
<path d="M70.3651 63.8324C70.1835 64.0048 69.9883 64.1636 69.7931 64.3224C69.7432 64.3587 69.6978 64.3995 69.6479 64.4358C69.4936 64.5583 69.7886 64.3315 69.6161 64.4585C69.4845 64.5583 69.3529 64.6581 69.2167 64.7534C68.8944 64.9893 68.563 65.2117 68.2272 65.4294C66.0938 66.8042 63.7698 67.8658 61.3686 68.6735C59.3804 69.3449 57.3379 69.844 55.268 70.2025C54.8368 70.275 54.5962 70.8059 54.7052 71.1961C54.8277 71.6498 55.268 71.8358 55.6992 71.7587C61.0236 70.8331 66.4614 68.9593 70.76 65.5973C71.0142 65.3977 71.2729 65.1935 71.5044 64.9712C72.2533 64.2498 71.1095 63.111 70.3605 63.8278L70.3651 63.8324Z" fill="#231F20"/>
<path d="M22.1372 27.0411C22.1372 27.0411 -3.50415 33.5563 6.47278 54.4905C10.0178 61.1646 19.913 67.512 34.016 59.5176C34.016 59.5176 18.0202 67.6934 10.0224 53.0885C2.02447 38.4836 22.1417 27.0411 22.1417 27.0411H22.1372Z" fill="#9586DE"/>
<path d="M98.7935 81.9081C98.6482 81.7675 98.5801 81.5906 98.5801 81.3864V61.4232C98.5801 61.1963 98.6482 61.0148 98.7799 60.8696C98.9115 60.729 99.0931 60.6564 99.3155 60.6564H107.54C109.996 60.6564 111.93 61.2326 113.341 62.3896C114.753 63.5465 115.457 65.2389 115.457 67.4666C115.457 69.6943 114.757 71.3776 113.355 72.5118C111.952 73.6461 110.014 74.2132 107.54 74.2132H102.969V81.3909C102.969 81.5951 102.901 81.7675 102.77 81.9127C102.638 82.0579 102.457 82.1259 102.234 82.1259H99.32C99.1158 82.1259 98.9433 82.0533 98.798 81.9127L98.7935 81.9081ZM107.386 70.8059C108.571 70.8059 109.483 70.5246 110.119 69.962C110.754 69.3994 111.072 68.5646 111.072 67.462C111.072 66.3595 110.763 65.5655 110.15 64.9621C109.538 64.3587 108.616 64.0592 107.391 64.0592H102.91V70.8059H107.391H107.386Z" fill="#9586DE"/>
<path d="M117.894 81.9082C117.749 81.7675 117.681 81.5906 117.681 81.3864V66.9403C117.681 66.7361 117.753 66.5592 117.894 66.4049C118.035 66.2507 118.212 66.1735 118.416 66.1735H120.903C121.13 66.1735 121.312 66.2461 121.457 66.3868C121.598 66.532 121.671 66.7134 121.671 66.9403V68.1971C122.161 67.5437 122.778 67.0401 123.527 66.6953C124.271 66.3459 125.129 66.1735 126.087 66.1735H127.344C127.571 66.1735 127.748 66.2416 127.88 66.3731C128.012 66.5047 128.08 66.6862 128.08 66.9085V69.1181C128.08 69.3223 128.012 69.4947 127.88 69.6399C127.748 69.785 127.567 69.8531 127.344 69.8531H124.952C123.99 69.8531 123.232 70.1299 122.683 70.6834C122.134 71.2369 121.857 71.9901 121.857 72.9519V81.3864C121.857 81.5906 121.784 81.763 121.643 81.9082C121.503 82.0533 121.316 82.1214 121.09 82.1214H118.421C118.216 82.1214 118.044 82.0488 117.899 81.9082H117.894Z" fill="#9586DE"/>
<path d="M132.451 80.5742C131.144 79.3356 130.436 77.6433 130.336 75.4972L130.304 74.1497L130.336 72.8022C130.44 70.6743 131.153 68.991 132.483 67.7433C133.813 66.4956 135.651 65.8741 138.007 65.8741C140.363 65.8741 142.201 66.5002 143.531 67.7433C144.861 68.991 145.578 70.6788 145.678 72.8022C145.696 73.0472 145.71 73.4964 145.71 74.1497C145.71 74.8031 145.701 75.2522 145.678 75.4972C145.573 77.6433 144.87 79.3356 143.563 80.5742C142.255 81.8129 140.403 82.4299 138.011 82.4299C135.619 82.4299 133.767 81.8129 132.46 80.5742H132.451ZM140.521 78.3647C141.116 77.6796 141.443 76.6723 141.502 75.343C141.52 75.1388 141.534 74.7395 141.534 74.1452C141.534 73.5508 141.525 73.1561 141.502 72.9474C141.438 71.618 141.111 70.6108 140.521 69.9257C139.927 69.2406 139.092 68.9003 138.007 68.9003C136.922 68.9003 136.082 69.2406 135.492 69.9257C134.897 70.6108 134.571 71.618 134.512 72.9474L134.48 74.1452L134.512 75.343C134.575 76.6723 134.902 77.6796 135.492 78.3647C136.087 79.0498 136.922 79.3901 138.007 79.3901C139.092 79.3901 139.931 79.0498 140.521 78.3647Z" fill="#9586DE"/>
<path d="M150.462 81.0098C148.896 79.5579 148.065 77.5344 147.961 74.9392C147.938 74.3448 147.929 73.3966 147.929 72.0854C147.929 70.7741 147.938 69.8259 147.961 69.2315C148.065 66.6953 148.905 64.708 150.494 63.2652C152.078 61.8224 154.252 61.101 157.012 61.101C158.896 61.101 160.512 61.4186 161.86 62.0538C163.208 62.689 164.234 63.4785 164.928 64.4313C165.623 65.3841 165.99 66.3187 166.031 67.2352V67.2987C166.031 67.4621 165.972 67.6027 165.845 67.7116C165.722 67.825 165.568 67.8795 165.387 67.8795H162.227C162.023 67.8795 161.869 67.8432 161.769 67.7706C161.665 67.698 161.574 67.5709 161.492 67.3895C161.206 66.6318 160.702 65.983 159.99 65.443C159.272 64.9031 158.283 64.6309 157.012 64.6309C155.582 64.6309 154.461 65.0211 153.653 65.7969C152.845 66.5728 152.409 67.7706 152.35 69.3858C152.328 69.9801 152.319 70.8785 152.319 72.0854C152.319 73.2922 152.328 74.1724 152.35 74.7849C152.473 78.038 154.048 79.6623 157.075 79.6623C158.528 79.6623 159.695 79.2676 160.575 78.4826C161.456 77.6977 161.896 76.5272 161.896 74.9709V74.0181H158.151C157.924 74.0181 157.747 73.9456 157.616 73.8049C157.484 73.6643 157.416 73.4782 157.416 73.2514V71.6271C157.416 71.4048 157.484 71.2188 157.616 71.0736C157.747 70.9329 157.929 70.8603 158.151 70.8603H165.486C165.713 70.8603 165.89 70.9329 166.022 71.0736C166.154 71.2188 166.222 71.4002 166.222 71.6271V74.8484C166.222 76.5453 165.85 78.0244 165.101 79.2812C164.352 80.538 163.285 81.5044 161.896 82.1804C160.503 82.8564 158.878 83.1922 157.016 83.1922C154.216 83.1922 152.033 82.4662 150.467 81.0143L150.462 81.0098Z" fill="#9586DE"/>
<path d="M170.588 81.3319C169.281 80.0933 168.573 78.401 168.473 76.2549L168.441 74.9074L168.473 73.5599C168.578 71.432 169.29 69.7487 170.62 68.501C171.95 67.2533 173.788 66.6317 176.144 66.6317C178.5 66.6317 180.338 67.2579 181.668 68.501C182.998 69.7487 183.715 71.4365 183.815 73.5599C183.833 73.8049 183.847 74.2541 183.847 74.9074C183.847 75.5607 183.838 76.0099 183.815 76.2549C183.711 78.401 183.007 80.0933 181.7 81.3319C180.393 82.5706 178.541 83.1876 176.149 83.1876C173.757 83.1876 171.905 82.5706 170.597 81.3319H170.588ZM178.659 79.1224C179.254 78.4373 179.58 77.43 179.639 76.1007C179.658 75.8965 179.671 75.4972 179.671 74.9029C179.671 74.3085 179.662 73.9138 179.639 73.7051C179.576 72.3757 179.249 71.3685 178.659 70.6834C178.064 69.9983 177.229 69.658 176.144 69.658C175.059 69.658 174.22 69.9983 173.63 70.6834C173.035 71.3685 172.708 72.3757 172.649 73.7051L172.617 74.9029L172.649 76.1007C172.713 77.43 173.04 78.4373 173.63 79.1224C174.224 79.8075 175.059 80.1477 176.144 80.1477C177.229 80.1477 178.069 79.8075 178.659 79.1224Z" fill="#9586DE"/>
<path d="M98.848 109.557C98.6709 109.38 98.5801 109.162 98.5801 108.908V83.9907C98.5801 83.7094 98.6618 83.4825 98.8298 83.301C98.9977 83.1241 99.2202 83.0334 99.5016 83.0334H110.604C113.591 83.0334 115.82 83.6912 117.286 85.0025C118.752 86.3182 119.487 88.1104 119.487 90.3789C119.487 91.7037 119.16 92.8335 118.511 93.7681C117.862 94.6982 117.1 95.3697 116.233 95.7781C117.304 96.2635 118.203 97.053 118.933 98.151C119.66 99.2489 120.023 100.501 120.023 101.903C120.023 104.276 119.224 106.191 117.631 107.643C116.033 109.099 113.795 109.825 110.908 109.825H99.497C99.2428 109.825 99.025 109.734 98.848 109.557ZM109.914 94.0177C111.24 94.0177 112.252 93.7001 112.937 93.0603C113.627 92.4251 113.972 91.5676 113.972 90.4969C113.972 89.4261 113.627 88.5505 112.937 87.9516C112.247 87.3527 111.24 87.0532 109.914 87.0532H103.905V94.0177H109.914ZM110.296 105.769C111.621 105.769 112.656 105.406 113.396 104.68C114.136 103.954 114.508 103.028 114.508 101.903C114.508 100.778 114.136 99.8161 113.396 99.0901C112.656 98.3642 111.621 98.0012 110.296 98.0012H103.9V105.769H110.296Z" fill="#9586DE"/>
<path d="M126.205 107.738C124.535 106.091 123.645 103.777 123.545 100.792L123.509 99.8342L123.545 98.8769C123.672 95.9686 124.571 93.6865 126.246 92.0259C127.916 90.3653 130.159 89.5396 132.964 89.5396C135.978 89.5396 138.306 90.456 139.954 92.2936C141.602 94.1311 142.423 96.5811 142.423 99.6437V100.447C142.423 100.701 142.332 100.919 142.155 101.096C141.978 101.272 141.747 101.363 141.466 101.363H128.752V101.667C128.801 103.069 129.192 104.249 129.918 105.206C130.644 106.163 131.647 106.64 132.923 106.64C134.43 106.64 135.642 106.055 136.559 104.879C136.79 104.598 136.972 104.421 137.113 104.344C137.253 104.267 137.462 104.231 137.743 104.231H141.034C141.266 104.231 141.461 104.303 141.629 104.439C141.797 104.58 141.879 104.752 141.879 104.957C141.879 105.569 141.515 106.291 140.789 107.121C140.063 107.951 139.019 108.672 137.671 109.285C136.318 109.897 134.748 110.201 132.959 110.201C130.127 110.201 127.871 109.38 126.201 107.733L126.205 107.738ZM137.212 98.151V98.0375C137.212 96.5312 136.836 95.3198 136.082 94.4033C135.329 93.4868 134.289 93.024 132.959 93.024C131.629 93.024 130.599 93.4823 129.859 94.4033C129.119 95.3198 128.747 96.5357 128.747 98.0375V98.151H137.208H137.212Z" fill="#9586DE"/>
<path d="M148.301 107.738C146.631 106.091 145.741 103.777 145.641 100.792L145.605 99.8342L145.641 98.8769C145.769 95.9686 146.667 93.6865 148.342 92.0259C150.013 90.3653 152.255 89.5396 155.06 89.5396C158.074 89.5396 160.403 90.456 162.05 92.2936C163.698 94.1311 164.52 96.5811 164.52 99.6437V100.447C164.52 100.701 164.429 100.919 164.252 101.096C164.075 101.272 163.843 101.363 163.562 101.363H150.848V101.667C150.898 103.069 151.288 104.249 152.014 105.206C152.741 106.163 153.744 106.64 155.019 106.64C156.526 106.64 157.738 106.055 158.655 104.879C158.887 104.598 159.068 104.421 159.209 104.344C159.35 104.267 159.558 104.231 159.84 104.231H163.131C163.362 104.231 163.557 104.303 163.725 104.439C163.893 104.58 163.975 104.752 163.975 104.957C163.975 105.569 163.612 106.291 162.886 107.121C162.159 107.951 161.115 108.672 159.767 109.285C158.415 109.897 156.844 110.201 155.056 110.201C152.223 110.201 149.967 109.38 148.297 107.733L148.301 107.738ZM159.309 98.151V98.0375C159.309 96.5312 158.932 95.3198 158.178 94.4033C157.425 93.4868 156.386 93.024 155.056 93.024C153.726 93.024 152.695 93.4823 151.955 94.4033C151.215 95.3198 150.843 96.5357 150.843 98.0375V98.151H159.304H159.309Z" fill="#9586DE"/>
<path d="M171.292 109.348C169.989 108.772 169.027 108.101 168.401 107.32C167.774 106.545 167.461 105.873 167.461 105.31C167.461 105.056 167.552 104.852 167.729 104.698C167.906 104.544 168.11 104.467 168.342 104.467H171.365C171.596 104.467 171.787 104.557 171.941 104.734C172.041 104.811 172.309 105.038 172.744 105.424C173.18 105.832 173.689 106.15 174.274 106.381C174.86 106.613 175.513 106.726 176.226 106.726C177.247 106.726 178.092 106.522 178.754 106.114C179.417 105.705 179.748 105.143 179.748 104.43C179.748 103.895 179.603 103.459 179.308 103.128C179.013 102.797 178.486 102.497 177.719 102.23C176.952 101.962 175.817 101.676 174.31 101.368C172.141 100.91 170.538 100.206 169.504 99.2625C168.469 98.3188 167.951 97.0666 167.951 95.5104C167.951 94.4895 168.255 93.5277 168.868 92.6202C169.481 91.7128 170.393 90.9733 171.605 90.4016C172.817 89.8254 174.265 89.5396 175.954 89.5396C177.642 89.5396 179.145 89.8163 180.397 90.3608C181.646 90.9098 182.599 91.5586 183.248 92.3117C183.897 93.0649 184.224 93.7364 184.224 94.3216C184.224 94.553 184.142 94.7481 183.974 94.916C183.806 95.0839 183.611 95.1655 183.38 95.1655H180.547C180.343 95.1655 180.125 95.0748 179.898 94.8979C179.721 94.7708 179.44 94.5258 179.054 94.1719C178.673 93.8135 178.223 93.5367 177.715 93.328C177.202 93.1239 176.603 93.024 175.917 93.024C174.973 93.024 174.238 93.2282 173.716 93.6365C173.194 94.0449 172.931 94.5803 172.931 95.2427C172.931 95.7281 173.058 96.1229 173.312 96.4314C173.566 96.7354 174.065 97.0303 174.805 97.3116C175.545 97.5929 176.657 97.8742 178.137 98.1555C180.588 98.641 182.345 99.3941 183.402 100.415C184.46 101.436 184.991 102.688 184.991 104.167C184.991 105.955 184.21 107.407 182.653 108.532C181.096 109.657 178.913 110.215 176.103 110.215C174.188 110.215 172.581 109.929 171.278 109.353L171.292 109.348Z" fill="#9586DE"/>
</g>
<defs>
<clipPath id="clip0_118_70">
<rect width="185" height="111" fill="white"/>
</clipPath>
</defs>
</svg>
