<svg width="1920" height="800" viewBox="0 0 1920 800" fill="none" xmlns="http://www.w3.org/2000/svg">
<path d="M1134.53 388.179C1134.53 388.179 1038.54 324.101 1077.77 304.487C1110.88 287.912 1138.13 284.94 1138.13 284.94C1138.13 284.94 1172.37 241.73 1182.33 250.689C1192.3 259.648 1187.3 325.421 1161.41 326.412C1135.52 327.402 1116.46 334.248 1116.46 334.248L1151.44 365.264L1134.5 388.179H1134.53Z" fill="url(#paint0_linear_323_1681)"/>
<path d="M1139.63 340.214C1139.63 340.214 1108.63 358.528 1104.89 374.223L1138.51 396.632L1164.64 370.481L1139.63 340.214Z" fill="url(#paint1_linear_323_1681)"/>
<path d="M1158.4 368.984C1158.4 368.984 1072.4 420.296 1074.53 582.726C1074.53 582.726 1097.83 580.437 1126.58 586.38L1128.94 522.346C1129.14 516.843 1133.67 512.462 1139.17 512.462C1144.76 512.462 1149.29 516.931 1149.42 522.5L1150.76 589.132C1165.5 589.594 1181.91 591.553 1202 586.689L1198.94 436.717C1198.94 436.717 1193.6 377.921 1222.42 377.921C1251.24 377.921 1156.79 367.465 1158.4 368.962V368.984Z" fill="url(#paint2_linear_323_1681)"/>
<path d="M1078.51 489.063C1078.51 489.063 1123.33 518.956 1205.98 508.984C1205.98 508.984 1198.02 409.333 1208.97 391.415C1219.93 373.497 1160.18 356.547 1160.18 356.547C1160.18 356.547 1077.52 408.365 1078.51 489.063Z" fill="url(#paint3_linear_323_1681)"/>
<path d="M1126.58 586.38C1126.58 586.38 1092.44 569.783 1074.53 582.726L1053.04 591.95C1041.03 597.101 1033.94 609.626 1035.7 622.591H1128.32L1126.61 586.38H1126.58Z" fill="#3B3F3F"/>
<path d="M1065.56 584.708C1065.56 584.708 1090.46 599.654 1130.28 601.657L1132.28 579.733C1132.28 579.733 1093.45 562.783 1070.55 567.78L1065.58 584.73L1065.56 584.708Z" fill="url(#paint4_linear_323_1681)"/>
<path d="M1150.65 587.371C1150.65 587.371 1184.8 570.774 1202.7 583.717L1224.2 592.94C1236.21 598.091 1243.29 610.616 1241.53 623.582H1148.91L1150.63 587.371H1150.65Z" fill="#3B3F3F"/>
<path d="M1211.68 585.72C1211.68 585.72 1186.78 600.667 1146.96 602.67L1144.95 580.745C1144.95 580.745 1183.78 563.796 1206.69 568.792L1211.66 585.742L1211.68 585.72Z" fill="url(#paint5_linear_323_1681)"/>
<path d="M1297.02 335.349C1297.55 332.641 1297.83 329.824 1297.83 326.896C1297.83 284.522 1263.51 250.182 1221.16 250.182C1198.66 250.182 1180.4 259.736 1168.41 275.057C1164.82 272.173 1160.27 270.434 1155.29 270.434C1143.7 270.434 1134.28 279.855 1134.28 291.456C1134.28 302.418 1142.67 311.421 1153.38 312.39C1152.81 316.925 1152.57 321.613 1152.7 326.412C1154.19 378.714 1185.57 398.151 1224.4 390.689C1234.19 388.818 1258.89 381.377 1276.98 366.497C1280.56 372.969 1287.45 377.349 1295.35 377.349C1306.94 377.349 1316.36 367.928 1316.36 356.327C1316.36 344.726 1307.84 336.252 1297.02 335.393V335.349Z" fill="url(#paint6_linear_323_1681)"/>
<path d="M1306.19 356.657C1306.19 363.261 1300.85 368.61 1294.25 368.61C1287.65 368.61 1282.3 363.261 1282.3 356.657C1282.3 350.053 1287.65 344.704 1294.25 344.704C1300.85 344.704 1306.19 350.053 1306.19 356.657Z" fill="url(#paint7_linear_323_1681)"/>
<path d="M1151.64 303.761C1146.85 302.22 1143.37 297.708 1143.37 292.381C1143.37 285.777 1148.72 280.428 1155.32 280.428C1157.85 280.428 1160.18 281.22 1162.11 282.563C1165.22 284.72 1152.81 304.157 1151.64 303.783V303.761Z" fill="url(#paint8_linear_323_1681)"/>
<path d="M1202.81 307.701C1202.81 313.667 1197.97 318.487 1192.03 318.487C1186.09 318.487 1181.25 313.645 1181.25 307.701C1181.25 301.758 1186.09 296.915 1192.03 296.915C1197.97 296.915 1202.81 301.758 1202.81 307.701Z" fill="#3B3F3F"/>
<path d="M1192.03 302.22C1192.03 304.135 1190.47 305.698 1188.56 305.698C1186.64 305.698 1185.08 304.135 1185.08 302.22C1185.08 300.305 1186.64 298.742 1188.56 298.742C1190.47 298.742 1192.03 300.305 1192.03 302.22Z" fill="white"/>
<path d="M1248.88 331.629C1248.88 337.594 1244.04 342.415 1238.1 342.415C1232.16 342.415 1227.32 337.572 1227.32 331.629C1227.32 325.686 1232.16 320.843 1238.1 320.843C1244.04 320.843 1248.88 325.686 1248.88 331.629Z" fill="#3B3F3F"/>
<path d="M1235.59 330.11C1237.51 330.11 1239.07 328.553 1239.07 326.632C1239.07 324.711 1237.51 323.154 1235.59 323.154C1233.67 323.154 1232.12 324.711 1232.12 326.632C1232.12 328.553 1233.67 330.11 1235.59 330.11Z" fill="white"/>
<path d="M1211.46 311.201C1211.46 311.201 1186.07 328.635 1186.56 333.126C1187.06 337.616 1197.01 348.579 1205.48 343.582C1213.95 338.607 1218.41 305.214 1211.46 311.201Z" fill="#F7997C"/>
<path d="M1322.98 287.472L1303.64 290.377L1294.93 241.047C1294.93 241.047 1242.72 228.478 1238.85 228.478C1234.98 228.478 1198 219.035 1198 219.035L1160.55 183L1169.26 242.984L1153.8 241.047L1163.46 263.302L1144.49 311.069L1153.2 314.173L1165.15 279.305L1197.89 265.855L1247.94 317.805L1241.58 293.899L1262.87 325.289L1266.61 298.764L1280.8 338.365L1263.62 367.135L1271.72 372.484L1284.13 354.126C1290.09 345.321 1299.92 339.906 1310.55 339.597L1322.98 287.494V287.472Z" fill="#3B3F3F"/>
<path d="M1200.99 400.374C1200.99 400.374 1189.28 528.157 1198.26 538.635C1207.21 549.091 1236.34 536.39 1236.34 536.39C1236.34 536.39 1248.29 509.491 1236.34 508.742C1224.4 507.994 1220.66 505.748 1220.66 505.748L1219.91 395.135L1200.99 400.374Z" fill="url(#paint9_linear_323_1681)"/>
<path d="M1186.31 445.962L1237.35 447.217L1230.27 397.204C1229.43 391.239 1225.03 385.912 1218.54 383.909C1207.76 380.541 1187.41 387.255 1186.31 445.984V445.962Z" fill="#FF0000"/>
<path d="M1282.78 352.761C1273.98 352.761 1266.86 345.629 1266.86 336.824C1266.86 331.651 1272.33 317.101 1276.89 305.962C1272.97 315.053 1262.39 340.368 1262.39 347.544C1262.39 356.349 1269.52 363.481 1278.32 363.481C1287.12 363.481 1294 356.547 1294.2 347.918C1291.3 350.89 1287.27 352.761 1282.78 352.761Z" fill="#73C0FF"/>
<path d="M1282.78 352.761C1287.27 352.761 1291.3 350.89 1294.2 347.918C1294.2 347.786 1294.25 347.676 1294.25 347.544C1294.25 338.739 1278.32 302.66 1278.32 302.66C1278.32 302.66 1277.77 303.893 1276.89 305.962C1272.36 317.101 1266.86 331.673 1266.86 336.824C1266.86 345.629 1273.98 352.761 1282.78 352.761Z" fill="url(#paint10_linear_323_1681)"/>
<path d="M1172.12 345.079C1183.54 340.082 1212.27 348.447 1214.45 371.494C1214.45 371.494 1195.09 341.358 1172.5 350.141C1172.5 350.141 1164.71 348.336 1172.12 345.101V345.079Z" fill="#3B3F3F"/>
<path d="M881.614 466.148C884.32 469.032 886.476 472.466 888.016 476.23C889.754 475.173 891.492 474.094 893.23 473.038C894.924 472.025 896.618 471.035 898.334 470.022C896.618 466.258 894.462 462.868 891.91 459.918C888.808 461.745 885.728 463.594 882.67 465.466C882.318 465.686 881.966 465.906 881.614 466.126V466.148Z" fill="#1067E5"/>
<path d="M881.614 466.148C881.966 465.928 882.318 465.708 882.67 465.488C885.728 463.594 888.808 461.767 891.91 459.94C888.478 455.978 884.386 452.808 879.854 450.431C877.324 453.447 874.794 456.462 872.264 459.478C875.85 461.041 878.996 463.352 881.614 466.17V466.148Z" fill="#1067E5"/>
<path d="M812.6 487.368C812.072 487.368 811.544 487.412 810.994 487.434C811.456 487.94 811.962 488.403 812.446 488.887C812.49 488.381 812.534 487.874 812.6 487.368Z" fill="#1067E5"/>
<path d="M858.646 457.189C861.638 453.513 864.652 449.859 867.666 446.182C858.69 444.509 848.988 445.544 839.748 449.704C833.654 452.434 828.616 456.242 824.546 460.733C827.736 463.066 830.816 465.553 833.764 468.129C840.254 461.613 849.406 457.607 858.646 457.189Z" fill="url(#paint11_linear_323_1681)"/>
<path d="M826.966 477.638C824.084 475.019 821.048 472.576 817.88 470.242C815.108 475.547 813.348 481.337 812.6 487.346C816.406 487.236 820.212 487.17 824.04 487.126C824.546 483.868 825.514 480.698 826.966 477.638Z" fill="url(#paint12_linear_323_1681)"/>
<path d="M837.174 499.057C837.262 498.088 837.394 497.142 837.548 496.173C836.272 497.12 834.974 498.088 833.676 499.035C834.622 499.035 835.59 499.035 836.536 499.035C836.734 499.035 836.954 499.035 837.152 499.035L837.174 499.057Z" fill="#1067E5"/>
<path d="M837.174 499.057C836.976 499.057 836.756 499.057 836.558 499.057C835.612 499.057 834.644 499.057 833.698 499.057C832.84 499.695 831.982 500.355 831.102 500.994C833.016 501.808 834.996 502.557 836.976 503.217C836.976 501.808 837.02 500.421 837.152 499.057H837.174Z" fill="#1067E5"/>
<path d="M779.93 448.208C781.756 449.154 783.582 450.101 785.43 451.069C786.244 449.374 787.124 447.701 788.092 446.072C785.364 446.777 782.636 447.503 779.908 448.208H779.93Z" fill="#1067E5"/>
<path d="M862.496 525.846C862.496 524.107 862.43 522.346 862.298 520.629C859.526 520.299 856.776 519.903 854.026 519.462C856.27 522.324 859.174 524.503 862.496 525.868V525.846Z" fill="#1067E5"/>
<path d="M850.33 534.013C850.682 533.925 851.034 533.859 851.364 533.77C851.056 533.55 850.748 533.352 850.44 533.132C850.396 533.44 850.352 533.726 850.308 534.013H850.33Z" fill="#1067E5"/>
<path d="M889.16 501.478C888.104 504.978 886.542 508.258 884.584 511.296C886.608 511.516 888.588 511.736 890.546 511.956C892.24 512.154 893.934 512.396 895.628 512.638C897.542 509.491 899.016 506.057 900.116 502.447C899.434 502.381 898.752 502.315 898.092 502.248C895.122 501.962 892.13 501.72 889.16 501.478Z" fill="#1067E5"/>
<path d="M889.16 501.478C892.13 501.72 895.122 501.962 898.092 502.248C898.752 502.314 899.412 502.381 900.116 502.447C901.304 498.528 902.03 494.434 902.382 490.406C898.532 489.899 894.594 489.635 890.766 489.437C890.898 493.686 890.326 497.714 889.16 501.5V501.478Z" fill="#1067E5"/>
<path d="M828.264 512.33C828.924 513.717 829.672 515.082 830.464 516.403C831.344 515.676 832.202 514.95 833.082 514.223C831.454 513.629 829.848 513.013 828.264 512.33Z" fill="#1067E5"/>
<path d="M881.614 466.148C872.242 471.959 863.046 478.035 854.004 484.33C853.476 485.365 852.97 486.399 852.508 487.434C852.266 487.962 852.046 488.491 851.848 489.019C853.41 491.55 854.774 494.214 856.028 496.943C860.34 493.95 864.696 491.022 869.096 488.16C875.366 484.066 881.702 480.104 888.016 476.23C886.476 472.465 884.32 469.053 881.614 466.148Z" fill="url(#paint13_linear_323_1681)"/>
<path d="M869.096 488.16C864.696 491.022 860.34 493.95 856.028 496.943C856.424 497.802 856.842 498.66 857.216 499.541C864.256 499.827 871.296 500.201 878.336 500.686C881.944 500.928 885.552 501.192 889.16 501.478C890.304 497.692 890.876 493.664 890.766 489.415C887.268 489.239 883.858 489.107 880.624 488.887C876.774 488.623 872.946 488.359 869.096 488.16Z" fill="url(#paint14_linear_323_1681)"/>
<path d="M830.464 516.403C829.672 515.082 828.946 513.717 828.264 512.33C825.8 511.274 823.358 510.107 821.004 508.83C818.276 507.355 815.636 505.727 813.128 503.988C813.7 507.179 814.536 510.327 815.658 513.431C816.098 514.642 816.538 515.852 817.044 517.041C818.232 519.727 819.618 522.214 821.136 524.613C823.534 528.399 826.262 531.833 829.342 534.871C831.234 535.157 833.148 535.355 835.084 535.444C839.484 535.664 843.972 535.311 848.438 534.453C841.156 530.249 834.864 523.865 830.442 516.425L830.464 516.403Z" fill="url(#paint15_linear_323_1681)"/>
<path d="M846.106 547.044C846.458 547 846.81 546.956 847.184 546.912C846.92 546.802 846.678 546.648 846.414 546.538C846.326 546.714 846.216 546.868 846.106 547.044Z" fill="#1067E5"/>
<path d="M847.162 546.912C846.81 546.956 846.458 547 846.084 547.044C843.554 551.513 839.924 555.343 834.842 558.072C827.098 562.233 814.294 563.752 809.19 554.792C806.682 550.39 806.968 545.701 808.75 541.189C810.158 537.579 812.534 534.101 815.152 530.931C817.088 528.597 819.178 526.462 821.136 524.591C819.618 522.192 818.232 519.704 817.044 517.019C816.516 515.83 816.076 514.62 815.658 513.409C811.654 517.041 807.958 520.937 804.702 525.23C804.02 526.132 803.294 527.035 802.634 527.981C801.006 530.38 799.598 532.978 798.476 535.664C794.538 545.107 794.252 555.805 801.314 564.236C808.75 573.129 821.158 574.824 831.894 571.984C844.126 568.748 852.398 560.648 857.216 550.5C853.762 549.553 850.396 548.365 847.162 546.912Z" fill="#1067E5"/>
<path d="M836.008 487.082C835.48 487.082 834.952 487.082 834.424 487.06C830.948 487.038 827.494 487.104 824.04 487.148C820.212 487.192 816.406 487.258 812.6 487.368C812.534 487.874 812.512 488.381 812.446 488.887C815.878 492.277 819.706 495.116 823.842 497.472C824.832 498.044 825.866 498.55 826.9 499.057C829.166 499.057 831.41 499.013 833.676 499.035C834.974 498.066 836.25 497.12 837.548 496.173C837.856 494.324 838.274 492.519 838.758 490.714C837.878 489.481 836.954 488.248 835.986 487.082H836.008Z" fill="url(#paint16_linear_323_1681)"/>
<path d="M796.738 488.05C791.37 488.358 786.024 488.733 780.7 489.195C776.74 489.525 772.802 489.899 768.864 490.34C701.324 497.604 636.006 517.107 575.814 550.544C546.312 566.921 518.548 586.05 490.784 605.157C467.508 621.182 460.696 625.547 435 637.5C432.25 638.777 326.5 686 -2 786.535V799.5C467 657 483.612 624.352 517.602 601.173C573.944 562.761 633.146 530.513 699.762 514.003C723.478 508.126 747.59 504.186 771.878 501.808C776.036 501.412 780.194 500.994 784.374 500.686C791.986 500.113 799.62 499.739 807.254 499.453C803.25 496.041 799.686 492.211 796.738 488.05Z" fill="#1067E5"/>
<path d="M804.702 525.23C795.836 519.176 788.752 510.723 784.396 500.708C780.238 501.016 776.058 501.434 771.9 501.83C774.32 508.654 777.796 515.104 782.306 520.915C786.838 526.749 792.338 531.679 798.476 535.664C799.598 532.978 801.006 530.381 802.634 527.981C803.272 527.035 803.998 526.132 804.702 525.23Z" fill="url(#paint17_linear_323_1681)"/>
<path d="M913.184 527.761C907.838 532.912 900.512 536.962 895.914 538.371C887.004 541.101 877.456 541.981 868.172 540.77C865.466 542.091 862.672 543.258 859.79 544.182C859.746 544.182 859.68 544.204 859.636 544.226C855.566 545.525 851.386 546.406 847.162 546.912C850.396 548.365 853.762 549.553 857.216 550.5C867.776 553.384 879.15 553.912 890.172 552.019C894.484 551.27 898.818 550.06 902.998 548.475C903.658 548.057 904.34 547.638 905.022 547.242C908.08 545.481 911.27 543.94 914.504 542.531C918.684 539.692 922.38 536.192 925.35 532.009C921.412 530.27 917.364 528.884 913.228 527.739L913.184 527.761Z" fill="url(#paint18_linear_323_1681)"/>
<path d="M898.334 470.022C896.64 471.035 894.924 472.003 893.23 473.038C891.492 474.094 889.754 475.151 888.016 476.23C889.072 478.805 889.842 481.513 890.282 484.308C890.568 486.047 890.7 487.764 890.744 489.437C894.594 489.635 898.51 489.899 902.36 490.406C902.448 489.327 902.514 488.248 902.558 487.17C902.382 484.044 901.92 480.896 901.106 477.704C900.402 474.975 899.434 472.443 898.312 470.022H898.334Z" fill="#1067E5"/>
<path d="M1398.5 590.057C1398.31 589.969 1398.09 589.88 1397.87 589.814C1391.88 592.28 1385.55 594.041 1379.08 595.141C1384.82 598.047 1390.8 600.601 1396.9 602.89C1402.53 600.909 1407.96 598.421 1413.07 595.428C1408.18 593.711 1403.32 591.928 1398.5 590.057Z" fill="#FF3838"/>
<path d="M1346.89 527.981C1353.07 500.884 1382.88 482.019 1408.89 495.667C1434.52 509.116 1444.15 542.223 1427.7 566.349C1420.15 577.399 1409.68 584.972 1397.89 589.815C1398.11 589.903 1398.31 589.991 1398.53 590.057C1403.34 591.928 1408.21 593.711 1413.09 595.428C1422.88 589.682 1431.48 582.044 1438.02 572.381C1455.11 547.132 1449.17 513.343 1426.58 493.509C1404.4 474.028 1372.83 474.667 1351.86 495.645C1330.88 516.645 1328.19 548.365 1347.44 571.346C1355.87 581.406 1366.93 589.044 1379.08 595.164C1385.57 594.041 1391.88 592.28 1397.87 589.837C1372.54 579.843 1339.52 560.208 1346.89 528.003V527.981Z" fill="#FF3838"/>
<path d="M805.538 440.195C813.656 426.261 828.352 418.623 844.346 418.733C858.008 418.821 869.888 423.928 879.304 432.05C881.878 428.969 884.474 425.887 887.07 422.827C879.502 416.333 870.526 411.425 860.318 408.849C832.466 401.805 802.678 414.594 791.876 440.987C795.396 442.837 798.938 444.752 802.458 446.733C803.294 444.509 804.306 442.308 805.538 440.195Z" fill="url(#paint19_linear_323_1681)"/>
<path d="M1920.5 658.459C1918.61 658.195 1506.19 618.255 1504.3 617.947C1473.39 613.192 1442.66 605.796 1413.09 595.428C1407.99 598.421 1402.55 600.931 1396.92 602.89C1410.69 608.107 1424.95 612.025 1437.88 615.701C1461.56 622.415 1896.15 667.154 1920.5 670.5V658.459Z" fill="#FF3838"/>
<path d="M948.34 532.516C943.258 533.55 938.176 534.717 933.138 536.082C934.348 536.808 935.536 537.535 936.702 538.349C939.738 540.44 942.554 542.818 945.106 545.415C949.616 544.359 954.17 543.39 958.746 542.553C955.6 538.789 952.08 535.465 948.318 532.516H948.34Z" fill="#FF3838"/>
<path d="M1342.03 595.362C1322.93 592.478 1304.48 586.292 1286.26 580.107C1268.09 573.921 1249.87 567.824 1231.55 562.101C1159.36 539.582 1083.88 521.686 1007.76 525.164C989.744 525.978 971.77 528.025 954.06 531.393C952.168 531.745 950.254 532.12 948.34 532.516C952.102 535.465 955.622 538.789 958.768 542.553C971.33 540.242 984.068 538.701 996.762 537.777C1079.31 531.679 1161.1 552.085 1239.11 577.025C1277.42 589.264 1316.4 607.16 1357.1 608.723C1370.43 609.23 1384.16 607.359 1396.9 602.89C1390.8 600.601 1384.82 598.025 1379.08 595.142C1366.78 597.255 1353.95 597.145 1342.03 595.362Z" fill="url(#paint20_linear_323_1681)"/>
<path d="M902.624 484.022C902.624 485.057 902.624 486.113 902.58 487.17C902.646 488.27 902.668 489.349 902.646 490.428C906.606 490.978 910.5 491.792 914.108 493.113C914.504 489.305 914.636 485.475 914.482 481.711C914.218 475.217 913.162 468.745 911.446 462.45C907.86 464.453 904.274 466.5 900.732 468.569C901.898 473.61 902.536 478.805 902.602 484L902.624 484.022Z" fill="#FF3838"/>
<path d="M941.454 623.692C927.528 632.541 910.17 631.154 897.542 620.588C884.21 609.45 881.9 592.082 890.59 577.245C900.336 560.56 918.618 552.437 936.526 547.594C939.386 546.824 942.268 546.119 945.172 545.437C942.598 542.84 939.804 540.44 936.768 538.371C935.602 537.579 934.392 536.83 933.204 536.104C926.824 537.843 920.554 539.934 914.526 542.575C910.962 544.997 907.09 546.956 903.02 548.519C879.744 563.091 863.266 593.645 880.382 619.135C895.826 642.16 927.462 648.566 950.1 632.299C974.102 615.041 980.636 583.233 968.118 557.016C965.522 551.579 962.376 546.824 958.834 542.575C954.258 543.412 949.726 544.38 945.194 545.437C966.688 567.252 970.472 605.289 941.498 623.714L941.454 623.692Z" fill="#FF3838"/>
<path d="M897.014 456.947C900.49 454.943 903.966 452.962 907.464 451.047C904.428 444.025 900.49 437.443 895.672 431.61C893.032 434.736 890.414 437.884 887.774 441.009C891.514 445.83 894.638 451.223 897.014 456.947Z" fill="url(#paint21_linear_323_1681)"/>
<path d="M870.592 539.538C881.636 539.45 892.768 534.519 900.16 526.418C900.534 526 900.842 525.538 901.194 525.12C897.498 524.481 893.78 523.953 890.04 523.513C884.738 530.006 878.05 535.488 870.592 539.516V539.538Z" fill="#FF3838"/>
<path d="M907.948 514.862C909.532 511.692 910.83 508.412 911.82 505C908.498 503.525 904.582 502.931 900.974 502.557C900.028 506.123 898.686 509.557 897.014 512.859C900.688 513.409 904.34 514.069 907.948 514.862Z" fill="#FF3838"/>
<path d="M905 547.264C904.318 547.66 903.636 548.057 902.976 548.497C907.024 546.956 910.918 544.975 914.482 542.553C911.248 543.962 908.08 545.503 905 547.264Z" fill="#FF3838"/>
<path d="M902.646 490.428C902.646 489.349 902.646 488.248 902.58 487.17C902.536 488.248 902.47 489.327 902.382 490.406C902.47 490.406 902.558 490.428 902.646 490.45V490.428Z" fill="#1067E5"/>
<path d="M930.256 521.862C926.802 520.365 923.216 519.044 919.564 517.899C915.78 516.711 911.886 515.698 907.97 514.84C904.362 514.047 900.71 513.387 897.036 512.837C895.122 516.623 892.768 520.189 890.062 523.513C893.824 523.953 897.542 524.481 901.216 525.12C905.264 525.824 909.268 526.682 913.206 527.761C917.342 528.906 921.39 530.293 925.328 532.032C927.99 533.22 930.608 534.563 933.16 536.082C938.198 534.717 943.28 533.55 948.362 532.516C942.84 528.201 936.768 524.679 930.256 521.862Z" fill="url(#paint22_linear_323_1681)"/>
<path d="M885.684 523.028C882.164 522.654 878.6 522.324 875.058 521.972C872.726 523.909 870.196 525.67 867.534 527.211C865.84 528.201 864.102 529.104 862.32 529.918C858.8 531.547 855.126 532.824 851.364 533.749C851.012 533.837 850.66 533.903 850.33 533.991C849.692 534.145 849.076 534.277 848.438 534.387C843.994 535.245 839.484 535.598 835.084 535.377C833.148 535.289 831.234 535.069 829.342 534.805C824.392 534.079 819.618 532.758 815.152 530.887C812.534 534.035 810.158 537.535 808.75 541.145C820.41 546.274 833.434 548.343 846.084 547C846.172 546.824 846.282 546.67 846.392 546.494C846.656 546.604 846.898 546.758 847.162 546.868C851.386 546.34 855.566 545.481 859.636 544.182C859.68 544.182 859.746 544.16 859.79 544.138C862.65 543.214 865.466 542.047 868.172 540.726C868.986 540.33 869.778 539.912 870.592 539.494C878.05 535.443 884.738 529.962 890.04 523.491C888.588 523.315 887.136 523.16 885.684 523.006V523.028Z" fill="url(#paint23_linear_323_1681)"/>
<path d="M920.642 496.283C918.618 494.984 916.418 493.95 914.13 493.113C910.522 491.793 906.628 490.978 902.668 490.428C902.624 494.566 902.052 498.616 900.996 502.535C904.604 502.909 908.52 503.481 911.842 504.978C913.206 505.594 914.482 506.343 915.582 507.311C919.432 510.679 920.4 514.311 919.564 517.921C923.216 519.066 926.802 520.387 930.256 521.884C932.676 512.308 929.728 502.094 920.642 496.305V496.283Z" fill="url(#paint24_linear_323_1681)"/>
<path d="M895.628 512.638C896.09 512.704 896.552 512.77 897.014 512.836C898.686 509.535 900.028 506.101 900.974 502.535C900.688 502.513 900.38 502.469 900.116 502.447C899.016 506.057 897.542 509.491 895.628 512.638Z" fill="#1067E5"/>
<path d="M900.116 502.447C900.402 502.469 900.688 502.513 900.974 502.535C902.03 498.616 902.602 494.566 902.646 490.428C902.558 490.428 902.47 490.406 902.382 490.384C902.03 494.412 901.304 498.506 900.116 502.425V502.447Z" fill="#1067E5"/>
<path d="M976.324 418.403C952.74 427.912 929.728 438.764 907.486 451.047C903.988 452.984 900.49 454.943 897.036 456.947C895.342 457.937 893.626 458.928 891.932 459.918C894.484 462.868 896.618 466.258 898.356 470.022C899.17 469.538 899.962 469.054 900.776 468.591C904.34 466.522 907.904 464.475 911.49 462.472C933.468 450.233 956.172 439.337 979.492 429.937C986.532 427.098 983.452 415.519 976.324 418.403Z" fill="url(#paint25_linear_323_1681)"/>
<path d="M940.816 359.387C922.996 380.585 904.912 401.607 887.07 422.827C884.474 425.909 881.878 428.969 879.304 432.05C875.388 436.739 871.538 441.472 867.666 446.182C864.652 449.837 861.616 453.491 858.646 457.189C857.92 458.091 857.172 458.972 856.446 459.874C851.848 465.598 847.382 471.695 843.884 478.211C846.238 480.94 848.394 483.824 850.396 486.84C850.528 487.016 850.638 487.192 850.77 487.39C851.122 487.94 851.518 488.469 851.848 489.019C852.068 488.491 852.288 487.962 852.508 487.434C852.97 486.377 853.454 485.343 854.004 484.33C858.536 475.569 865.356 467.667 871.45 460.425C871.714 460.094 872 459.764 872.264 459.456C874.794 456.44 877.324 453.425 879.854 450.409C882.494 447.261 885.134 444.135 887.774 440.987C890.414 437.862 893.032 434.714 895.672 431.588C900.732 425.579 905.792 419.569 910.83 413.56C923.634 398.327 936.46 383.072 949.264 367.84C954.192 361.984 945.766 353.487 940.816 359.387Z" fill="url(#paint26_linear_323_1681)"/>
<path d="M859.79 506.717C859.042 504.23 858.162 501.874 857.216 499.541C856.842 498.66 856.424 497.802 856.028 496.943C854.752 494.214 853.388 491.55 851.848 489.019C851.496 488.469 851.122 487.94 850.77 487.39C850.66 487.214 850.528 487.038 850.396 486.84C848.394 483.824 846.238 480.94 843.884 478.211C840.782 474.623 837.372 471.277 833.764 468.107C830.816 465.509 827.736 463.044 824.546 460.711C817.55 455.582 810.048 450.981 802.458 446.711C798.938 444.73 795.396 442.814 791.876 440.965C789.896 439.931 787.916 438.896 785.958 437.884C783.076 436.387 779.512 437.135 777.774 440.019C768.71 455.097 765.784 473.258 768.864 490.318C772.802 489.899 776.762 489.525 780.7 489.173C780.348 487.456 780.084 485.717 779.886 483.934C778.61 472.553 780.546 461.239 785.43 451.025C783.582 450.057 781.734 449.11 779.93 448.164C782.658 447.459 785.386 446.733 788.114 446.028C787.146 447.657 786.266 449.33 785.452 451.025C786.464 451.553 787.476 452.082 788.51 452.61C792.294 454.591 796.122 456.66 799.906 458.796C806.088 462.296 812.182 466.038 817.88 470.22C821.048 472.531 824.084 474.997 826.966 477.616C830.2 480.544 833.236 483.67 835.986 487.06C836.954 488.248 837.856 489.459 838.758 490.692C839.462 491.682 840.144 492.717 840.804 493.752C841.134 494.28 841.486 494.764 841.816 495.292C842.564 496.525 843.246 497.824 843.928 499.167C844.698 500.73 845.402 502.381 846.084 504.053C846.326 504.67 846.568 505.286 846.788 505.903C847.536 506.079 848.306 506.255 849.076 506.409C852.772 507.201 856.512 507.862 860.252 508.412C860.098 507.818 859.966 507.223 859.79 506.651V506.717Z" fill="#1067E5"/>
<path d="M846.788 505.969C846.568 505.352 846.326 504.736 846.084 504.12C845.424 502.425 844.698 500.774 843.928 499.233C843.246 497.89 842.564 496.569 841.816 495.359C841.486 494.83 841.134 494.324 840.804 493.818C840.144 492.783 839.462 491.749 838.758 490.758C838.252 492.541 837.834 494.368 837.548 496.217C837.394 497.164 837.262 498.132 837.174 499.101C837.042 500.465 836.998 501.852 836.998 503.261C839.418 504.076 841.882 504.824 844.39 505.462C845.182 505.66 845.996 505.837 846.81 506.035L846.788 505.969ZM862.496 525.846C859.174 524.481 856.292 522.302 854.026 519.44C852.684 519.22 851.364 519 850.044 518.736C846.282 518.032 842.564 517.173 838.89 516.094C841.024 522.83 844.918 528.862 850.44 533.11C850.726 533.33 851.056 533.528 851.364 533.748C855.104 532.824 858.8 531.525 862.32 529.918C864.102 529.104 865.84 528.201 867.534 527.211C865.774 526.947 864.08 526.484 862.474 525.824L862.496 525.846Z" fill="url(#paint27_linear_323_1681)"/>
<path d="M895.628 512.638C893.934 512.396 892.24 512.154 890.546 511.956C888.61 511.714 886.608 511.516 884.584 511.296C876.796 510.481 868.502 509.689 860.23 508.478C856.49 507.928 852.75 507.267 849.054 506.475C848.284 506.321 847.536 506.145 846.766 505.969C845.952 505.77 845.138 505.594 844.346 505.396C841.838 504.758 839.374 504.009 836.954 503.195C834.952 502.535 832.994 501.786 831.08 500.972C829.672 500.377 828.264 499.739 826.9 499.057C825.866 498.55 824.854 498.022 823.842 497.472C819.706 495.116 815.878 492.277 812.446 488.887C811.962 488.403 811.456 487.94 810.994 487.434C809.388 485.717 807.826 483.89 806.418 481.887C801.556 474.887 799.466 466.852 799.884 458.862C796.1 456.726 792.272 454.679 788.488 452.676C786.244 466.214 789.742 478.167 796.738 488.072C799.686 492.255 803.25 496.063 807.254 499.475C809.124 501.06 811.082 502.557 813.106 503.965C815.636 505.726 818.254 507.333 820.982 508.808C823.336 510.085 825.778 511.252 828.242 512.308C829.826 512.991 831.432 513.629 833.06 514.201C833.192 514.245 833.324 514.311 833.456 514.355C835.238 514.994 837.042 515.566 838.868 516.094C842.52 517.151 846.238 518.009 850.022 518.736C851.342 518.978 852.684 519.22 854.004 519.44C856.754 519.881 859.504 520.277 862.276 520.607C866.5 521.135 870.768 521.554 875.036 521.972C878.578 522.324 882.12 522.654 885.662 523.028C887.114 523.182 888.566 523.337 890.018 523.513C892.724 520.189 895.078 516.623 896.992 512.837C896.53 512.77 896.068 512.704 895.606 512.638H895.628Z" fill="url(#paint28_linear_323_1681)"/>
<path d="M938.33 356.283L928.122 370.481C928.122 370.481 925.878 379.947 941.564 381.686L956.744 366.739L938.33 356.283Z" fill="#4A4F4F"/>
<path d="M953.466 312.368L982.902 341.843L996.85 342.327L968.47 314.437L953.466 312.368Z" fill="#4A4F4F"/>
<path d="M982.902 341.843L964.906 366.189L949.264 369.931L972.694 369.733L996.85 342.327L982.902 341.843Z" fill="#3B3F3F"/>
<path d="M953.466 312.368L982.902 341.843L964.906 366.189L949.264 369.931L937.032 357.582L937.098 343.34L953.466 312.368Z" fill="#5A5E5E"/>
<path d="M931.598 367.642L929.64 370.283C929.64 370.283 929.244 378.758 940.992 380.079L943.082 377.767C933.072 376.16 931.752 369.667 931.598 367.642ZM935.074 363.283L933.116 365.925C933.116 365.925 932.72 374.399 944.468 375.72L946.558 373.409C936.548 371.802 935.228 365.308 935.074 363.283ZM938.44 358.792L936.328 361.544C936.328 361.544 935.91 370.371 948.516 371.758L950.76 369.359C940.002 367.686 938.594 360.906 938.418 358.792H938.44Z" fill="#5A5E5E"/>
<path d="M956.326 315.23L953.466 312.368L937.098 343.318L937.032 357.582L949.264 369.909L957.888 367.862C944.754 351.264 950.056 329.714 956.326 315.23Z" fill="#676868"/>
<path d="M949.264 369.931L964.906 366.189L981.846 341.909L953.466 312.368L983.518 340.962L996.85 342.327L983.716 342.085L965.786 367.113L949.264 369.931Z" fill="#676868"/>
<path d="M1000.68 316.814C1000.41 316.616 1000.11 316.528 999.754 316.528C1000.46 317.519 1000.13 319.456 998.808 321.195C997.686 322.692 996.212 323.572 995.09 323.528C995.178 323.638 995.2 323.814 995.332 323.903C996.41 324.717 998.5 323.814 999.996 321.855C1001.47 319.896 1001.8 317.629 1000.72 316.814H1000.68Z" fill="#BABABA"/>
<path d="M1003.32 309.572L1000.04 310.981L981.098 335.921L989.678 336.67L1008.25 314.349L1008.33 312.192L1003.3 309.572H1003.32ZM999.952 321.855C998.478 323.814 996.388 324.739 995.288 323.903C994.21 323.088 994.518 320.821 996.014 318.862C997.488 316.903 999.578 315.978 1000.68 316.814C1001.76 317.629 1001.45 319.896 999.952 321.855Z" fill="#A4A5A5"/>
<path d="M1000.06 310.981L1003.32 309.572L1008.36 312.192L1001.91 308.736L998.654 310.145L979.844 334.557L981.098 335.921L1000.06 310.981Z" fill="#BABABA"/>
<path d="M984.992 301.318C984.728 301.119 984.42 301.031 984.068 301.031C984.772 302.022 984.442 303.959 983.122 305.698C982 307.195 980.526 308.075 979.404 308.031C979.492 308.141 979.514 308.318 979.646 308.406C980.724 309.22 982.814 308.318 984.31 306.358C985.784 304.399 986.114 302.132 985.036 301.318H984.992Z" fill="#BABABA"/>
<path d="M987.632 294.076L984.354 295.484L965.412 320.425L973.992 321.173L992.56 298.852L992.648 296.695L987.61 294.076H987.632ZM984.266 306.359C982.792 308.318 980.702 309.242 979.602 308.406C978.524 307.591 978.832 305.324 980.328 303.365C981.802 301.406 983.892 300.481 984.992 301.318C986.07 302.132 985.762 304.399 984.266 306.359Z" fill="#A4A5A5"/>
<path d="M984.376 295.462L987.632 294.075L992.67 296.695L986.224 293.239L982.968 294.626L964.18 319.038L965.412 320.403L984.376 295.462Z" fill="#BABABA"/>
<path d="M978.018 412.195L962.794 420.78C962.794 420.78 956.788 428.418 970.274 436.607L990.338 429.453L978.04 412.195H978.018Z" fill="#4A4F4F"/>
<path d="M1010.2 378.758L1024.5 417.874L1036.93 424.214L1022.94 386.947L1010.2 378.758Z" fill="#4A4F4F"/>
<path d="M1024.5 417.874L997.928 432.381L982.176 429.189L1003.52 438.874L1036.93 424.214L1024.5 417.874Z" fill="#3B3F3F"/>
<path d="M1010.2 378.758L1024.5 417.874L997.928 432.381L982.176 429.189L976.28 412.833L982.33 399.934L1010.2 378.758Z" fill="#5A5E5E"/>
<path d="M967.106 419.657L964.224 421.22C964.224 421.22 960.308 428.748 970.406 434.89L973.288 433.679C964.884 428.022 966.424 421.55 967.128 419.657H967.106ZM972.1 417.17L969.218 418.733C969.218 418.733 965.302 426.261 975.4 432.403L978.282 431.192C969.878 425.535 971.418 419.063 972.122 417.17H972.1ZM977.05 414.506L973.992 416.113C973.992 416.113 969.9 423.95 980.746 430.509L983.804 429.277C974.762 423.245 976.324 416.487 977.05 414.506Z" fill="#5A5E5E"/>
<path d="M1011.59 382.544L1010.2 378.758L982.33 399.934L976.28 412.833L982.198 429.167L990.866 430.928C985.96 410.346 999.82 393.022 1011.59 382.522V382.544Z" fill="#676868"/>
<path d="M982.176 429.189L997.928 432.381L1023.51 417.478L1010.2 378.758L1025.45 417.346L1036.93 424.214L1025.14 418.447L998.346 433.591L982.176 429.189Z" fill="#676868"/>
<path d="M1051.15 402.664C1050.99 402.377 1050.73 402.157 1050.42 402.003C1050.64 403.192 1049.52 404.821 1047.58 405.833C1045.93 406.714 1044.22 406.89 1043.23 406.384C1043.25 406.516 1043.23 406.692 1043.29 406.824C1043.93 408.035 1046.22 408.079 1048.37 406.912C1050.55 405.767 1051.78 403.852 1051.15 402.642V402.664Z" fill="#BABABA"/>
<path d="M1056.6 397.226L1053.04 397.116L1025.34 411.755L1032.82 416.047L1059.07 403.632L1060.06 401.717L1056.58 397.226H1056.6ZM1048.37 406.956C1046.2 408.101 1043.93 408.057 1043.29 406.868C1042.65 405.657 1043.89 403.742 1046.06 402.597C1048.24 401.453 1050.51 401.497 1051.15 402.686C1051.78 403.896 1050.55 405.811 1048.37 406.956Z" fill="#A4A5A5"/>
<path d="M1053.06 397.116L1056.6 397.226L1060.08 401.717L1055.68 395.862L1052.14 395.752L1024.81 409.972L1025.36 411.755L1053.06 397.116Z" fill="#BABABA"/>
<path d="M1043.45 381.994C1043.29 381.708 1043.03 381.487 1042.72 381.333C1042.94 382.522 1041.82 384.151 1039.88 385.164C1038.23 386.044 1036.52 386.22 1035.53 385.714C1035.55 385.846 1035.53 386.022 1035.59 386.154C1036.23 387.365 1038.52 387.409 1040.67 386.242C1042.85 385.098 1044.08 383.182 1043.45 381.972V381.994Z" fill="#BABABA"/>
<path d="M1048.9 376.557L1045.34 376.447L1017.64 391.085L1025.12 395.377L1051.37 382.962L1052.36 381.047L1048.88 376.557H1048.9ZM1040.67 386.286C1038.5 387.431 1036.23 387.387 1035.59 386.198C1034.95 384.987 1036.19 383.072 1038.36 381.928C1040.54 380.783 1042.81 380.827 1043.45 382.016C1044.08 383.226 1042.85 385.142 1040.67 386.286Z" fill="#A4A5A5"/>
<path d="M1045.36 376.447L1048.9 376.557L1052.38 381.047L1047.98 375.192L1044.44 375.082L1017.11 389.302L1017.66 391.085L1045.36 376.447Z" fill="#BABABA"/>
<path d="M753.86 306.204L804.658 376.447L789.72 289.761L753.86 306.204ZM854.07 305.038L858.888 377.415L886.784 309.33L854.07 305.038ZM696 414.066L768.468 411.997L701.522 381.509L696 414.066Z" fill="white"/>
<path d="M844.5 221.2V203.05L845.16 168.07C837.24 169.39 826.02 170.05 811.5 170.05C796.76 170.05 786.86 167.63 781.8 162.79C776.52 157.73 773.88 147.28 773.88 131.44C773.88 116.26 775.09 98.44 777.51 77.98C779.93 58.4 782.57 44.21 785.43 35.41C788.51 26.17 794.45 21.55 803.25 21.55C808.97 21.55 812.38 24.08 813.48 29.14C813.48 29.58 813.48 31.34 813.48 34.42C813.7 37.28 813.04 41.68 811.5 47.62C806.22 86.12 803.58 113.73 803.58 130.45C803.58 135.29 803.69 138.59 803.91 140.35C809.19 141.23 814.25 141.67 819.09 141.67C825.91 141.67 834.71 141.01 845.49 139.69C845.93 135.73 846.15 127.26 846.15 114.28C846.37 111.2 846.48 106.91 846.48 101.41C846.7 95.69 847.58 91.84 849.12 89.86C850.66 87.88 854.29 86.89 860.01 86.89C865.95 86.89 869.8 87.88 871.56 89.86C873.54 91.84 874.53 95.03 874.53 99.43L873.54 123.52C872.88 135.62 872.55 169.94 872.55 226.48C872.55 236.38 867.71 241.33 858.03 241.33H856.71C848.57 241.33 844.5 234.62 844.5 221.2ZM964.62 241.33C918.86 241.33 895.98 206.46 895.98 136.72C895.98 107.24 901.26 81.28 911.82 58.84C917.1 47.18 924.25 38.16 933.27 31.78C942.51 25.18 952.85 21.88 964.29 21.88C981.23 21.88 995.2 33.1 1006.2 55.54C1017.2 77.98 1022.7 104.49 1022.7 135.07C1022.7 165.87 1017.64 191.28 1007.52 211.3C997.4 231.32 983.1 241.33 964.62 241.33ZM934.92 188.53C942.62 203.49 951.42 210.97 961.32 210.97C969.24 210.97 975.84 206.9 981.12 198.76C986.62 190.84 990.36 181.6 992.34 171.04C994.32 159.6 995.31 147.72 995.31 135.4C995.31 115.38 993.11 96.46 988.71 78.64C986.51 68.3 983.1 60.16 978.48 54.22C974.08 48.28 968.69 45.31 962.31 45.31C953.95 45.31 946.58 50.48 940.2 60.82C929.2 79.74 923.7 104.6 923.7 135.4C923.7 155.86 927.44 173.57 934.92 188.53ZM1116.17 221.2V203.05L1116.83 168.07C1108.91 169.39 1097.69 170.05 1083.17 170.05C1068.43 170.05 1058.53 167.63 1053.47 162.79C1048.19 157.73 1045.55 147.28 1045.55 131.44C1045.55 116.26 1046.76 98.44 1049.18 77.98C1051.6 58.4 1054.24 44.21 1057.1 35.41C1060.18 26.17 1066.12 21.55 1074.92 21.55C1080.64 21.55 1084.05 24.08 1085.15 29.14C1085.15 29.58 1085.15 31.34 1085.15 34.42C1085.37 37.28 1084.71 41.68 1083.17 47.62C1077.89 86.12 1075.25 113.73 1075.25 130.45C1075.25 135.29 1075.36 138.59 1075.58 140.35C1080.86 141.23 1085.92 141.67 1090.76 141.67C1097.58 141.67 1106.38 141.01 1117.16 139.69C1117.6 135.73 1117.82 127.26 1117.82 114.28C1118.04 111.2 1118.15 106.91 1118.15 101.41C1118.37 95.69 1119.25 91.84 1120.79 89.86C1122.33 87.88 1125.96 86.89 1131.68 86.89C1137.62 86.89 1141.47 87.88 1143.23 89.86C1145.21 91.84 1146.2 95.03 1146.2 99.43L1145.21 123.52C1144.55 135.62 1144.22 169.94 1144.22 226.48C1144.22 236.38 1139.38 241.33 1129.7 241.33H1128.38C1120.24 241.33 1116.17 234.62 1116.17 221.2Z" fill="black"/>
<path d="M1178.66 170.808V164.088L1178.28 149.976C1177.38 149.464 1176.94 148.6 1176.94 147.384C1176.94 146.36 1177.29 145.4 1177.99 144.504C1177.74 138.808 1177.61 132.056 1177.61 124.248C1177.99 122.712 1178.57 121.592 1179.34 120.888C1180.17 120.184 1181.35 119.736 1182.89 119.544C1191.34 119.928 1200.49 120.12 1210.34 120.12C1212.78 120.632 1213.99 121.688 1213.99 123.288C1213.99 125.976 1211.37 127.544 1206.12 127.992C1205.16 128.056 1203.62 128.088 1201.51 128.088H1195.27C1194.38 128.088 1191.02 127.832 1185.19 127.32C1185.19 135.704 1185.32 141.208 1185.58 143.832C1187.82 143.896 1194.34 143.928 1205.16 143.928C1207.46 144.376 1208.62 145.432 1208.62 147.096C1208.62 148.696 1207.69 149.944 1205.83 150.84C1205.45 151.032 1205.1 151.16 1204.78 151.224L1188.17 150.936C1187.4 150.936 1186.57 151 1185.67 151.128L1186.06 167.64C1186.06 171.288 1185.96 173.944 1185.77 175.608L1208.04 175.32C1210.09 175.64 1211.11 176.504 1211.11 177.912C1211.11 178.872 1210.66 179.832 1209.77 180.792C1208.94 181.752 1207.94 182.36 1206.79 182.616L1182.22 183C1180.74 183 1179.72 182.744 1179.14 182.232C1178.57 181.656 1178.28 180.728 1178.28 179.448C1178.54 177.848 1178.66 174.968 1178.66 170.808ZM1226.12 167.928C1226.19 169.784 1226.32 173.592 1226.51 179.352V179.448C1226.51 180.408 1226.06 181.24 1225.16 181.944C1224.27 182.648 1223.28 183 1222.19 183C1220.78 183 1220.08 182.36 1220.08 181.08C1219.82 178.456 1219.69 166.52 1219.69 145.272C1219.69 143.224 1220.91 141.624 1223.34 140.472C1225.77 139.32 1229.07 138.744 1233.23 138.744C1237.32 138.744 1240.94 139.768 1244.08 141.816C1247.21 143.8 1248.78 146.264 1248.78 149.208C1248.78 150.552 1248.17 152.088 1246.96 153.816C1245.8 155.544 1244.49 156.952 1243.02 158.04C1241.74 158.936 1239.79 160.12 1237.16 161.592C1234.54 163.064 1232.97 163.832 1232.46 163.896C1236.36 166.392 1239.95 169.176 1243.21 172.248C1246.35 175.32 1247.92 177.848 1247.92 179.832C1247.92 181.24 1247.15 182.2 1245.61 182.712C1245.04 182.904 1244.62 183 1244.36 183C1243.4 183 1242.35 182.296 1241.2 180.888C1240.36 179.8 1238.32 177.816 1235.05 174.936C1231.72 172.056 1228.75 169.72 1226.12 167.928ZM1226.22 146.136C1226.16 148.184 1226.12 152.6 1226.12 159.384C1228.17 159.384 1231.34 158.36 1235.63 156.312C1239.85 154.2 1242.06 152.248 1242.25 150.456C1242.25 148.856 1241.32 147.608 1239.47 146.712C1237.68 145.752 1235.63 145.272 1233.32 145.272C1230.89 145.272 1228.52 145.56 1226.22 146.136ZM1264.56 167.928C1264.63 169.784 1264.75 173.592 1264.95 179.352V179.448C1264.95 180.408 1264.5 181.24 1263.6 181.944C1262.71 182.648 1261.71 183 1260.63 183C1259.22 183 1258.51 182.36 1258.51 181.08C1258.26 178.456 1258.13 166.52 1258.13 145.272C1258.13 143.224 1259.35 141.624 1261.78 140.472C1264.21 139.32 1267.51 138.744 1271.67 138.744C1275.76 138.744 1279.38 139.768 1282.51 141.816C1285.65 143.8 1287.22 146.264 1287.22 149.208C1287.22 150.552 1286.61 152.088 1285.39 153.816C1284.24 155.544 1282.93 156.952 1281.46 158.04C1280.18 158.936 1278.23 160.12 1275.6 161.592C1272.98 163.064 1271.41 163.832 1270.9 163.896C1274.8 166.392 1278.39 169.176 1281.65 172.248C1284.79 175.32 1286.35 177.848 1286.35 179.832C1286.35 181.24 1285.59 182.2 1284.05 182.712C1283.47 182.904 1283.06 183 1282.8 183C1281.84 183 1280.79 182.296 1279.63 180.888C1278.8 179.8 1276.75 177.816 1273.49 174.936C1270.16 172.056 1267.19 169.72 1264.56 167.928ZM1264.66 146.136C1264.59 148.184 1264.56 152.6 1264.56 159.384C1266.61 159.384 1269.78 158.36 1274.07 156.312C1278.29 154.2 1280.5 152.248 1280.69 150.456C1280.69 148.856 1279.76 147.608 1277.91 146.712C1276.11 145.752 1274.07 145.272 1271.76 145.272C1269.33 145.272 1266.96 145.56 1264.66 146.136ZM1300.79 144.216C1304.25 140.824 1309.02 139.128 1315.1 139.128C1319.9 139.128 1323.74 140.984 1326.62 144.696C1329.5 148.344 1330.94 153.304 1330.94 159.576C1330.94 165.848 1329.34 171.32 1326.14 175.992C1323 180.6 1318.94 182.904 1313.94 182.904C1308.57 182.904 1304.18 180.6 1300.79 175.992C1297.4 171.32 1295.7 165.688 1295.7 159.096C1295.7 152.568 1297.4 147.608 1300.79 144.216ZM1305.59 170.52C1307.83 174.104 1310.84 175.896 1314.62 175.896C1316.79 175.896 1318.65 174.968 1320.18 173.112C1322.74 169.976 1324.02 165.816 1324.02 160.632C1324.02 155.384 1323.26 151.608 1321.72 149.304C1320.25 146.936 1317.69 145.752 1314.04 145.752C1310.33 145.752 1307.45 146.904 1305.4 149.208C1303.35 151.448 1302.33 154.68 1302.33 158.904C1302.33 163.128 1303.42 167 1305.59 170.52ZM1346.22 167.928C1346.28 169.784 1346.41 173.592 1346.6 179.352V179.448C1346.6 180.408 1346.15 181.24 1345.26 181.944C1344.36 182.648 1343.37 183 1342.28 183C1340.87 183 1340.17 182.36 1340.17 181.08C1339.91 178.456 1339.79 166.52 1339.79 145.272C1339.79 143.224 1341 141.624 1343.43 140.472C1345.87 139.32 1349.16 138.744 1353.32 138.744C1357.42 138.744 1361.03 139.768 1364.17 141.816C1367.31 143.8 1368.87 146.264 1368.87 149.208C1368.87 150.552 1368.27 152.088 1367.05 153.816C1365.9 155.544 1364.59 156.952 1363.11 158.04C1361.83 158.936 1359.88 160.12 1357.26 161.592C1354.63 163.064 1353.07 163.832 1352.55 163.896C1356.46 166.392 1360.04 169.176 1363.31 172.248C1366.44 175.32 1368.01 177.848 1368.01 179.832C1368.01 181.24 1367.24 182.2 1365.71 182.712C1365.13 182.904 1364.71 183 1364.46 183C1363.5 183 1362.44 182.296 1361.29 180.888C1360.46 179.8 1358.41 177.816 1355.15 174.936C1351.82 172.056 1348.84 169.72 1346.22 167.928ZM1346.31 146.136C1346.25 148.184 1346.22 152.6 1346.22 159.384C1348.27 159.384 1351.43 158.36 1355.72 156.312C1359.95 154.2 1362.15 152.248 1362.35 150.456C1362.35 148.856 1361.42 147.608 1359.56 146.712C1357.77 145.752 1355.72 145.272 1353.42 145.272C1350.99 145.272 1348.62 145.56 1346.31 146.136Z" fill="black"/>
<defs>
<linearGradient id="paint0_linear_323_1681" x1="1105.29" y1="332.862" x2="1205.4" y2="305.243" gradientUnits="userSpaceOnUse">
<stop offset="0.11" stop-color="#FFE3BB"/>
<stop offset="1" stop-color="#E89C5F"/>
</linearGradient>
<linearGradient id="paint1_linear_323_1681" x1="1146.47" y1="390.248" x2="1102.13" y2="322.517" gradientUnits="userSpaceOnUse">
<stop offset="0.01" stop-color="#C52424"/>
<stop offset="0.31" stop-color="#FF0000"/>
</linearGradient>
<linearGradient id="paint2_linear_323_1681" x1="1074.49" y1="479.399" x2="1227.89" y2="479.399" gradientUnits="userSpaceOnUse">
<stop offset="0.1" stop-color="#0F5CCF"/>
<stop offset="0.7" stop-color="#1067E5"/>
</linearGradient>
<linearGradient id="paint3_linear_323_1681" x1="1244.61" y1="420.031" x2="1032.48" y2="463.832" gradientUnits="userSpaceOnUse">
<stop offset="0.01" stop-color="#7A2B2B"/>
<stop offset="0.31" stop-color="#FF0000"/>
</linearGradient>
<linearGradient id="paint4_linear_323_1681" x1="1065.56" y1="584.245" x2="1132.28" y2="584.245" gradientUnits="userSpaceOnUse">
<stop offset="0.1" stop-color="#0F5CCF"/>
<stop offset="0.7" stop-color="#1067E5"/>
</linearGradient>
<linearGradient id="paint5_linear_323_1681" x1="1144.95" y1="585.258" x2="1211.68" y2="585.258" gradientUnits="userSpaceOnUse">
<stop offset="0.1" stop-color="#0F5CCF"/>
<stop offset="0.7" stop-color="#1067E5"/>
</linearGradient>
<linearGradient id="paint6_linear_323_1681" x1="1218.26" y1="336.384" x2="1260.86" y2="260.923" gradientUnits="userSpaceOnUse">
<stop offset="0.11" stop-color="#FFE3BB"/>
<stop offset="1" stop-color="#E89C5F"/>
</linearGradient>
<linearGradient id="paint7_linear_323_1681" x1="1335.03" y1="326.104" x2="1268.15" y2="376.146" gradientUnits="userSpaceOnUse">
<stop offset="0.11" stop-color="#FFE3BB"/>
<stop offset="1" stop-color="#E89C5F"/>
</linearGradient>
<linearGradient id="paint8_linear_323_1681" x1="1193.42" y1="260.748" x2="1128.14" y2="309.58" gradientUnits="userSpaceOnUse">
<stop offset="0.11" stop-color="#FFE3BB"/>
<stop offset="1" stop-color="#E89C5F"/>
</linearGradient>
<linearGradient id="paint9_linear_323_1681" x1="1209.88" y1="473.016" x2="1197.17" y2="402.028" gradientUnits="userSpaceOnUse">
<stop offset="0.11" stop-color="#FFE3BB"/>
<stop offset="1" stop-color="#E89C5F"/>
</linearGradient>
<linearGradient id="paint10_linear_323_1681" x1="1266.86" y1="327.689" x2="1294.22" y2="327.689" gradientUnits="userSpaceOnUse">
<stop offset="0.1" stop-color="#0F5CCF"/>
<stop offset="0.7" stop-color="#1067E5"/>
</linearGradient>
<linearGradient id="paint11_linear_323_1681" x1="824.546" y1="456.77" x2="867.666" y2="456.77" gradientUnits="userSpaceOnUse">
<stop offset="0.1" stop-color="#0F5CCF"/>
<stop offset="0.7" stop-color="#1067E5"/>
</linearGradient>
<linearGradient id="paint12_linear_323_1681" x1="823.556" y1="473.764" x2="819.813" y2="480.85" gradientUnits="userSpaceOnUse">
<stop offset="0.1" stop-color="#0F5CCF"/>
<stop offset="0.7" stop-color="#1067E5"/>
</linearGradient>
<linearGradient id="paint13_linear_323_1681" x1="851.848" y1="481.535" x2="888.016" y2="481.535" gradientUnits="userSpaceOnUse">
<stop offset="0.1" stop-color="#0F5CCF"/>
<stop offset="0.7" stop-color="#1067E5"/>
</linearGradient>
<linearGradient id="paint14_linear_323_1681" x1="895.188" y1="495.403" x2="867.798" y2="494.413" gradientUnits="userSpaceOnUse">
<stop offset="0.1" stop-color="#0F5CCF"/>
<stop offset="0.7" stop-color="#1067E5"/>
</linearGradient>
<linearGradient id="paint15_linear_323_1681" x1="813.128" y1="519.727" x2="848.438" y2="519.727" gradientUnits="userSpaceOnUse">
<stop offset="0.1" stop-color="#0F5CCF"/>
<stop offset="0.7" stop-color="#1067E5"/>
</linearGradient>
<linearGradient id="paint16_linear_323_1681" x1="812.468" y1="493.069" x2="838.758" y2="493.069" gradientUnits="userSpaceOnUse">
<stop offset="0.1" stop-color="#0F5CCF"/>
<stop offset="0.7" stop-color="#1067E5"/>
</linearGradient>
<linearGradient id="paint17_linear_323_1681" x1="771.9" y1="518.186" x2="804.702" y2="518.186" gradientUnits="userSpaceOnUse">
<stop offset="0.1" stop-color="#0F5CCF"/>
<stop offset="0.7" stop-color="#1067E5"/>
</linearGradient>
<linearGradient id="paint18_linear_323_1681" x1="847.162" y1="540.462" x2="925.328" y2="540.462" gradientUnits="userSpaceOnUse">
<stop offset="0.1" stop-color="#0F5CCF"/>
<stop offset="0.7" stop-color="#1067E5"/>
</linearGradient>
<linearGradient id="paint19_linear_323_1681" x1="841.53" y1="456.991" x2="837.543" y2="408.409" gradientUnits="userSpaceOnUse">
<stop stop-color="#BD1616"/>
<stop offset="1" stop-color="#FF3838"/>
</linearGradient>
<linearGradient id="paint20_linear_323_1681" x1="1212.03" y1="496.745" x2="1207.06" y2="505.702" gradientUnits="userSpaceOnUse">
<stop stop-color="#BD1616"/>
<stop offset="1" stop-color="#FF3838"/>
</linearGradient>
<linearGradient id="paint21_linear_323_1681" x1="887.774" y1="444.267" x2="907.464" y2="444.267" gradientUnits="userSpaceOnUse">
<stop stop-color="#BD1616"/>
<stop offset="1" stop-color="#FF3838"/>
</linearGradient>
<linearGradient id="paint22_linear_323_1681" x1="927.924" y1="543.808" x2="922.683" y2="534.345" gradientUnits="userSpaceOnUse">
<stop stop-color="#BD1616"/>
<stop offset="1" stop-color="#FF3838"/>
</linearGradient>
<linearGradient id="paint23_linear_323_1681" x1="808.75" y1="534.717" x2="890.04" y2="534.717" gradientUnits="userSpaceOnUse">
<stop offset="0.1" stop-color="#0F5CCF"/>
<stop offset="0.7" stop-color="#1067E5"/>
</linearGradient>
<linearGradient id="paint24_linear_323_1681" x1="900.974" y1="506.145" x2="931.048" y2="506.145" gradientUnits="userSpaceOnUse">
<stop offset="0.1" stop-color="#0F5CCF"/>
<stop offset="0.7" stop-color="#1067E5"/>
</linearGradient>
<linearGradient id="paint25_linear_323_1681" x1="891.91" y1="443.981" x2="983.474" y2="443.981" gradientUnits="userSpaceOnUse">
<stop offset="0.1" stop-color="#0F5CCF"/>
<stop offset="0.7" stop-color="#1067E5"/>
</linearGradient>
<linearGradient id="paint26_linear_323_1681" x1="851.716" y1="488.006" x2="864.794" y2="468.972" gradientUnits="userSpaceOnUse">
<stop stop-color="#BD1616"/>
<stop offset="1" stop-color="#FF3838"/>
</linearGradient>
<linearGradient id="paint27_linear_323_1681" x1="836.976" y1="512.242" x2="867.534" y2="512.242" gradientUnits="userSpaceOnUse">
<stop stop-color="#BD1616"/>
<stop offset="1" stop-color="#FF3838"/>
</linearGradient>
<linearGradient id="paint28_linear_323_1681" x1="845.446" y1="465.84" x2="843.706" y2="476.802" gradientUnits="userSpaceOnUse">
<stop stop-color="#BD1616"/>
<stop offset="1" stop-color="#FF3838"/>
</linearGradient>
</defs>
</svg>
