<svg width="715" height="538" viewBox="0 0 715 538" fill="none" xmlns="http://www.w3.org/2000/svg">
<g filter="url(#filter0_f_305_2280)">
<path d="M379.312 145.164C379.312 145.164 455.392 173.905 461.263 214.645C467.133 255.384 449.452 290.063 472.446 314.857C495.443 339.65 526.948 438.472 404.384 464.637C326.258 481.316 288.792 431.833 260.601 384.535C244.38 357.323 186.053 354.031 160.612 310.551C110.36 224.66 248.806 119.115 379.312 145.166L379.312 145.164Z" fill="#BAF5F3"/>
</g>
<path d="M46.6692 84.6631C43.914 84.6631 43.914 88.9362 46.6692 88.9362C49.4245 88.9362 49.4245 84.6631 46.6692 84.6631Z" fill="white"/>
<path d="M204.718 132.933C201.963 132.933 201.963 137.206 204.718 137.206C207.473 137.206 207.473 132.933 204.718 132.933Z" fill="white"/>
<path d="M398.646 54.7646C395.894 54.7646 395.894 59.0351 398.646 59.0351C401.399 59.0351 401.404 54.7646 398.646 54.7646Z" fill="white"/>
<path d="M445.632 199.571C442.879 199.571 442.879 203.841 445.632 203.841C448.384 203.841 448.39 199.571 445.632 199.571Z" fill="white"/>
<path d="M212.407 265.348C209.654 265.348 209.654 269.621 212.407 269.621C215.159 269.621 215.162 265.348 212.407 265.348Z" fill="white"/>
<path d="M371.402 164.131C368.649 164.131 368.649 168.404 371.402 168.404C374.154 168.404 374.157 164.131 371.402 164.131Z" fill="white"/>
<path d="M364.475 290.979C361.722 290.979 361.722 295.252 364.475 295.252C367.227 295.252 367.23 290.979 364.475 290.979Z" fill="white"/>
<path d="M422.248 298.975C419.495 298.975 419.495 303.248 422.248 303.248C425 303.248 425.003 298.975 422.248 298.975Z" fill="white"/>
<path d="M224.368 349.076C221.613 349.076 221.613 353.347 224.368 353.347C227.123 353.347 227.123 349.076 224.368 349.076Z" fill="white"/>
<path d="M337.604 253.436C334.852 253.436 334.852 257.706 337.604 257.706C340.357 257.706 340.362 253.436 337.604 253.436Z" fill="white"/>
<path d="M273.916 170.308C269.786 170.308 269.786 176.717 273.916 176.717C278.047 176.717 278.049 170.308 273.916 170.308Z" fill="white"/>
<path d="M139.559 51.6851C135.429 51.6851 135.429 58.0948 139.559 58.0948C143.69 58.0948 143.692 51.6851 139.559 51.6851Z" fill="white"/>
<path d="M125.266 274.535C121.136 274.535 121.136 280.942 125.266 280.942C129.396 280.942 129.399 274.535 125.266 274.535Z" fill="white"/>
<path d="M419.149 242.068C415.018 242.068 415.018 248.478 419.149 248.478C423.279 248.478 423.282 242.068 419.149 242.068Z" fill="white"/>
<path d="M442.186 416.424C438.053 416.424 438.053 422.828 442.186 422.828C446.319 422.828 446.319 416.424 442.186 416.424Z" fill="white"/>
<path d="M545.281 132.204C541.148 132.204 541.148 138.613 545.281 138.613C549.414 138.613 549.414 132.204 545.281 132.204Z" fill="white"/>
<path d="M657.4 46.133C660.156 46.133 660.156 41.8599 657.4 41.8599C654.645 41.8599 654.645 46.133 657.4 46.133Z" fill="white"/>
<path d="M509.707 96.9653C506.955 96.9653 506.955 101.236 509.707 101.236C512.46 101.236 512.465 96.9653 509.707 96.9653Z" fill="white"/>
<path d="M288.441 43.9966C285.685 43.9966 285.685 48.2697 288.441 48.2697C291.196 48.2697 291.196 43.9966 288.441 43.9966Z" fill="white"/>
<path d="M115.015 91.8398C112.262 91.8398 112.262 96.1102 115.015 96.1102C117.767 96.1102 117.77 91.8398 115.015 91.8398Z" fill="white"/>
<path d="M21.0386 47.4116C18.2861 47.4116 18.2861 51.6848 21.0386 51.6848C23.7911 51.6848 23.7939 47.4116 21.0386 47.4116Z" fill="white"/>
<path d="M280.752 126.454C278 126.454 278 130.727 280.752 130.727C283.505 130.727 283.51 126.454 280.752 126.454Z" fill="white"/>
<path d="M502.019 229.384C499.266 229.384 499.266 233.657 502.019 233.657C504.771 233.657 504.774 229.384 502.019 229.384Z" fill="white"/>
<path d="M572.072 86.4284C574.83 86.4284 574.83 82.1553 572.072 82.1553C569.314 82.1553 569.32 86.4284 572.072 86.4284Z" fill="white"/>
<path d="M349.098 135.41C346.343 135.41 346.343 139.681 349.098 139.681C351.853 139.681 351.853 135.41 349.098 135.41Z" fill="white"/>
<path d="M321.16 306.1C318.408 306.1 318.408 310.373 321.16 310.373C323.913 310.373 323.916 306.1 321.16 306.1Z" fill="white"/>
<path d="M178.661 194.354C175.909 194.354 175.909 198.628 178.661 198.628C181.414 198.628 181.417 194.354 178.661 194.354Z" fill="white"/>
<path d="M384.763 363.724C382.007 363.724 382.007 367.997 384.763 367.997C387.518 367.997 387.518 363.724 384.763 363.724Z" fill="white"/>
<path d="M459.084 144.743C454.951 144.743 454.951 151.15 459.084 151.15C463.217 151.15 463.217 144.743 459.084 144.743Z" fill="white"/>
<path d="M584.886 55.7437C580.756 55.7437 580.756 62.1506 584.886 62.1506C589.016 62.1506 589.019 55.7437 584.886 55.7437Z" fill="white"/>
<path d="M589.159 193.062C585.026 193.062 585.026 199.469 589.159 199.469C593.292 199.469 593.292 193.062 589.159 193.062Z" fill="white"/>
<path d="M287.481 215.283C283.351 215.283 283.351 221.69 287.481 221.69C291.611 221.69 291.614 215.283 287.481 215.283Z" fill="white"/>
<path d="M277.018 336.969C272.885 336.969 272.885 343.376 277.018 343.376C281.151 343.376 281.148 336.969 277.018 336.969Z" fill="white"/>
<path d="M198.311 76.6748C194.178 76.6748 194.178 83.0818 198.311 83.0818C202.444 83.0818 202.444 76.6748 198.311 76.6748Z" fill="white"/>
<path d="M70.5896 165.097C66.4594 165.097 66.4594 171.506 70.5896 171.506C74.7197 171.506 74.7225 165.097 70.5896 165.097Z" fill="white"/>
<path d="M203.165 292.557C203.371 302.049 204.331 320.332 218.448 317.178C236.132 313.23 245.627 296.94 248.871 280.342C252.157 263.53 251.233 246.303 253.714 229.397C255.806 215.112 260.805 198.286 274.994 191.684C287.718 185.764 302.316 187.458 315.729 184.328C324.039 182.384 332.434 178.804 338.547 172.661C345.551 165.622 347.489 156.27 347.113 146.615C346.442 129.484 340.23 110.761 348.595 94.5757C351.562 88.837 355.838 83.2219 362.151 80.9726C367.83 78.9515 373.989 79.5757 379.582 81.605C411.24 93.0909 427.393 126.388 454.47 144.237C462.474 149.511 471.639 153.281 481.404 152.599C492.829 151.799 504.513 146.439 513.246 139.097C528.15 126.572 532.288 108.25 537.788 90.4868C542.735 74.5079 549.98 56.7718 565.849 48.8689C581.416 41.1201 599.628 42.1127 616.495 43.1136C634.976 44.2136 653.276 45.198 671.185 39.4207C687.53 34.1494 702.494 24.2639 712.151 9.84958C712.954 8.65067 713.699 7.43802 714.42 6.21437V0.00537109H70C31.34 0.00537109 0 31.3454 0 70.0054V155.019C11.5381 159.333 23.5216 155.761 35.0047 151.598C48.4291 146.736 61.6225 141.226 75.2394 136.9C95.6428 130.416 129.388 121.669 141.611 146.294C144.201 151.515 146.307 157.878 146.118 163.779C145.931 169.694 144.143 175.485 142.177 181.018C137.104 195.278 130.021 208.958 126.424 223.716C123.319 236.448 124.081 252.421 140.021 255.179C153.33 257.484 164.871 248.55 176.53 243.762C180.597 242.093 185.643 240.355 190.015 241.983C194.926 243.809 197.734 248.481 199.463 253.202C204.254 266.283 202.865 278.99 203.162 292.56L203.165 292.557Z" fill="#272354"/>
<path d="M714.423 0.00549956V30.2503C712.709 31.8782 710.961 33.3906 709.214 34.8012C694.866 46.4437 677.053 53.4667 658.841 55.6198C640.913 57.7371 623.086 55.2485 605.177 54.1926C597.213 53.7032 589.382 53.8214 581.484 55.0313C577.503 55.6363 573.857 57.0964 570.128 58.5428C564.098 61.2981 559.374 66.6904 555.931 72.2862C550.621 80.9205 547.58 90.7152 544.489 100.295C541.448 109.722 538.272 119.181 533.333 127.799C529.654 134.217 524.982 139.884 519.403 144.721C510.331 152.582 497.864 158.5 485.798 159.792C480.337 160.381 475.079 160.312 469.684 159.033C463.2 157.488 457.233 154.549 451.657 150.971C438.449 142.469 428.017 130.337 417.548 118.793C406.728 106.881 395.303 94.6501 380.281 88.1469C379.508 87.8114 377.894 87.1047 377.594 86.9892C374.872 86.0818 372.251 85.4933 369.394 85.3751C367.563 85.3091 365.311 86.0488 363.95 86.2138C361.346 86.552 358.574 89.5575 357.078 91.3394C355.566 93.1212 354.171 95.2028 353.179 97.3201C349.601 104.965 349.013 113.079 349.585 121.43C350.762 138.484 355.753 156.548 345.199 171.836C338.344 181.766 325.827 186.856 314.418 189.006C309.914 189.845 305.377 190.318 300.809 190.722C295.785 191.159 290.729 191.547 285.787 192.586C283.554 193.056 281.335 193.664 279.201 194.503C278.481 194.772 277.354 195.46 276.581 195.509C275.47 195.559 273.168 197.426 272.195 198.196C270.179 199.741 268.414 201.605 266.904 203.657C264.012 207.605 262.015 212.126 260.552 216.779C257.409 226.656 256.538 237.124 255.881 247.425C254.588 267.518 254.536 289.799 241.483 306.416C235.972 313.422 228.663 318.177 220.092 320.498C217.051 321.336 213.773 321.452 210.784 320.344C206.448 318.749 203.627 314.902 202.098 310.684C198.534 300.892 199.458 289.851 199.411 279.619C199.359 271.37 198.619 263.352 196.1 255.474C196.032 255.237 195.814 254.53 195.798 254.497C194.2 250.802 192.372 247.389 188.539 245.709L187.884 245.541C187.01 245.154 185.533 245.341 184.623 245.508C182.055 245.88 179.599 246.903 177.248 247.964C172.529 250.081 168.006 252.65 163.337 254.885C156.297 258.262 148.669 260.767 140.772 259.893C134.186 259.172 128.17 256.211 124.29 250.684C118.559 242.519 119.299 231.259 121.383 222.036C124.543 207.941 130.777 194.833 135.396 181.227C136.59 177.732 137.681 174.22 138.471 170.607C138.704 169.417 138.957 168.171 139.059 166.961C139.092 166.304 139.142 165.652 139.177 165.011C139.21 164.742 139.463 163.551 139.312 163.246L139.279 163.483C138.927 158.206 137.046 152.863 134.373 148.546C129.702 139.928 119.151 138.113 110.261 138.636C99.7757 139.241 89.4943 142.45 79.7326 146.109C69.9708 149.756 60.2916 153.823 50.7664 158.038C45.2723 160.461 39.8278 162.996 34.1495 165.011C28.1357 167.162 21.8332 168.707 15.55 169.835C10.3254 170.758 5.16682 171.278 0.00823975 171.226V142.296C5.77177 143.555 11.8213 143.288 17.7168 142.598C27.7837 141.424 37.309 138.08 46.9195 134.987C66.2421 128.753 86.3045 121.713 106.821 121.26C117.036 121.04 127.807 122.736 136.359 128.684C142.224 132.768 146.472 138.578 149.162 145.133C151.716 151.331 153.262 158.002 152.926 164.64C152.489 169.045 151.532 173.327 150.171 177.548C144.897 193.876 135.79 208.782 131.47 225.465C129.572 233.36 128.261 245.258 137.164 249.457C142.645 252.047 149.329 250.969 154.958 248.937C164.351 245.561 172.936 239.178 182.932 237.581C190.375 236.39 196.659 239.869 200.525 246.267C203.398 251.022 204.812 256.769 205.766 262.18C207.647 272.649 206.605 283.469 206.926 294.056C207.078 299.08 207.38 304.406 209.363 309.092C210.083 310.788 211.21 312.501 212.924 313.323C213.762 313.728 214.705 313.879 215.629 313.862C216.267 313.895 217.007 313.51 217.628 313.626C218.132 313.728 219.223 313.189 219.729 313.037C222.116 312.4 224.484 311.324 226.565 310.032C230.247 307.829 233.387 304.84 235.975 301.444C241.939 293.619 244.461 284.223 246.006 274.664C247.703 264.248 247.755 253.56 248.475 243.042C249.754 224.36 252.509 199.777 270.586 189.377C283.004 182.236 297.52 183.528 311.096 180.792C315.466 179.921 319.717 178.826 323.817 177.044C326.319 175.953 328.656 174.589 330.939 173.112C331.56 172.708 332.151 172.205 332.737 171.751C333.375 171.229 334.871 170.308 335.225 169.499C335.696 168.46 337.494 166.829 338.3 165.55C340.854 161.437 342.048 156.627 342.281 151.807C342.669 143.676 341.157 135.594 340.164 127.562C338.921 117.545 338.349 107.164 341.676 97.4686C343.425 92.376 346.06 87.5887 349.538 83.4723C358.274 73.1551 371.751 72.2807 383.729 77.0873C397.324 82.5648 408.645 91.5044 419.063 101.72C430.068 112.524 440.066 124.521 452.349 133.961C455.894 136.686 459.656 139.103 463.64 141.171C467 142.917 470.679 144.058 474.392 144.732C475.904 145.001 477.502 145.103 479.047 145.054C479.399 145.034 479.754 145.018 480.106 145.018L480.779 145.001H480.812C484.426 144.784 488.341 143.844 491.649 142.48C493.428 141.759 495.177 141.02 496.907 140.142C500.671 138.245 504.889 135.861 507.878 132.784C508.802 131.844 510.466 130.279 511.624 129.02C514.142 126.245 516.227 123.02 517.959 119.714C522.763 110.538 525.235 100.323 528.04 90.4099C533.432 71.794 540.826 51.1954 558.568 40.881C589.871 22.6637 627.103 37.199 660.557 28.4959C662.589 28.0092 664.588 27.3053 666.574 26.6811L666.623 26.6481C669.615 25.1687 672.84 24.1623 675.849 22.6472C679.613 20.7828 683.207 18.4648 686.485 15.8277C691.591 11.7278 695.576 6.88819 699.304 1.56187L699.186 1.74611C699.321 1.74611 699.774 0.976171 700.297 0H714.428L714.423 0.00549956Z" fill="white"/>
<path d="M41.4474 57.3823C38.7389 57.3823 38.7389 61.5812 41.4474 61.5812C44.1559 61.5812 44.1587 57.3823 41.4474 57.3823Z" fill="white"/>
<path d="M188.319 107.024C185.61 107.024 185.61 111.226 188.319 111.226C191.027 111.226 191.03 107.024 188.319 107.024Z" fill="white"/>
<path d="M397.956 26.3101C395.248 26.3101 395.248 30.509 397.956 30.509C400.665 30.509 400.667 26.3101 397.956 26.3101Z" fill="white"/>
<path d="M615.092 9.4209C612.384 9.4209 612.384 13.6198 615.092 13.6198C617.801 13.6198 617.804 9.4209 615.092 9.4209Z" fill="white"/>
<path d="M178.796 206.33C176.09 206.33 176.09 210.531 178.796 210.531C181.502 210.531 181.507 206.33 178.796 206.33Z" fill="white"/>
<path d="M240.683 176.085C237.974 176.085 237.974 180.287 240.683 180.287C243.391 180.287 243.394 176.085 240.683 176.085Z" fill="white"/>
<path d="M299.423 114.781C295.362 114.781 295.362 121.081 299.423 121.081C303.485 121.081 303.488 114.781 299.423 114.781Z" fill="white"/>
<path d="M143.181 23.2822C139.12 23.2822 139.12 29.582 143.181 29.582C147.242 29.582 147.245 23.2822 143.181 23.2822Z" fill="white"/>
<path d="M61.2705 108.165C57.2064 108.165 57.2064 114.465 61.2705 114.465C65.3347 114.465 65.3347 108.165 61.2705 108.165Z" fill="white"/>
<path d="M511.252 74.1504C507.191 74.1504 507.191 80.4501 511.252 80.4501C515.314 80.4501 515.317 74.1504 511.252 74.1504Z" fill="white"/>
<path d="M652.407 17.8213C655.115 17.8213 655.115 13.6196 652.407 13.6196C649.698 13.6196 649.698 17.8213 652.407 17.8213Z" fill="white"/>
<path d="M450.76 13.6226C448.052 13.6226 448.052 17.8242 450.76 17.8242C453.469 17.8242 453.471 13.6226 450.76 13.6226Z" fill="white"/>
<path d="M289.585 15.7231C286.879 15.7231 286.879 19.9221 289.585 19.9221C292.29 19.9221 292.296 15.7231 289.585 15.7231Z" fill="white"/>
<path d="M138.099 75.7314C135.394 75.7314 135.394 79.9331 138.099 79.9331C140.805 79.9331 140.811 75.7314 138.099 75.7314Z" fill="white"/>
<path d="M26.6316 19.0835C23.9258 19.0835 23.9258 23.2852 26.6316 23.2852C29.3374 23.2852 29.3429 19.0835 26.6316 19.0835Z" fill="white"/>
<path d="M282.023 96.8086C279.317 96.8086 279.317 101.008 282.023 101.008C284.729 101.008 284.734 96.8086 282.023 96.8086Z" fill="white"/>
<path d="M522.175 17.8213C524.886 17.8213 524.886 13.6196 522.175 13.6196C519.463 13.6196 519.466 17.8213 522.175 17.8213Z" fill="white"/>
<path d="M226.579 233.938C223.87 233.938 223.87 238.139 226.579 238.139C229.288 238.139 229.288 233.938 226.579 233.938Z" fill="white"/>
<path d="M181.631 163.579C178.923 163.579 178.923 167.778 181.631 167.778C184.34 167.778 184.342 163.579 181.631 163.579Z" fill="white"/>
<path d="M468.686 111.119C464.622 111.119 464.622 117.418 468.686 117.418C472.75 117.418 472.75 111.119 468.686 111.119Z" fill="white"/>
<path d="M578.053 14.6729C573.991 14.6729 573.991 20.9726 578.053 20.9726C582.114 20.9726 582.117 14.6729 578.053 14.6729Z" fill="white"/>
<path d="M319.172 148.642C315.108 148.642 315.108 154.942 319.172 154.942C323.236 154.942 323.236 148.642 319.172 148.642Z" fill="white"/>
<path d="M335.951 56.7607C331.887 56.7607 331.887 63.0605 335.951 63.0605C340.016 63.0605 340.013 56.7607 335.951 56.7607Z" fill="white"/>
<path d="M200.954 47.8569C196.89 47.8569 196.89 54.1567 200.954 54.1567C205.018 54.1567 205.018 47.8569 200.954 47.8569Z" fill="white"/>
<path d="M75.3577 134.805C71.2962 134.805 71.2962 141.105 75.3577 141.105C79.4191 141.105 79.4218 134.805 75.3577 134.805Z" fill="white"/>
<path d="M412.515 85.021L366.868 140.179L407.008 173.397L452.655 118.24L412.515 85.021Z" fill="#C2CBCF"/>
<path d="M407.347 173.25L367.203 140.03L412.846 84.8721L452.987 118.089L407.347 173.25Z" fill="#CFD8DD"/>
<path d="M412.651 84.2918L367.007 139.452L407.149 172.67L452.795 117.506L412.651 84.2891V84.2918ZM370.233 139.029C369.683 138.578 369.603 137.756 370.062 137.206C370.519 136.653 371.336 136.579 371.888 137.035C372.438 137.492 372.518 138.308 372.059 138.858C371.602 139.411 370.786 139.485 370.233 139.029ZM374.784 133.532C374.234 133.076 374.154 132.259 374.613 131.703C375.07 131.154 375.886 131.077 376.439 131.533C376.989 131.989 377.069 132.806 376.612 133.359C376.156 133.909 375.339 133.989 374.787 133.532H374.784ZM379.335 128.033C378.785 127.576 378.705 126.759 379.161 126.209C379.618 125.657 380.437 125.58 380.987 126.036C381.537 126.493 381.617 127.309 381.158 127.859C380.701 128.415 379.885 128.489 379.335 128.033ZM383.886 122.533C383.336 122.077 383.256 121.26 383.712 120.707C384.169 120.157 384.985 120.08 385.538 120.537C386.088 120.993 386.168 121.81 385.709 122.362C385.252 122.912 384.436 122.989 383.886 122.533ZM388.436 117.033C387.884 116.577 387.807 115.76 388.263 115.21C388.722 114.66 389.536 114.583 390.089 115.04C390.639 115.496 390.719 116.313 390.262 116.866C389.806 117.416 388.986 117.493 388.436 117.036V117.033ZM392.987 111.534C392.437 111.077 392.358 110.263 392.814 109.708C393.273 109.158 394.09 109.081 394.64 109.538C395.19 109.994 395.27 110.811 394.81 111.363C394.354 111.913 393.537 111.99 392.985 111.534H392.987ZM397.538 106.037C396.988 105.581 396.909 104.764 397.368 104.211C397.824 103.661 398.641 103.581 399.194 104.038C399.744 104.494 399.823 105.311 399.364 105.864C398.908 106.414 398.091 106.494 397.538 106.037ZM402.089 100.538C401.539 100.081 401.459 99.2644 401.919 98.7144C402.375 98.1617 403.195 98.0847 403.744 98.5412C404.294 98.9976 404.374 99.8143 403.915 100.367C403.458 100.92 402.639 100.994 402.089 100.538ZM406.64 95.0379C406.087 94.5815 406.01 93.7648 406.467 93.2121C406.923 92.6621 407.74 92.5851 408.293 93.0416C408.843 93.4981 408.922 94.3148 408.463 94.8675C408.007 95.4174 407.19 95.4944 406.64 95.0379ZM411.191 89.5384C410.638 89.0819 410.561 88.2652 411.018 87.7153C411.474 87.1626 412.291 87.0883 412.843 87.5448C413.393 88.0013 413.473 88.8179 413.014 89.3679C412.558 89.9206 411.741 89.9949 411.191 89.5384Z" fill="#D8181E"/>
<path d="M442.332 108.855C440.146 112.873 437.35 116.604 434.462 119.992C428.69 126.765 422.305 134.17 414.557 138.71C406.159 143.634 396.125 144.759 386.671 142.474C381.141 141.138 375.334 138.624 370.887 134.764L367.007 139.452L407.149 172.669L452.795 117.506L442.335 108.853L442.332 108.855ZM370.23 139.029C369.68 138.578 369.6 137.755 370.06 137.206C370.516 136.653 371.333 136.579 371.886 137.035C372.436 137.491 372.515 138.308 372.056 138.858C371.6 139.411 370.783 139.485 370.23 139.029Z" fill="#C3171C"/>
<path d="M413.27 93.0382L404.292 103.887L435.149 129.423L444.127 118.575L413.27 93.0382Z" fill="#CFD8DD"/>
<path d="M438.939 114.27C437.525 116.272 436.008 118.183 434.465 119.992C433.016 121.689 431.531 123.43 429.997 125.151L435.133 129.399L444.111 118.551L438.939 114.27Z" fill="#BBC3C8"/>
<path d="M433.871 130.928L403.01 105.394L399.584 109.537L430.439 135.072L433.871 130.928Z" fill="#CFD8DD"/>
<path d="M428.666 126.622C427.453 127.944 426.21 129.248 424.926 130.507L430.439 135.072L433.868 130.928L428.663 126.622H428.666Z" fill="#BBC3C8"/>
<path d="M412.643 89.0599C412.393 89.3624 411.947 89.4037 411.645 89.1562L408.062 86.1892C407.762 85.9389 407.718 85.4935 407.968 85.191C408.218 84.8885 408.667 84.85 408.966 85.0975L412.549 88.0645C412.852 88.3147 412.893 88.7602 412.643 89.0599Z" fill="#1D1512"/>
<path d="M408.095 94.5596C407.844 94.8621 407.399 94.9033 407.096 94.6531L403.513 91.6861C403.211 91.4359 403.17 90.9904 403.42 90.6907C403.67 90.3882 404.118 90.347 404.415 90.5944L408.001 93.5614C408.304 93.8117 408.345 94.2571 408.095 94.5596Z" fill="#1D1512"/>
<path d="M403.544 100.059C403.294 100.362 402.848 100.403 402.546 100.153L398.963 97.1884C398.66 96.9381 398.619 96.4927 398.866 96.1902C399.117 95.8877 399.565 95.8465 399.865 96.0967L403.45 99.0637C403.753 99.3139 403.794 99.7594 403.544 100.062V100.059Z" fill="#1D1512"/>
<path d="M398.993 105.559C398.743 105.864 398.297 105.902 397.995 105.652L394.412 102.685C394.109 102.44 394.068 101.989 394.315 101.69C394.566 101.39 395.014 101.349 395.314 101.596L398.897 104.563C399.202 104.813 399.24 105.259 398.993 105.559Z" fill="#1D1512"/>
<path d="M394.442 111.058C394.192 111.36 393.746 111.402 393.444 111.154L389.861 108.187C389.558 107.937 389.517 107.492 389.765 107.189C390.015 106.887 390.463 106.848 390.763 107.096L394.346 110.06C394.648 110.31 394.689 110.756 394.442 111.058Z" fill="#1D1512"/>
<path d="M389.891 116.558C389.641 116.86 389.195 116.901 388.893 116.654L385.31 113.687C385.01 113.437 384.966 112.991 385.216 112.689C385.467 112.386 385.915 112.345 386.215 112.595L389.798 115.562C390.1 115.812 390.141 116.258 389.891 116.558Z" fill="#1D1512"/>
<path d="M385.34 122.057C385.09 122.36 384.644 122.401 384.345 122.153L380.759 119.186C380.459 118.936 380.415 118.491 380.666 118.188C380.916 117.886 381.364 117.845 381.661 118.092L385.247 121.059C385.549 121.309 385.59 121.755 385.34 122.057Z" fill="#1D1512"/>
<path d="M380.789 127.557C380.539 127.856 380.094 127.9 379.791 127.65L376.208 124.686C375.908 124.436 375.865 123.987 376.115 123.688C376.365 123.385 376.813 123.344 377.11 123.594L380.696 126.561C380.998 126.811 381.04 127.257 380.789 127.557Z" fill="#1D1512"/>
<path d="M376.238 133.053C375.988 133.356 375.543 133.397 375.24 133.147L371.657 130.18C371.358 129.93 371.314 129.484 371.564 129.182C371.814 128.879 372.26 128.841 372.559 129.088L376.145 132.052C376.447 132.305 376.489 132.748 376.238 133.051V133.053Z" fill="#1D1512"/>
<path d="M371.69 138.553C371.44 138.856 370.995 138.897 370.692 138.649L367.106 135.682C366.807 135.432 366.763 134.987 367.013 134.684C367.263 134.382 367.711 134.343 368.011 134.591L371.597 137.558C371.899 137.808 371.941 138.253 371.69 138.556V138.553Z" fill="#1D1512"/>
<path d="M259.804 141.801C232.032 134.813 208.628 132.691 207.531 137.054C206.717 140.291 218.407 146.186 235.829 151.868L236.162 150.545C224.693 146.39 217.342 142.202 217.978 139.678C218.932 135.891 237.537 137.305 259.54 142.84C281.541 148.373 298.601 155.932 297.65 159.721C297.003 162.281 288.284 162.46 275.902 160.601L275.574 161.907C293.915 165.245 307.277 165.622 308.099 162.35C309.196 157.986 287.572 148.782 259.804 141.798V141.801Z" fill="#FFE34A"/>
<path d="M259.285 143.852C238.727 138.68 221.404 137.109 220.593 140.338C220.073 142.4 226.414 145.92 236.415 149.544L236.72 148.334C231.218 145.964 227.959 143.745 228.328 142.285C229.032 139.48 242.808 140.525 259.095 144.625C275.379 148.719 288.012 154.315 287.305 157.122C286.926 158.632 282.757 159.022 276.454 158.426L276.16 159.605C287 161.236 294.512 161.167 295.04 159.066C295.854 155.838 279.848 149.024 259.29 143.855L259.285 143.852Z" fill="#FFE34A"/>
<path d="M280.681 155.453C277.505 168.083 264.688 175.744 252.061 172.568C239.431 169.392 231.768 156.575 234.944 143.948C238.12 131.321 250.934 123.657 263.566 126.833C276.193 130.009 283.857 142.826 280.681 155.453Z" fill="#F1AE2F"/>
<path d="M274.752 133.373C271.791 130.282 267.971 127.944 263.514 126.823C256.073 124.95 248.585 126.861 243.025 131.316C244.15 131.728 245.319 132.182 246.567 132.638C254.943 135.801 265.901 136.51 274.752 133.373Z" fill="#EECB2F"/>
<path d="M248.143 155.137C258.061 158.885 271.598 159.195 280.967 153.748C281.443 151.02 281.44 148.306 280.992 145.7C279.413 145.892 277.736 145.851 275.899 145.493C271.222 144.759 267.377 141.58 262.752 140.64C257.918 139.647 253.084 140.42 248.558 142.595C244.411 144.591 239.396 146.34 234.471 146.096C234.149 148.158 234.127 150.198 234.344 152.197C239.374 151.471 243.113 153.3 248.148 155.134L248.143 155.137Z" fill="#CB4190"/>
<path d="M250.131 165.096C247.881 166.18 245.374 167.195 242.767 167.86C245.385 170.021 248.495 171.674 252.006 172.557C260.049 174.578 268.153 172.196 273.812 166.942C270.65 165.69 267.694 163.832 264.328 163.147C259.491 162.149 254.657 162.924 250.131 165.099V165.096Z" fill="#902885"/>
<path d="M280.964 153.748C271.596 159.195 258.058 158.885 248.14 155.137C243.108 153.303 239.365 151.474 234.336 152.2C234.993 158.332 238.043 163.958 242.767 167.86C245.374 167.195 247.881 166.18 250.131 165.097C254.657 162.921 259.491 162.146 264.328 163.144C267.694 163.829 270.647 165.69 273.812 166.939C277.035 163.944 279.474 160.026 280.626 155.439C280.769 154.876 280.862 154.309 280.964 153.745V153.748Z" fill="#9C4996"/>
<path d="M284.522 149.132L284.143 150.647C292.879 154.183 298.191 157.565 297.65 159.724C296.696 163.51 278.088 162.097 256.087 156.564C234.086 151.029 217.023 143.47 217.975 139.681C218.539 137.439 225.295 137.021 235.277 138.204L235.645 136.738C219.608 134.126 208.282 134.049 207.529 137.057C206.431 141.418 228.053 150.619 255.826 157.606C283.596 164.594 307.002 166.716 308.096 162.355C308.836 159.421 299.291 154.298 284.522 149.134V149.132Z" fill="#FFE34A"/>
<path d="M283.89 151.65L283.477 153.292C286.134 154.788 287.553 156.13 287.302 157.122C286.596 159.924 272.822 158.88 256.538 154.78C240.251 150.685 227.621 145.089 228.325 142.287C228.603 141.176 230.932 140.673 234.644 140.723L235.024 139.205C226.62 138.234 221.044 138.539 220.59 140.341C219.779 143.572 235.782 150.383 256.34 155.555C276.897 160.725 294.221 162.298 295.032 159.067C295.466 157.351 291.127 154.617 283.884 151.653L283.89 151.65Z" fill="#FFE34A"/>
<path d="M470.982 42.52C454.195 54.663 441.799 66.1873 443.3 68.2579C444.254 69.5806 450.647 66.729 459.507 61.3367L458.946 60.5585C453.834 63.3523 450.29 64.6282 449.613 63.6905C448.313 61.8922 458.039 52.6337 471.339 43.015C484.643 33.3962 496.475 27.0552 497.779 28.8536C498.48 29.8215 495.98 32.9535 491.457 37.1332L492.004 37.8894C500.165 30.9764 505.071 25.6336 504.098 24.2835C502.599 22.2129 487.775 30.3742 470.985 42.5145L470.982 42.52Z" fill="#FFE34A"/>
<path d="M474.433 41.703C453.975 38.4143 437.063 37.7984 436.656 40.3254C436.395 41.9368 442.934 44.4391 453.012 46.8919L453.166 45.946C447.576 44.3043 444.169 42.704 444.353 41.5601C444.705 39.3685 458.129 39.6985 474.334 42.3025C490.541 44.9038 503.394 48.7947 503.042 50.9863C502.852 52.1659 498.873 52.6114 492.719 52.3694L492.57 53.2906C503.231 54.176 510.474 53.8626 510.741 52.2209C511.148 49.6966 494.891 44.989 474.433 41.703Z" fill="#FFE34A"/>
<path d="M491.278 41.9645C493.657 51.6712 487.717 61.4742 478.008 63.8527C468.301 66.2313 458.498 60.289 456.119 50.5823C453.741 40.8701 459.683 31.0726 469.39 28.6941C479.099 26.3128 488.9 32.255 491.278 41.9645Z" fill="#CE8D18"/>
<path d="M479.325 29.1119C476.207 28.078 472.775 27.8635 469.349 28.705C463.629 30.1046 459.235 34.089 457.06 39.1074C457.973 38.9864 458.93 38.8737 459.939 38.7334C466.761 37.8755 474.447 34.419 479.325 29.1119Z" fill="#D89538"/>
<path d="M469.087 53.4311C477.164 52.4137 486.461 47.7638 490.857 40.7051C490.203 38.6786 489.227 36.8417 487.989 35.2358C486.983 35.9315 485.831 36.509 484.459 36.9242C481.021 38.1066 477.271 37.3312 473.795 38.3513C470.157 39.4155 467.154 41.6731 464.864 44.7776C462.768 47.6208 459.997 50.6071 456.565 52.213C457.085 53.7253 457.805 55.1167 458.669 56.3926C461.823 54.0993 465.012 53.9948 469.087 53.4284V53.4311Z" fill="#C87719"/>
<path d="M474.012 59.4751C472.877 61.0177 471.54 62.6071 470.011 63.993C472.566 64.5209 475.266 64.5209 477.966 63.861C484.148 62.3431 488.795 57.817 490.742 52.2212C488.149 52.5099 485.473 52.3064 482.944 53.0516C479.308 54.113 476.3 56.3734 474.012 59.4751Z" fill="#BD3B1B"/>
<path d="M490.857 40.7051C486.458 47.7638 477.163 52.4136 469.087 53.4311C465.012 53.9948 461.82 54.102 458.668 56.3953C461.319 60.3248 465.408 63.0443 470.011 63.9957C471.54 62.6071 472.879 61.0204 474.012 59.4778C476.3 56.3761 479.308 54.1157 482.944 53.0543C485.473 52.3091 488.149 52.5126 490.742 52.2239C491.856 49.0342 492.1 45.5007 491.237 41.9755C491.13 41.5438 490.992 41.123 490.857 40.7051Z" fill="#C2551B"/>
<path d="M488.097 31.0809L488.666 31.8673C493.662 29.1561 497.11 27.9324 497.779 28.8536C499.079 30.6519 489.353 39.9104 476.053 49.5292C462.752 59.1479 450.914 65.4889 449.614 63.6905C448.94 62.7584 451.233 59.8188 455.449 55.8674L454.885 55.0865C447.023 61.7877 442.343 66.9408 443.297 68.2607C444.796 70.3312 459.617 62.1699 476.407 50.0269C493.195 37.8839 505.591 26.3595 504.092 24.289C503.143 22.9746 496.844 25.7766 488.091 31.0809H488.097Z" fill="#FFE34A"/>
<path d="M494.622 45.7097L494.468 46.6721C499.915 48.2862 503.223 49.8591 503.042 50.9865C502.69 53.1781 489.268 52.8454 473.061 50.2413C456.854 47.6373 444.001 43.7491 444.353 41.5603C444.537 40.4219 448.239 39.9654 454.013 40.1524L454.164 39.201C443.869 38.3843 436.912 38.7143 436.654 40.3229C436.25 42.8472 452.501 47.5603 472.959 50.8435C493.415 54.1295 510.331 54.7455 510.736 52.2184C510.994 50.6208 504.562 48.146 494.619 45.7069L494.622 45.7097Z" fill="#FFE34A"/>
<path d="M81.2862 61.3642C49.8177 70.9527 25.3722 82.2158 26.6838 86.522C27.6573 89.7117 42.5336 88.1746 62.9864 83.2607L62.5877 81.9573C48.8965 84.8419 39.2806 85.4001 38.5216 82.9115C37.3832 79.1746 56.6674 69.9876 81.5942 62.3927C106.521 54.795 127.653 51.6685 128.791 55.4055C129.561 57.9325 120.985 62.9481 107.648 68.2854L108.042 69.5751C128.12 62.1617 141.616 55.0233 140.632 51.795C139.32 47.4944 112.746 51.7758 81.2834 61.3642H81.2862Z" fill="#EE761B"/>
<path d="M81.9049 63.3881C58.6115 70.4853 40.5152 78.8199 41.4859 82.0069C42.1046 84.0417 50.3539 83.4808 62.2907 80.9647L61.925 79.7713C55.1496 80.8382 50.6894 80.775 50.2494 79.3341C49.408 76.5678 63.6821 69.7676 82.1359 64.1443C100.587 58.521 116.228 56.2085 117.072 58.972C117.526 60.4624 113.599 63.1186 107.002 66.1324L107.357 67.2928C119.032 62.6237 126.471 58.3753 125.838 56.3047C124.867 53.115 105.196 56.2882 81.9076 63.3854L81.9049 63.3881Z" fill="#EE761B"/>
<path d="M75.1624 41.2686C59.7582 45.9625 51.0771 62.2522 55.771 77.6564C60.4649 93.0524 76.7546 101.736 92.1561 97.0451C107.558 92.3512 116.236 76.0588 111.545 60.6573C106.851 45.2558 90.5639 36.5775 75.1624 41.2686Z" fill="#CACAE7"/>
<path d="M92.5273 41.3872C98.97 44.8464 104.101 50.7502 106.403 58.2983C111.02 73.4469 102.482 89.4698 87.3302 94.0895C79.7821 96.3883 72.0195 95.4258 65.5575 92.0024C72.8059 97.7384 82.6501 99.9437 92.1616 97.0455C107.563 92.3516 116.241 76.0592 111.55 60.6577C108.652 51.1462 101.332 44.2057 92.5301 41.3872H92.5273Z" fill="#9293C8"/>
<path d="M111.248 53.4777L111.721 55.0285C121.606 53.3704 128.175 53.3649 128.797 55.4025C129.935 59.1395 110.654 68.3265 85.7243 75.9213C60.7948 83.519 39.6655 86.6455 38.5271 82.9085C37.8837 80.7967 43.7627 76.9498 53.4859 72.6299L53.0267 71.123C36.4648 77.6427 25.8094 83.6345 26.6866 86.5162C27.9982 90.8169 54.5721 86.5355 86.0378 76.947C117.504 67.3585 141.952 56.0954 140.637 51.7893C139.779 48.9708 128.065 49.8425 111.251 53.4722L111.248 53.4777Z" fill="#EE761B"/>
<path d="M112.023 56.0265L112.568 57.8139C115.202 57.7671 116.816 58.1356 117.069 58.9716C117.913 61.7378 103.636 68.5408 85.1854 74.1613C66.7316 79.7846 51.0909 82.0999 50.2467 79.3337C49.958 78.385 51.4539 76.9578 54.2861 75.2722L53.7829 73.6251C45.7508 77.2246 40.969 80.3291 41.4832 82.0064C42.4538 85.1934 62.123 82.0229 85.4164 74.9258C108.707 67.8258 126.806 59.4913 125.833 56.307C125.343 54.6984 120.091 54.7121 112.02 56.0265H112.023Z" fill="#EE761B"/>
<path d="M90.8912 50.3375C91.2679 51.5722 90.5722 52.8756 89.3403 53.2523C88.1084 53.6263 86.805 52.9306 86.4283 51.7014C86.0516 50.4695 86.7473 49.1661 87.9792 48.7894C89.2111 48.4127 90.5145 49.1084 90.8912 50.3375Z" fill="#9293C8"/>
<path d="M88.9553 59.9918C89.1918 60.7672 88.7546 61.5867 87.9792 61.8231C87.2037 62.0596 86.3843 61.6224 86.1478 60.8497C85.9113 60.0743 86.3486 59.2521 87.124 59.0156C87.8994 58.7791 88.7216 59.2191 88.9553 59.9945V59.9918Z" fill="#9293C8"/>
<path d="M85.9086 45.8444C86.1451 46.6226 85.7079 47.442 84.9324 47.6785C84.1542 47.915 83.3348 47.4777 83.0983 46.6996C82.8618 45.9214 83.2991 45.1019 84.0745 44.8655C84.8499 44.629 85.6721 45.0662 85.9086 45.8444Z" fill="#9293C8"/>
<path d="M92.1753 54.5528C92.3156 55.0092 92.0571 55.4905 91.6006 55.6334C91.1442 55.7709 90.6629 55.5152 90.5227 55.0587C90.3825 54.5995 90.6382 54.1156 91.0974 53.9781C91.5539 53.8406 92.0351 54.0963 92.1753 54.5528Z" fill="#9293C8"/>
<path d="M79.2568 48.7755C79.3971 49.232 79.1358 49.7132 78.6821 49.8562C78.2257 49.9937 77.7444 49.7379 77.6042 49.2815C77.464 48.8222 77.7224 48.3383 78.1789 48.2008C78.6354 48.0578 79.1193 48.319 79.2596 48.7755H79.2568Z" fill="#9293C8"/>
<path d="M97.5456 52.0147C97.6859 52.4712 97.4274 52.9551 96.9737 53.0954C96.5145 53.2328 96.0333 52.9771 95.893 52.5206C95.7528 52.0614 96.0113 51.583 96.4677 51.44C96.9242 51.3025 97.4054 51.5582 97.5456 52.0147Z" fill="#9293C8"/>
<path d="M92.981 47.7141C93.0525 47.9396 92.9233 48.1844 92.695 48.2531C92.4695 48.3219 92.2276 48.1954 92.1561 47.9644C92.0846 47.7334 92.2138 47.4942 92.442 47.4254C92.6675 47.3567 92.9123 47.4832 92.981 47.7141Z" fill="#9293C8"/>
<path d="M82.9333 59.3567C83.002 59.5877 82.8755 59.8269 82.6446 59.8984C82.4191 59.9672 82.1771 59.8352 82.1056 59.6097C82.0369 59.3787 82.1634 59.1367 82.3916 59.068C82.6226 58.9993 82.8646 59.1257 82.9333 59.3567Z" fill="#9293C8"/>
<path d="M82.4548 53.3621C82.5236 53.5876 82.3971 53.8323 82.1689 53.9011C81.9406 53.9698 81.6986 53.8433 81.6299 53.6151C81.5611 53.3841 81.6876 53.1421 81.9186 53.0734C82.1469 53.0046 82.3888 53.1311 82.4576 53.3621H82.4548Z" fill="#9293C8"/>
<path d="M331.244 201.474C321.279 204.713 315.826 215.415 319.065 225.38C322.302 235.343 333.006 240.793 342.969 237.559C352.934 234.32 358.387 223.615 355.148 213.652C351.911 203.69 341.206 198.234 331.244 201.474Z" fill="#F298C0"/>
<path d="M342.543 201.341C346.775 203.514 350.184 207.295 351.774 212.178C354.958 221.978 349.593 232.507 339.793 235.694C334.912 237.281 329.847 236.745 325.604 234.594C330.386 238.241 336.82 239.555 342.972 237.556C352.937 234.317 358.39 223.612 355.15 213.649C353.151 207.498 348.303 203.071 342.545 201.341H342.543Z" fill="#CC64A3"/>
<path d="M340.786 209.745C341.187 210.982 340.511 212.308 339.276 212.709C338.041 213.108 336.713 212.437 336.314 211.2C335.913 209.968 336.589 208.64 337.824 208.235C339.059 207.837 340.384 208.51 340.786 209.745Z" fill="#CC64A3"/>
<path d="M328.519 217.122C328.92 218.357 328.244 219.682 327.012 220.084C325.774 220.485 324.452 219.811 324.05 218.574C323.649 217.339 324.325 216.014 325.56 215.613C326.792 215.211 328.12 215.885 328.521 217.122H328.519Z" fill="#CC64A3"/>
<path d="M339.015 219.509C339.265 220.287 338.841 221.121 338.063 221.374C337.288 221.624 336.452 221.2 336.199 220.422C335.946 219.644 336.369 218.811 337.148 218.558C337.923 218.305 338.759 218.731 339.012 219.509H339.015Z" fill="#CC64A3"/>
<path d="M335.685 205.312C335.938 206.091 335.511 206.924 334.736 207.177C333.958 207.43 333.122 207.006 332.869 206.228C332.616 205.45 333.042 204.614 333.82 204.361C334.596 204.108 335.432 204.534 335.685 205.312Z" fill="#CC64A3"/>
<path d="M329.965 225.561C330.218 226.34 329.795 227.176 329.016 227.426C328.238 227.682 327.402 227.255 327.149 226.477C326.896 225.699 327.32 224.863 328.098 224.61C328.876 224.357 329.712 224.783 329.965 225.561Z" fill="#CC64A3"/>
<path d="M342.158 213.969C342.306 214.428 342.059 214.917 341.599 215.069C341.143 215.217 340.651 214.967 340.502 214.508C340.354 214.051 340.604 213.559 341.063 213.41C341.52 213.262 342.012 213.512 342.158 213.969Z" fill="#CC64A3"/>
<path d="M329.036 208.386C329.184 208.846 328.934 209.335 328.475 209.486C328.018 209.635 327.526 209.385 327.38 208.925C327.232 208.469 327.482 207.977 327.939 207.831C328.395 207.682 328.887 207.933 329.036 208.389V208.386Z" fill="#CC64A3"/>
<path d="M347.52 211.312C347.668 211.771 347.418 212.261 346.959 212.412C346.5 212.561 346.01 212.31 345.862 211.851C345.713 211.395 345.961 210.902 346.42 210.757C346.876 210.608 347.369 210.858 347.517 211.315L347.52 211.312Z" fill="#CC64A3"/>
<path d="M341.679 223.769C341.828 224.225 341.58 224.717 341.118 224.863C340.665 225.011 340.17 224.761 340.024 224.305C339.875 223.846 340.126 223.356 340.582 223.205C341.041 223.056 341.531 223.307 341.679 223.766V223.769Z" fill="#CC64A3"/>
<path d="M342.842 207.064C342.917 207.289 342.793 207.537 342.562 207.611C342.331 207.685 342.089 207.559 342.012 207.33C341.938 207.099 342.062 206.855 342.292 206.78C342.521 206.709 342.765 206.833 342.84 207.064H342.842Z" fill="#CC64A3"/>
<path d="M332.935 218.981C333.009 219.212 332.885 219.457 332.654 219.531C332.426 219.605 332.181 219.479 332.104 219.251C332.033 219.02 332.157 218.775 332.385 218.701C332.616 218.626 332.858 218.75 332.932 218.981H332.935Z" fill="#CC64A3"/>
<path d="M337.37 227C337.442 227.231 337.318 227.476 337.087 227.55C336.859 227.621 336.614 227.498 336.54 227.269C336.466 227.041 336.589 226.794 336.82 226.72C337.051 226.645 337.296 226.772 337.37 227Z" fill="#CC64A3"/>
<path d="M332.341 212.948C332.418 213.179 332.291 213.424 332.063 213.496C331.832 213.57 331.587 213.446 331.513 213.215C331.439 212.984 331.563 212.739 331.794 212.668C332.022 212.594 332.269 212.718 332.341 212.948Z" fill="#CC64A3"/>
<path d="M346.959 221.137C347.033 221.368 346.909 221.613 346.678 221.687C346.45 221.761 346.203 221.638 346.131 221.407C346.057 221.176 346.181 220.931 346.409 220.86C346.64 220.783 346.884 220.909 346.959 221.137Z" fill="#CC64A3"/>
<path d="M285.158 378.268C388.568 378.268 472.409 392.377 472.409 409.783C472.409 427.189 388.571 441.298 285.158 441.298C181.744 441.298 97.9031 427.186 97.9031 409.783C97.9031 392.379 181.738 378.268 285.158 378.268Z" fill="#ECC38D"/>
<path d="M537.139 198.878C537.752 198.229 538.354 197.571 538.946 196.903C539.614 196.144 539.545 194.987 538.786 194.316C538.03 193.645 536.872 193.716 536.204 194.472C535.64 195.11 535.063 195.74 534.474 196.361C533.781 197.098 533.812 198.256 534.549 198.952C535.286 199.645 536.443 199.614 537.139 198.878ZM522.906 210.977C525.483 209.217 527.968 207.328 530.342 205.315C531.114 204.66 531.208 203.503 530.553 202.733C529.896 201.963 528.741 201.867 527.971 202.521C525.697 204.451 523.313 206.263 520.838 207.952C520.002 208.521 519.788 209.662 520.357 210.495C520.926 211.331 522.067 211.548 522.903 210.977H522.906ZM506.506 219.88C509.374 218.679 512.187 217.331 514.929 215.844C515.817 215.36 516.147 214.249 515.666 213.358C515.185 212.467 514.071 212.14 513.18 212.621C510.549 214.048 507.843 215.346 505.09 216.498C504.155 216.889 503.715 217.961 504.109 218.896C504.499 219.828 505.574 220.268 506.506 219.878V219.88ZM488.638 225.284C491.688 224.703 494.721 223.953 497.713 223.045C498.681 222.751 499.23 221.728 498.936 220.763C498.642 219.792 497.619 219.245 496.651 219.539C493.78 220.411 490.871 221.129 487.951 221.684C486.958 221.874 486.307 222.834 486.496 223.826C486.686 224.819 487.646 225.471 488.638 225.281V225.284ZM470.253 227.659C473.361 227.467 476.446 227.173 479.493 226.78C480.494 226.65 481.203 225.732 481.074 224.728C480.942 223.727 480.023 223.018 479.022 223.147C476.055 223.532 473.055 223.815 470.028 224.005C469.019 224.068 468.251 224.934 468.315 225.946C468.378 226.955 469.247 227.723 470.256 227.659H470.253ZM451.712 227.613C454.805 227.819 457.899 227.923 460.981 227.934C461.993 227.934 462.815 227.118 462.818 226.106C462.821 225.094 462.004 224.272 460.992 224.269C457.987 224.261 454.97 224.156 451.954 223.955C450.942 223.889 450.073 224.654 450.004 225.66C449.938 226.672 450.702 227.544 451.712 227.61V227.613ZM433.324 225.207C436.357 225.806 439.412 226.304 442.481 226.705C443.482 226.837 444.403 226.131 444.535 225.127C444.667 224.123 443.96 223.205 442.956 223.073C439.962 222.682 436.987 222.196 434.033 221.613C433.041 221.417 432.078 222.061 431.883 223.056C431.688 224.049 432.334 225.011 433.327 225.209L433.324 225.207ZM415.404 220.384C418.318 221.393 421.283 222.3 424.283 223.106C425.259 223.37 426.265 222.787 426.526 221.811C426.788 220.834 426.207 219.828 425.231 219.567C422.314 218.786 419.432 217.903 416.6 216.922C415.643 216.589 414.601 217.098 414.268 218.052C413.935 219.009 414.444 220.054 415.401 220.384H415.404ZM398.358 212.965C401.077 214.422 403.876 215.772 406.739 217.012C407.666 217.417 408.744 216.99 409.148 216.064C409.549 215.134 409.123 214.056 408.196 213.652C405.422 212.45 402.716 211.144 400.087 209.734C399.194 209.255 398.085 209.591 397.607 210.484C397.131 211.375 397.464 212.486 398.358 212.965ZM382.747 202.9C385.024 204.603 387.378 206.269 389.833 207.867L390.834 206.329L389.817 207.856C389.993 207.971 390.166 208.087 390.345 208.205C391.189 208.76 392.327 208.524 392.883 207.68C393.438 206.835 393.205 205.697 392.358 205.142C392.19 205.032 392.019 204.919 391.852 204.806L391.835 204.795C389.459 203.247 387.169 201.627 384.944 199.964C384.133 199.359 382.986 199.524 382.381 200.335C381.776 201.146 381.941 202.295 382.753 202.898L382.747 202.9ZM368.426 191.321C370.744 193.26 373.082 195.229 375.482 197.195C376.266 197.835 377.421 197.72 378.062 196.936C378.702 196.152 378.587 194.998 377.803 194.357C375.427 192.416 373.098 190.455 370.78 188.514C370.005 187.865 368.85 187.966 368.201 188.742C367.552 189.517 367.654 190.672 368.429 191.324L368.426 191.321ZM354.166 180.099C356.611 181.807 359.006 183.63 361.39 185.53C362.182 186.163 363.334 186.031 363.966 185.241C364.596 184.449 364.467 183.297 363.677 182.668C361.249 180.734 358.797 178.862 356.267 177.097C355.436 176.516 354.295 176.72 353.715 177.55C353.135 178.381 353.338 179.522 354.169 180.102L354.166 180.099ZM338.525 171.556C341.327 172.634 343.997 173.904 346.579 175.331C347.465 175.823 348.578 175.502 349.068 174.616C349.557 173.731 349.236 172.617 348.35 172.128C345.639 170.626 342.815 169.282 339.84 168.135C338.896 167.772 337.835 168.242 337.472 169.185C337.109 170.131 337.579 171.19 338.522 171.556H338.525ZM321.279 167.802C321.463 167.813 321.647 167.822 321.829 167.833L321.944 166.007L321.809 167.833C324.697 168.047 327.43 168.448 330.039 169.015C331.027 169.229 332.003 168.602 332.217 167.613C332.432 166.625 331.805 165.649 330.815 165.435C328.04 164.833 325.134 164.406 322.082 164.178H322.062C321.864 164.164 321.664 164.153 321.466 164.145C320.454 164.093 319.596 164.871 319.546 165.883C319.494 166.895 320.272 167.753 321.284 167.802H321.279ZM303.76 169.988C306.688 169.174 309.6 168.569 312.471 168.193C313.475 168.061 314.181 167.142 314.052 166.139C313.92 165.135 312.999 164.428 311.998 164.56C308.938 164.962 305.858 165.605 302.781 166.458C301.805 166.727 301.235 167.736 301.505 168.712C301.774 169.686 302.784 170.258 303.76 169.988ZM287.093 176.596C289.799 175.218 292.535 173.97 295.279 172.87C296.217 172.493 296.674 171.426 296.3 170.489C295.923 169.551 294.856 169.092 293.918 169.469C291.061 170.613 288.226 171.91 285.432 173.332C284.531 173.791 284.17 174.894 284.63 175.796C285.089 176.698 286.191 177.058 287.093 176.599V176.596ZM271.667 185.973C274.12 184.238 276.641 182.574 279.215 181.004C280.079 180.479 280.354 179.349 279.826 178.485C279.3 177.622 278.173 177.349 277.307 177.875C274.659 179.489 272.066 181.199 269.55 182.981C268.725 183.564 268.53 184.708 269.113 185.536C269.698 186.361 270.842 186.556 271.667 185.973ZM257.61 197.338C259.78 195.339 262.068 193.361 264.457 191.428C265.244 190.793 265.365 189.641 264.729 188.852C264.094 188.065 262.942 187.942 262.153 188.58C259.703 190.562 257.352 192.592 255.127 194.643C254.382 195.328 254.335 196.488 255.02 197.23C255.705 197.976 256.865 198.022 257.607 197.338H257.61ZM245.365 210.495C246.177 209.415 246.971 208.419 247.733 207.515L247.728 207.523C248.814 206.255 249.969 204.971 251.184 203.684C251.877 202.947 251.844 201.787 251.107 201.094C250.37 200.401 249.212 200.434 248.517 201.171C247.266 202.499 246.072 203.824 244.945 205.139L244.939 205.15C244.125 206.112 243.289 207.163 242.44 208.296C241.832 209.107 241.994 210.253 242.803 210.861C243.614 211.469 244.761 211.307 245.368 210.498L245.365 210.495ZM235.862 225.801C237.309 223.029 238.813 220.389 240.32 217.944C240.85 217.084 240.584 215.956 239.723 215.423C238.862 214.892 237.735 215.159 237.201 216.02C235.645 218.541 234.1 221.255 232.612 224.101C232.145 225 232.491 226.106 233.387 226.573C234.284 227.041 235.392 226.694 235.859 225.798L235.862 225.801ZM228.688 242.349C229.659 239.519 230.764 236.701 231.963 233.948C232.367 233.022 231.944 231.941 231.014 231.537C230.088 231.132 229.007 231.556 228.603 232.485C227.371 235.32 226.23 238.23 225.223 241.158C224.893 242.115 225.405 243.157 226.362 243.484C227.319 243.812 228.361 243.303 228.688 242.346V242.349ZM224.737 259.747C224.987 256.909 225.487 253.961 226.186 250.967C226.417 249.979 225.804 248.998 224.819 248.767C223.835 248.536 222.848 249.146 222.619 250.133C221.885 253.268 221.357 256.381 221.088 259.419C220.997 260.426 221.742 261.317 222.749 261.407C223.758 261.495 224.646 260.753 224.737 259.747ZM227.244 276.619C226.004 274.21 225.218 271.477 224.833 268.488C224.704 267.487 223.785 266.778 222.782 266.907C221.778 267.036 221.071 267.955 221.2 268.958C221.629 272.291 222.52 275.442 223.986 278.297C224.448 279.196 225.553 279.551 226.453 279.089C227.352 278.627 227.706 277.521 227.244 276.619Z" fill="white"/>
<path d="M613.338 79.048C612.829 78.718 609.557 79.9472 603.871 89.1672C598.992 97.0838 593.355 106.903 592.814 108.05L595.379 109.703C596.201 108.737 602.823 99.5531 608.02 91.8482C614.075 82.8619 613.844 79.3752 613.335 79.048H613.338Z" fill="#CA221C"/>
<path d="M583.442 142.422L587.977 158.86L598.935 141.872L594.4 125.431L583.442 142.422Z" fill="#CA221C"/>
<path d="M567.936 132.421L551.089 135.072L562.046 118.078L578.897 115.433L567.936 132.421Z" fill="#CA221C"/>
<path d="M608.32 86.8298C605.196 84.8142 591.752 82.0232 582.554 98.8024C574.662 113.192 566.892 131.885 566.551 134.299L582.301 144.46C584.361 143.151 598.184 128.362 608.042 115.241C619.528 99.9408 611.441 88.8427 608.32 86.8326V86.8298Z" fill="#F2F1E8"/>
<path d="M608.32 86.8296C606.123 85.4107 595.877 84.6847 586.335 101.238C578.152 115.441 569.485 133.557 568.888 135.803L579.964 142.947C581.771 141.476 594.695 126.11 604.261 112.796C615.409 97.2787 610.517 88.2457 608.32 86.8296Z" fill="#FFFEF4"/>
<path d="M583.352 145.133C583.063 145.581 582.466 145.711 582.018 145.422L565.789 134.956C565.341 134.668 565.214 134.068 565.5 133.62C565.789 133.172 566.388 133.042 566.836 133.331L583.066 143.797C583.514 144.086 583.64 144.685 583.354 145.133H583.352Z" fill="#656564"/>
<path d="M581.402 146.173C581.116 146.624 580.517 146.75 580.066 146.461L565.649 137.162C565.198 136.873 565.071 136.273 565.36 135.825C565.649 135.38 566.248 135.248 566.696 135.537L581.116 144.836C581.564 145.125 581.696 145.722 581.402 146.173Z" fill="#656564"/>
<path d="M570.829 146.69C570.546 147.121 569.966 147.248 569.534 146.97C569.1 146.687 568.973 146.107 569.256 145.675L579.799 129.325C580.082 128.893 580.66 128.767 581.097 129.044C581.529 129.328 581.658 129.905 581.375 130.34L570.832 146.69H570.829Z" fill="#CA221C"/>
<path d="M552.386 134.794C552.103 135.226 551.526 135.352 551.091 135.075C550.657 134.791 550.53 134.211 550.811 133.779L561.353 117.432C561.637 116.995 562.214 116.871 562.649 117.151C563.083 117.432 563.212 118.009 562.929 118.444L552.386 134.794Z" fill="#CA221C"/>
<path d="M589.272 158.585C588.992 159.017 588.411 159.143 587.977 158.86C587.542 158.58 587.416 158 587.699 157.568L598.242 141.218C598.525 140.786 599.105 140.657 599.537 140.937C599.974 141.22 600.101 141.798 599.817 142.232L589.275 158.583L589.272 158.585Z" fill="#CA221C"/>
<path d="M605.265 107.566C602.672 111.589 597.301 112.746 593.276 110.153C589.253 107.56 588.095 102.193 590.688 98.1642C593.287 94.1413 598.651 92.9836 602.68 95.5794C606.7 98.1752 607.86 103.54 605.265 107.566Z" fill="#CA221C"/>
<path d="M604.528 107.09C602.196 110.706 597.373 111.748 593.754 109.414C590.141 107.085 589.099 102.256 591.428 98.6427C593.762 95.0268 598.585 93.9818 602.201 96.3164C605.817 98.6482 606.86 103.474 604.528 107.09Z" fill="#419CD7"/>
<path d="M592.071 119.937C590.784 121.931 588.131 122.503 586.14 121.221C584.149 119.934 583.58 117.281 584.861 115.287C586.145 113.299 588.802 112.724 590.793 114.011C592.786 115.29 593.355 117.949 592.074 119.937H592.071Z" fill="#CA221C"/>
<path d="M591.683 119.687C590.537 121.463 588.167 121.975 586.39 120.828C584.614 119.684 584.105 117.314 585.249 115.535C586.396 113.758 588.766 113.247 590.54 114.396C592.316 115.54 592.827 117.911 591.683 119.687Z" fill="#419CD7"/>
<path d="M564.089 168.19C558.408 176.995 544.539 189.916 542.63 188.681C540.719 187.449 546.766 169.482 552.441 160.678C558.122 151.873 564.901 147.088 568.115 149.162C571.332 151.235 569.765 159.382 564.089 168.187V168.19Z" fill="#CA221C"/>
<path d="M564.593 165.8C559.629 173.497 547.497 184.79 545.828 183.718C544.162 182.643 549.447 166.933 554.41 159.234C559.376 151.535 565.305 147.347 568.115 149.164C570.928 150.976 569.559 158.104 564.595 165.8H564.593Z" fill="#EB6024"/>
<path d="M565.547 161.294C561.928 166.909 553.079 175.147 551.861 174.361C550.643 173.577 554.498 162.119 558.12 156.507C561.744 150.892 566.067 147.836 568.112 149.162C570.164 150.485 569.166 155.679 565.544 161.294H565.547Z" fill="#FFEE00"/>
<path d="M239.085 347.602C243.017 367.874 240.933 383.231 233.506 402.647C230.918 409.398 221.836 433.167 211.681 420.576C207.308 415.126 208.356 404.902 209.033 398.415C210.331 385.978 212.871 373.467 215.715 361.131C218.297 349.964 236.093 332.173 239.085 347.602Z" fill="#7490B8"/>
<path d="M350.44 310.912C354.933 316.032 353.786 324.367 362.676 321.829C366.9 320.63 369.149 319.233 368.872 314.696C368.685 311.657 366.598 297.24 362.286 298.84L350.44 310.909V310.912Z" fill="#E2A69A"/>
<path d="M425.512 303.281C425.421 306.76 424.846 309.647 423.161 312.732C421.42 315.905 420.326 318.072 423.361 321.136C433.093 330.911 438.79 316.571 441.037 309.152C441.411 307.89 441.796 306.636 442.255 305.41L425.512 303.281Z" fill="#E2A69A"/>
<path d="M367.676 367.769C368.633 369.507 369.468 371.193 370.802 372.683C369.831 373.304 368.96 374.083 368.14 374.929C370.835 375.757 373.552 376.494 376.315 377.096C383.569 378.68 391.192 379.368 398.531 377.808C400.241 377.443 401.902 376.967 403.527 376.439C401.721 372.873 399.529 369.466 397.629 366.064C390.4 353.19 383.773 339.257 378.598 325.417C377.259 321.853 375.749 318.136 373.665 314.962C371.204 311.223 371.294 311.577 367.59 312.661C361.986 314.297 357.735 318.974 353.072 321.908C353.283 323.514 353.83 324.958 354.284 326.451C358.373 339.798 360.974 355.535 367.673 367.772L367.676 367.769Z" fill="#4F6098"/>
<path d="M436.901 315.738C431.784 312.908 425.468 313.183 420.103 311.927C419.107 313.216 418.467 314.613 417.738 315.983C411.13 328.288 401.778 341.206 397.813 354.584C397.249 356.481 396.647 358.266 396.518 360.268C392.737 359.413 388.524 360.496 384.565 360.496C373.643 360.485 364.555 354.801 353.973 353.594C342.73 352.307 330.163 352.233 319.505 356.514C315.257 358.214 310.59 360.114 309.985 364.362C309.628 366.911 311.14 370.802 311.591 373.321C313.972 386.6 316.357 399.878 318.741 413.149C322.678 413.149 326.412 413.556 330.259 413.82C337.97 414.356 345.347 412.912 352.97 413.149C366.325 413.581 378.392 412.393 391.15 407.891C399.463 404.954 410.149 400.241 414.436 392.091C417.279 386.71 418.453 380.435 420.114 374.649C424.164 360.46 429.397 345.936 435.581 332.531C437.182 329.066 438.744 325.373 439.53 321.661C440.449 317.289 440.262 317.6 436.904 315.735L436.901 315.738Z" fill="#4F6098"/>
<path d="M423.361 295.851C423.361 295.851 422.908 290.217 429.829 289.804C434.088 289.551 436.72 288.369 438.892 287.03C440.798 285.839 467.094 279.966 467.218 293.068C467.325 306.298 423.359 295.851 423.359 295.851H423.361Z" fill="#E7E7E7"/>
<path d="M443.85 311.916C443.85 311.916 443.193 315.666 438.026 314.217C432.887 312.741 431.836 310.708 432.964 306.581C432.964 306.581 427.981 305.478 424.566 309.169C424.566 309.169 420.977 307.087 423.359 295.851C423.359 295.851 428.149 293.225 431.765 293.225C435.381 293.225 437.963 293.093 440.157 290.8C442.338 288.501 467.234 284.833 467.231 292.483C467.234 298.191 463.101 302.247 459.15 301.348C459.15 301.348 448.016 307.296 443.853 311.916H443.85Z" fill="white"/>
<path d="M463.019 300.699C462.62 299.511 462.317 298.301 461.682 297.196C460.932 295.868 459.524 294.826 458.303 293.973C455.748 292.213 452.567 291.914 449.564 292.213C446.278 292.563 443.152 294.042 440.413 295.818C438.741 296.899 437.418 298.411 435.7 299.437C433.288 300.878 429.81 300.287 427.926 298.299C427.706 298.057 427.415 298.007 427.156 298.197C424.211 300.314 423.51 304.222 423.562 307.926C422.712 306.334 421.871 302.891 423.364 295.854C423.364 295.854 425.877 294.49 428.627 293.726C429.889 295.64 431.479 296.85 434.432 296.701C438.873 296.443 441.086 293.06 443.267 289.582L443.286 289.502C446.806 288.551 452.545 287.751 457.538 287.902C458.306 290.753 459.898 293.407 461.85 295.565C462.683 296.498 464.468 297.597 465.969 297.597C465.218 298.956 464.19 300.037 463.021 300.702L463.019 300.699Z" fill="#7490B8"/>
<path d="M453.859 295.975C450.854 294.68 448.222 296.132 445.382 297.27C440.168 299.376 434.737 301.681 431.501 306.438C432.375 306.454 432.966 306.581 432.966 306.581C431.842 310.708 432.889 312.737 438.029 314.217C443.196 315.666 443.853 311.915 443.853 311.915C447.744 307.601 457.668 302.154 459.001 301.441C458.185 299.074 456.084 296.935 453.859 295.978V295.975Z" fill="white"/>
<path d="M432.524 306.501C435.807 302.393 440.831 300.234 445.692 298.268C448.522 297.138 451.151 295.686 454.156 296.976C456.067 297.809 457.896 299.522 458.877 301.488L458.998 301.439C458.182 299.071 456.081 296.932 453.856 295.975C450.851 294.68 448.219 296.132 445.379 297.27C440.165 299.376 434.734 301.681 431.498 306.438C431.916 306.438 432.271 306.484 432.524 306.501Z" fill="#7490B8"/>
<path d="M442.261 312.474C442.261 312.474 438.059 312.053 434.418 307.065C434.418 307.065 433.486 308.657 434.08 309.952C434.08 309.952 436.373 313.491 441.667 313.469C441.667 313.469 442.321 313.549 442.263 312.474H442.261Z" fill="#7490B8"/>
<path d="M451.065 296.597L451.437 296.822C452.886 298.937 455.138 301.458 457.747 301.607C458.064 301.634 458.275 301.887 458.259 302.19C458.253 302.495 457.989 302.72 457.69 302.709C455.226 302.558 452.823 300.798 450.526 297.43C450.375 297.191 450.433 296.841 450.683 296.685L451.063 296.597H451.065Z" fill="#7490B8"/>
<path d="M448.984 297.87C449.196 297.883 449.377 298.037 449.44 298.252C450.009 300.265 453.515 302.896 455.583 302.888C455.902 302.877 456.139 303.113 456.139 303.416C456.15 303.721 455.899 303.963 455.597 303.977C452.993 304.007 449.08 301.076 448.384 298.557C448.302 298.255 448.472 297.958 448.761 297.883L448.981 297.87H448.984Z" fill="#7490B8"/>
<path d="M446.567 298.818C446.803 298.84 446.996 299.025 447.056 299.275C447.378 301.323 451.008 304.194 453.031 304.461C453.339 304.499 453.554 304.763 453.518 305.069C453.469 305.36 453.205 305.58 452.902 305.555H452.899C450.392 305.223 446.369 302.016 445.948 299.456C445.909 299.165 446.116 298.876 446.41 298.818H446.567Z" fill="#7490B8"/>
<path d="M444.441 299.588C444.642 299.608 444.821 299.723 444.892 299.921C446.173 302.896 448.296 304.868 451.222 305.726C451.516 305.817 451.684 306.122 451.604 306.4C451.516 306.699 451.211 306.859 450.903 306.768C447.705 305.828 445.258 303.606 443.883 300.35C443.765 300.07 443.883 299.742 444.169 299.621L444.438 299.588H444.441Z" fill="#7490B8"/>
<path d="M442.379 300.449C442.544 300.463 442.703 300.57 442.789 300.724C444.026 303.125 446.041 306.364 449.195 306.988C449.487 307.057 449.677 307.343 449.622 307.64C449.564 307.937 449.281 308.127 448.976 308.066C445.371 307.365 443.165 303.829 441.821 301.244C441.678 300.977 441.788 300.644 442.043 300.499L442.379 300.452V300.449Z" fill="#7490B8"/>
<path d="M440.102 301.741C440.322 301.766 440.523 301.928 440.569 302.143C441.386 305.184 444.339 307.931 447.304 308.385C447.603 308.429 447.818 308.72 447.755 309.014C447.722 309.306 447.419 309.523 447.133 309.471C443.715 308.926 440.44 305.896 439.513 302.431C439.423 302.137 439.604 301.835 439.898 301.755L440.102 301.741Z" fill="#7490B8"/>
<path d="M438.015 303.045C438.199 303.072 438.37 303.177 438.458 303.369C439.965 306.851 442.354 309.001 445.566 309.752C445.871 309.82 446.061 310.112 445.987 310.42C445.907 310.7 445.613 310.882 445.329 310.816C441.766 309.977 439.107 307.623 437.448 303.804C437.327 303.521 437.459 303.196 437.734 303.086L438.018 303.05L438.015 303.045Z" fill="#7490B8"/>
<path d="M436.019 304.53C436.189 304.549 436.354 304.645 436.437 304.824C437.325 306.644 439.874 310.871 444.254 310.83C444.559 310.843 444.796 311.077 444.804 311.379C444.81 311.685 444.573 311.94 444.262 311.946C439.255 311.984 436.437 307.329 435.463 305.311C435.328 305.05 435.427 304.714 435.705 304.582L436.016 304.533L436.019 304.53Z" fill="#7490B8"/>
<path d="M344.566 303.961C344.566 303.961 341.228 299.404 346.915 295.425C350.41 292.986 352.038 290.597 353.195 288.323C354.196 286.302 373.527 267.548 380.49 278.665C387.496 289.868 344.566 303.961 344.566 303.961Z" fill="#E7E7E7"/>
<path d="M370.434 306.93C370.434 306.93 371.828 310.48 366.683 311.943C361.516 313.373 359.569 312.188 358.365 308.074C358.365 308.074 353.539 309.751 352.566 314.69C352.566 314.69 348.413 314.789 344.566 303.96C344.566 303.96 347.278 299.214 350.355 297.325C353.44 295.433 355.566 293.981 356.234 290.88C356.896 287.767 376.2 271.62 380.195 278.151C383.182 283.012 381.779 288.616 377.949 289.923C377.949 289.923 371.555 300.812 370.434 306.93Z" fill="white"/>
<path d="M380.894 287.352C379.942 286.546 379.046 285.672 377.924 285.053C376.59 284.327 374.844 284.173 373.359 284.082C370.258 283.923 367.39 285.339 364.992 287.159C362.377 289.164 360.474 292.079 359.077 295.016C358.222 296.817 357.892 298.794 356.957 300.567C355.654 303.042 352.37 304.368 349.733 303.664C349.42 303.562 349.148 303.675 349.027 303.972C347.621 307.31 349.06 311.019 351.053 314.143C349.491 313.23 346.975 310.731 344.569 303.955C344.569 303.955 345.991 301.486 347.938 299.399C350.017 300.367 352.01 300.567 354.449 298.887C358.093 296.346 358.208 292.31 358.236 288.202L358.225 288.122C360.73 285.471 365.198 281.789 369.526 279.298C371.677 281.335 374.421 282.768 377.212 283.579C378.405 283.942 380.509 283.942 381.79 283.161C381.862 284.712 381.554 286.159 380.897 287.346L380.894 287.352Z" fill="#7490B8"/>
<path d="M370.629 288.119C367.379 288.584 365.897 291.201 364.079 293.651C360.73 298.175 357.309 302.981 357.037 308.731C357.801 308.283 358.362 308.074 358.362 308.074C359.567 312.188 361.513 313.373 366.68 311.943C371.825 310.48 370.431 306.93 370.431 306.93C371.49 301.227 377.094 291.394 377.864 290.077C375.925 288.496 373.013 287.77 370.626 288.116L370.629 288.119Z" fill="white"/>
<path d="M357.95 308.25C358.599 303.028 361.742 298.568 364.863 294.344C366.688 291.9 368.157 289.293 371.391 288.825C373.461 288.523 375.925 289.021 377.789 290.195L377.866 290.082C375.928 288.501 373.016 287.775 370.629 288.122C367.379 288.586 365.897 291.204 364.079 293.654C360.73 298.177 357.309 302.984 357.037 308.734C357.391 308.511 357.71 308.374 357.95 308.253V308.25Z" fill="#7490B8"/>
<path d="M369.37 308.25C369.37 308.25 365.569 310.092 359.853 307.741C359.853 307.741 359.886 309.573 361.065 310.378C361.065 310.378 364.871 312.199 369.378 309.413C369.378 309.413 369.974 309.127 369.37 308.25Z" fill="#7490B8"/>
<path d="M368.569 290.104H369.004C371.33 291.149 374.583 292.117 376.885 290.882C377.16 290.74 377.479 290.844 377.627 291.105C377.77 291.366 377.677 291.707 377.41 291.85C375.238 293.008 372.26 292.758 368.553 291.1C368.297 290.973 368.16 290.652 368.283 290.379L368.572 290.102L368.569 290.104Z" fill="#7490B8"/>
<path d="M367.45 292.282C367.637 292.192 367.885 292.214 368.036 292.373C369.589 293.792 373.953 294.204 375.702 293.104C375.963 292.939 376.299 293.005 376.453 293.267C376.629 293.517 376.533 293.872 376.296 294.031C374.085 295.417 369.226 294.966 367.31 293.176C367.079 292.964 367.065 292.626 367.274 292.406L367.447 292.282H367.45Z" fill="#7490B8"/>
<path d="M365.888 294.364C366.108 294.265 366.369 294.309 366.54 294.49C367.89 296.066 372.49 296.616 374.355 295.783C374.633 295.651 374.963 295.769 375.081 296.041C375.202 296.327 375.092 296.649 374.819 296.775H374.811C372.499 297.817 367.395 297.182 365.699 295.219C365.509 294.996 365.534 294.644 365.767 294.438L365.888 294.361V294.364Z" fill="#7490B8"/>
<path d="M364.483 296.118C364.665 296.03 364.871 296.041 365.041 296.162C367.684 298.043 370.527 298.61 373.469 297.804C373.772 297.73 374.074 297.903 374.143 298.181C374.234 298.494 374.063 298.769 373.753 298.854C370.527 299.734 367.288 299.118 364.401 297.056C364.153 296.88 364.087 296.539 364.266 296.294L364.48 296.118H364.483Z" fill="#7490B8"/>
<path d="M363.177 297.935C363.325 297.87 363.518 297.87 363.675 297.955C365.976 299.354 369.391 301.059 372.4 299.946C372.691 299.849 373.007 299.992 373.109 300.276C373.208 300.57 373.073 300.875 372.79 300.98C369.339 302.266 365.616 300.405 363.122 298.892C362.85 298.749 362.773 298.411 362.907 298.144L363.174 297.935H363.177Z" fill="#7490B8"/>
<path d="M361.918 300.235C362.107 300.136 362.36 300.166 362.514 300.325C364.808 302.5 368.759 303.295 371.528 302.126C371.803 302.005 372.13 302.143 372.24 302.426C372.364 302.69 372.221 303.028 371.943 303.136C368.751 304.467 364.379 303.598 361.769 301.12C361.544 300.928 361.544 300.57 361.744 300.342L361.92 300.235H361.918Z" fill="#7490B8"/>
<path d="M360.815 302.432C360.98 302.352 361.183 302.358 361.354 302.476C364.464 304.654 367.632 305.231 370.761 304.189C371.05 304.095 371.369 304.244 371.454 304.546C371.553 304.821 371.382 305.127 371.107 305.223C367.632 306.378 364.145 305.759 360.721 303.378C360.471 303.188 360.411 302.847 360.589 302.616L360.812 302.432H360.815Z" fill="#7490B8"/>
<path d="M359.896 304.736C360.045 304.667 360.237 304.672 360.411 304.769C362.11 305.866 366.499 308.126 370.208 305.805C370.469 305.646 370.802 305.726 370.964 305.979C371.129 306.234 371.063 306.578 370.794 306.74C366.554 309.402 361.709 306.905 359.828 305.695C359.564 305.539 359.487 305.206 359.652 304.945L359.899 304.738L359.896 304.736Z" fill="#7490B8"/>
<path d="M280.417 285.116C279.199 282.801 277.565 281.038 275.151 280.461C276.696 278.453 277.461 275.618 277.642 273.16C277.961 268.711 275.297 265.563 271.139 264.122C270.317 263.836 269.137 263.764 267.955 263.929C268.796 261.556 269.091 258.757 269.003 257.429C268.711 253.455 266.731 250.224 263.104 248.431C260.063 246.911 256.411 246.124 253.222 247.307C253.513 243.837 251.517 239.805 248.871 238.23C246.127 236.594 242.899 236.858 239.913 237.309C237.889 237.617 235.024 238.722 232.582 240.333L232.703 240.056C232.788 239.83 232.87 239.665 232.967 239.456C233.137 239.063 233.371 238.672 233.596 238.271C234.045 237.46 234.575 236.66 235.026 235.793C234.212 236.327 233.44 236.899 232.714 237.556C232.345 237.886 232.018 238.246 231.677 238.642C231.52 238.837 231.322 239.066 231.201 239.261C231.064 239.475 230.957 239.624 230.803 239.882C230.64 240.146 230.475 240.421 230.305 240.702L230.192 240.336C230.03 239.759 229.788 239.231 229.562 238.689C229.345 238.153 229.032 237.655 228.762 237.144C228.493 236.64 228.157 236.154 227.811 235.683C227.467 235.213 227.137 234.738 226.741 234.336C226.348 233.929 225.955 233.519 225.531 233.129C225.716 233.668 225.919 234.21 226.125 234.735C226.37 235.254 226.51 235.782 226.7 236.291C226.901 236.786 227.082 237.303 227.211 237.834C227.368 238.345 227.566 238.84 227.671 239.371L227.764 239.739C226.708 238.345 225.24 237.295 223.301 236.585C218.66 234.903 211.939 236.206 208.219 239.431C206.915 240.551 205.323 243.188 204.41 245.951C203.979 245.786 203.541 245.665 203.118 245.585C194.335 244.029 189.278 251.673 189.869 259.359C188.989 259.332 188.156 259.378 187.43 259.502C182.967 260.233 180.069 262.926 179.033 267.287C178.007 271.541 178.615 276.267 181.758 279.482C182.247 279.982 182.918 280.618 183.66 281.234C182.55 281.613 181.505 282.182 180.688 282.859C175.906 286.769 176.258 296.517 182.365 298.978L182.66 299.077C182.291 299.558 181.978 300.026 181.752 300.43C180 303.493 179.83 307.824 181.329 311.014C182.341 313.175 184.114 314.866 186.174 316.037C185.992 316.211 185.816 316.387 185.635 316.587C180.713 322.268 185.379 330.485 191.335 333.015C192.578 333.559 195.119 333.878 197.478 333.625C197.877 338.885 203.55 342.831 208.529 343.604C213.597 344.385 217.628 341.899 220.964 338.247C223.876 335.06 223.331 332.718 223.612 328.86L226.373 325.161C223.945 331.216 225.622 336.378 231.768 339.158C236.459 341.3 240.116 342.523 245.305 341.775C250.09 341.085 257.302 339.793 258.878 334.373C262.057 334.912 265.362 333.977 267.493 331.475C270.377 328.101 270.974 322.29 268.604 318.567L268.645 318.554C271.75 317.206 274.411 314.467 275.913 311.478C277.464 308.404 277.565 304.519 275.577 301.909C278.096 300.897 280.439 298.788 281.599 296.588C283.711 292.623 282.347 288.812 280.417 285.119V285.116Z" fill="#222121"/>
<path d="M246.65 453.62L264.32 434.086V429.7L243.097 452.262L246.65 453.62Z" fill="#8F8FA1"/>
<path d="M207.221 434.086H195.372L243.097 452.262L264.32 429.7H195.372L207.221 434.086Z" fill="#6C6D79"/>
<path d="M231.545 396.369C240.157 409.53 250.931 417.609 265.752 421.373C271.337 422.781 276.487 421.461 282.207 422.047C288.641 422.707 295.123 423.535 302.041 423.106C305.863 422.872 309.834 422.957 313.552 422.124C317.179 421.299 320.132 419.017 323.682 418.172C328.763 416.963 334.695 417.765 339.477 415.464C343.827 413.377 349.384 409.843 349.277 404.613C349.112 397.555 343.04 389.542 340.398 383.137C335.91 372.306 329.811 357.496 317.753 353.016C311.58 350.734 305.467 349.444 299.731 345.367C294.477 341.63 289.959 337.354 284.437 333.936C274.444 327.749 262.84 321.204 250.579 322.736C242.14 323.792 234.589 332.096 230.33 338.971C219.991 355.711 220.824 380.011 231.545 396.369Z" fill="#7490B8"/>
<path d="M232.001 337.139C229.109 342.971 227.36 350.387 228.16 356.88C228.655 360.903 230.374 365.286 234.606 366.63C238.939 368.027 243.603 366.974 247.584 364.95C256.07 360.611 262.191 352.62 264.377 343.285C265.695 337.678 265.736 326.459 259.813 323.011C256.788 322.483 253.705 322.351 250.582 322.738C243.133 323.676 236.382 330.243 231.979 336.504C232.087 336.68 232.128 336.894 232.004 337.139H232.001Z" fill="#F1F9FE"/>
<path d="M260.107 416.72C256.29 417.526 252.284 417.529 248.431 417.254C244.09 416.949 242.019 418.335 239.858 422.259C238.912 423.952 234.883 429.394 236.583 430.794C235.364 432.512 236.338 435.287 238.78 434.402C238.516 436.645 241.936 435.831 243.127 435.072C243.85 437.377 252.358 431.85 254.115 431.223C257.299 430.062 263.924 429.642 266.176 427.139C267.41 425.764 268.191 415.029 268.332 415.016C265.571 415.34 262.832 416.14 260.107 416.72Z" fill="#E2A69A"/>
<path d="M277.579 346.145C279.743 366.677 286.224 380.748 299.005 397.153C303.452 402.856 319.09 422.919 325.123 407.908C327.724 401.418 323.707 391.951 321.169 385.945C316.29 374.432 310.208 363.207 303.872 352.241C298.15 342.32 275.918 330.521 277.579 346.148V346.145Z" fill="#7490B8"/>
<path d="M311.242 398.094C302.778 398.363 293.621 404.886 285.746 407.756C283.161 408.702 280.332 408.755 277.747 409.684C276.798 410.02 276.058 410.704 275.104 411.031C274.183 411.345 273.256 411.075 272.333 411.408C271.532 411.697 270.971 412.519 270.234 412.813C268.796 413.377 267.303 412.206 265.802 413.02C265.145 413.377 263.761 415.03 263.684 415.78C263.55 416.845 264.463 418.626 264.496 419.839C264.545 421.739 264.102 423.672 263.995 425.561C263.844 428.086 263.819 429.394 266.66 429.931C268.802 430.329 270.449 428.704 272.66 429.15C273.982 429.416 275.214 429.826 276.515 429.219C277.865 428.589 278.583 427.53 280.183 427.797C281.357 427.984 282.047 428.377 283.266 428.025C287.06 426.914 291.02 426.768 294.883 426.048C298.766 425.308 302.61 424.373 306.331 423.059C313.224 420.62 319.854 416.704 323.88 410.405L324.221 409.849L311.25 398.094H311.242Z" fill="#7490B8"/>
<path d="M246.65 453.62L248.462 451.472L227.847 380.242L122.247 371.187L120.44 373.329L246.65 453.62Z" fill="#8F8FA1"/>
<path d="M140.657 443.143L246.65 453.62L226.043 382.381L120.44 373.329L140.657 443.143Z" fill="#A4A4B3"/>
<path d="M230.885 347.55C231.996 339.152 228.982 329.014 228.391 325.794C227.662 321.828 224.954 310.046 224.954 310.046L256.714 302.093C256.714 302.093 259.172 314.951 259.75 318.949C260.409 323.509 260.849 329.159 259.263 334.992C251.165 364.821 229.463 358.257 230.885 347.55Z" fill="#E2A69A"/>
<path d="M256.868 281.552C256.868 281.552 266.192 302.016 262.752 311.376C259.315 320.728 253.255 332.795 237.713 338.382C222.141 343.97 202.507 337.967 195.993 304.579C195.993 304.579 186.85 293.206 190.623 281.093C194.393 268.975 208.4 251.753 230.723 262.56C253.043 273.372 256.871 281.552 256.871 281.552H256.868Z" fill="#E2A69A"/>
<path d="M257.333 286.395C257.333 286.395 261.798 277.282 266.833 282.861C270.694 287.137 269.3 303.127 263.668 303.864C258.028 304.596 254.706 292.832 257.333 286.395Z" fill="#E2A69A"/>
<path d="M260.588 293.495C260.531 291.24 260.737 288.944 261.718 286.945C262.131 286.07 262.64 285.212 263.553 284.673C266.055 283.153 267.331 288.322 267.639 289.584C267.614 288.325 267.614 287.074 267.039 285.839C266.555 284.607 265.362 283.381 263.825 283.521C262.488 283.634 261.661 284.607 260.981 285.507C260.003 286.832 259.48 288.595 259.332 290.244C259.112 292.741 259.497 295.235 259.862 297.782C260.179 296.786 260.357 295.579 260.932 294.677C261.732 293.44 263.289 295.373 263.685 296.137C264.322 297.355 264.314 298.662 263.399 299.602C264.768 298.711 264.867 297.031 264.19 295.585C263.632 294.377 262.128 292.749 260.588 293.489V293.495Z" fill="#8F584A"/>
<path d="M226.021 319.024C224.731 319.34 223.268 319.37 221.965 319.095C219.916 318.669 219.358 316.315 219.056 314.533C218.423 310.78 218.649 306.644 219.6 302.954C219.944 306.317 220.043 309.705 220.428 313.057C220.601 314.236 220.678 316.791 221.789 317.602C222.941 318.416 224.671 318.622 226.021 319.021V319.024Z" fill="#8F584A"/>
<path d="M233.536 297.306C233.536 297.306 233.61 297.182 233.759 296.957C233.915 296.745 234.086 296.368 234.402 296.074C234.542 295.931 234.699 295.761 234.87 295.585C235.018 295.4 235.279 295.321 235.469 295.139C235.868 294.779 236.409 294.625 236.902 294.405C237.438 294.309 237.966 294.105 238.505 294.174C238.758 294.188 239.022 294.113 239.247 294.199C239.484 294.237 239.717 294.278 239.929 294.311C240.361 294.388 240.685 294.573 240.936 294.652C241.194 294.749 241.337 294.815 241.337 294.815C241.337 294.815 241.213 294.699 240.991 294.54C240.771 294.413 240.493 294.056 240.042 293.91C239.822 293.83 239.574 293.748 239.335 293.646C239.074 293.53 238.793 293.55 238.496 293.506C237.903 293.415 237.289 293.585 236.676 293.684C236.123 293.965 235.529 294.174 235.106 294.603C234.875 294.795 234.633 294.949 234.493 295.197C234.344 295.428 234.19 295.648 234.053 295.84C233.783 296.228 233.767 296.646 233.66 296.893C233.591 297.152 233.541 297.303 233.541 297.303L233.536 297.306Z" fill="#222121"/>
<path d="M203.038 307.571C203.038 307.571 203.118 307.445 203.269 307.238C203.418 307.029 203.58 306.639 203.899 306.356C204.036 306.204 204.198 306.048 204.369 305.874C204.498 305.674 204.759 305.583 204.949 305.412C205.351 305.066 205.868 304.92 206.379 304.692C206.91 304.582 207.424 304.398 207.96 304.458C208.208 304.489 208.455 304.409 208.697 304.48C208.942 304.522 209.167 304.571 209.368 304.607C209.803 304.687 210.119 304.868 210.377 304.948C210.63 305.052 210.765 305.115 210.765 305.115C210.765 305.115 210.647 305.014 210.421 304.832C210.21 304.711 209.921 304.359 209.47 304.208C209.258 304.12 209.033 304.046 208.771 303.941C208.521 303.823 208.232 303.845 207.949 303.804C207.35 303.71 206.753 303.873 206.132 303.974C205.587 304.241 205.01 304.461 204.581 304.887C204.358 305.074 204.127 305.217 203.979 305.481C203.838 305.704 203.701 305.924 203.547 306.125C203.266 306.507 203.266 306.939 203.159 307.17C203.082 307.436 203.038 307.577 203.038 307.577V307.571Z" fill="#222121"/>
<path d="M209.858 306.292C210.333 307.799 209.497 309.402 207.996 309.872C206.486 310.345 204.889 309.498 204.421 308.005C203.948 306.501 204.779 304.906 206.283 304.425C207.782 303.958 209.382 304.788 209.858 306.292Z" fill="#222121"/>
<path d="M240.372 295.937C240.848 297.424 240.012 299.027 238.519 299.506C237.017 299.979 235.409 299.14 234.936 297.642C234.463 296.132 235.296 294.529 236.803 294.061C238.312 293.588 239.896 294.43 240.372 295.937Z" fill="#222121"/>
<path d="M241.035 287.69C241.035 287.69 240.278 287.168 239.071 286.758C237.859 286.34 236.107 286.013 234.328 286.189C233.44 286.269 232.546 286.433 231.746 286.758C230.951 287.041 230.244 287.451 229.714 287.874C229.178 288.292 228.806 288.708 228.567 289.035C228.311 289.34 228.21 289.535 228.21 289.535C227.984 289.912 228.113 290.396 228.493 290.624C228.674 290.731 228.883 290.759 229.087 290.707L229.205 290.687C229.205 290.687 229.409 290.638 229.719 290.517C230.03 290.399 230.448 290.22 230.968 290.071C231.204 289.959 231.482 289.887 231.771 289.807C232.048 289.703 232.351 289.615 232.67 289.541C232.972 289.442 233.294 289.376 233.632 289.31C233.951 289.219 234.303 289.167 234.658 289.115C235.351 289.021 236.06 288.966 236.745 288.958C237.427 288.944 238.065 288.958 238.626 288.988C239.767 289.04 240.498 289.109 240.498 289.109L240.523 289.115C240.952 289.15 241.34 288.831 241.373 288.402C241.4 288.114 241.268 287.847 241.04 287.693L241.035 287.69Z" fill="#222121"/>
<path d="M197.635 302.066C197.635 302.066 197.874 301.183 198.562 300.091C199.227 298.994 200.363 297.636 201.845 296.624C202.595 296.126 203.387 295.678 204.204 295.417C205.01 295.134 205.804 295.007 206.484 295.002C207.16 294.977 207.713 295.057 208.109 295.156C208.488 295.241 208.694 295.323 208.694 295.323C209.104 295.466 209.324 295.92 209.178 296.335C209.104 296.541 208.958 296.693 208.777 296.783L208.667 296.838C208.667 296.838 208.474 296.929 208.169 297.034C207.85 297.138 207.408 297.27 206.913 297.471C206.665 297.548 206.404 297.652 206.126 297.782C205.846 297.881 205.562 298.01 205.276 298.158C204.966 298.266 204.683 298.422 204.38 298.587C204.067 298.722 203.761 298.917 203.473 299.093C202.868 299.459 202.29 299.869 201.757 300.3C201.223 300.718 200.726 301.136 200.316 301.519C199.48 302.297 198.96 302.814 198.96 302.814L198.946 302.827C198.639 303.124 198.138 303.124 197.836 302.822C197.624 302.618 197.558 302.322 197.638 302.066H197.635Z" fill="#222121"/>
<path d="M238.634 302.489C238.967 303.512 241.15 303.741 243.529 302.993C245.913 302.247 247.582 300.807 247.26 299.773C246.938 298.753 244.741 298.524 242.368 299.275C239.976 300.017 238.312 301.461 238.634 302.492V302.489Z" fill="#8F584A"/>
<path d="M201.886 314.311C202.205 315.342 204.399 315.57 206.781 314.814C209.148 314.063 210.831 312.625 210.506 311.602C210.168 310.568 207.988 310.351 205.604 311.093C203.228 311.849 201.567 313.288 201.886 314.311Z" fill="#8F584A"/>
<path d="M225.54 328.335C224.074 328.335 222.713 327.842 221.547 326.899C221.33 326.718 221.302 326.402 221.47 326.187C221.651 325.964 221.979 325.929 222.19 326.105C223.408 327.1 224.822 327.479 226.392 327.254C229.175 326.842 231.809 324.578 233.189 322.522C233.352 322.285 233.671 322.219 233.899 322.373C234.138 322.533 234.199 322.849 234.039 323.083C232.639 325.159 229.835 327.771 226.546 328.26C226.205 328.313 225.864 328.335 225.542 328.335H225.54Z" fill="#8F584A"/>
<path d="M231.87 340.39C231.639 340.39 231.43 340.228 231.372 339.988C231.314 339.708 231.493 339.441 231.765 339.375C235.428 338.575 238.518 337.513 241.183 336.13C247.631 332.784 253.208 327.675 257.761 320.963C257.91 320.729 258.229 320.663 258.463 320.828C258.696 320.976 258.757 321.29 258.597 321.529C253.956 328.392 248.253 333.606 241.65 337.03C238.903 338.462 235.741 339.551 231.985 340.373L231.872 340.384L231.87 340.39Z" fill="#8F584A"/>
<path d="M213.374 260.063C209.913 262.532 207.946 267.617 208.738 271.697C209.327 274.706 211.298 279.864 209.379 282.774C208.276 284.423 205.912 284.478 205.032 286.326C204.264 287.905 204.702 290.104 204.069 291.864C202.738 295.522 199.406 296.154 197.657 299.302C196.455 301.456 196.807 306.419 194.14 306.446C190.912 306.49 187.252 301.475 185.805 298.951C183.974 295.758 181.87 292.321 182.516 288.57C183.424 283.351 187.43 277.909 190.23 273.496C194.451 266.847 200.222 261.856 207.009 257.863C211.177 255.408 214.12 255.559 218.277 256.846L213.377 260.063H213.374Z" fill="#222121"/>
<path d="M224.486 273.501C225.952 274.851 225.705 276.413 227.841 277.288C230.008 278.176 231.864 277.139 234.025 277.073C239.415 276.925 238.095 282.51 242.049 283.477C243.713 283.887 244.601 282.309 246.336 282.977C247.835 283.557 247.81 285.078 248.8 286.068C250.618 287.885 250.871 287.03 252.955 286.717C253.917 286.571 255.941 286.893 256.695 286.497C260.588 284.478 256.62 275.462 255.548 272.979C253.626 268.565 249.996 264.705 246.314 261.729C242.706 258.806 237.98 257.368 233.789 255.424C226.62 252.094 215.2 252.034 209.33 257.979C204.828 262.532 206.06 267.438 210.424 271.508C212.605 273.551 214.268 274.227 217.21 273.625C219.677 273.114 222.24 271.422 224.489 273.501H224.486Z" fill="#222121"/>
<path d="M230.486 312.243C231.053 312.21 231.003 311.344 230.437 311.371C229.873 311.404 229.92 312.284 230.486 312.243Z" fill="#8F584A"/>
<path d="M234.597 309.672C235.158 309.633 235.106 308.764 234.545 308.789C233.981 308.819 234.031 309.702 234.597 309.672Z" fill="#8F584A"/>
<path d="M242.585 307.007C243.155 306.983 243.1 306.108 242.536 306.138C241.961 306.171 242.019 307.051 242.585 307.007Z" fill="#8F584A"/>
<path d="M240.361 310.513C240.925 310.483 240.878 309.603 240.314 309.633C239.748 309.672 239.794 310.546 240.361 310.513Z" fill="#8F584A"/>
<path d="M234.696 313.989C235.249 313.951 235.21 313.079 234.647 313.109C234.083 313.142 234.127 314.014 234.696 313.989Z" fill="#8F584A"/>
<path d="M247.164 308.962C247.727 308.924 247.683 308.055 247.112 308.074C246.542 308.113 246.592 308.992 247.164 308.962Z" fill="#8F584A"/>
<path d="M216.935 316.233C217.499 316.208 217.444 315.328 216.886 315.353C216.317 315.392 216.369 316.263 216.935 316.233Z" fill="#8F584A"/>
<path d="M210.914 318.699C211.48 318.666 211.428 317.786 210.859 317.819C210.292 317.852 210.342 318.738 210.914 318.699Z" fill="#8F584A"/>
<path d="M205.997 322.494C206.563 322.469 206.514 321.589 205.942 321.619C205.378 321.647 205.425 322.521 205.997 322.494Z" fill="#8F584A"/>
<path d="M209.957 322.568C210.523 322.538 210.471 321.655 209.907 321.691C209.338 321.718 209.396 322.601 209.957 322.568Z" fill="#8F584A"/>
<path d="M214.87 319.942C215.434 319.907 215.385 319.038 214.818 319.063C214.257 319.093 214.304 319.973 214.87 319.942Z" fill="#8F584A"/>
<path d="M299.894 398.531L299.514 398.36C295.233 393.647 292.01 388.48 288.545 382.7C286.282 378.941 284.693 375.782 283.351 372.479C283.076 371.789 282.743 371.039 282.399 370.255C281.027 367.15 279.32 363.301 279.641 360.224C279.669 359.951 279.925 359.748 280.202 359.775C280.477 359.803 280.678 360.045 280.653 360.331C280.359 363.138 282.003 366.851 283.323 369.834C283.681 370.634 284.016 371.404 284.3 372.097C285.603 375.345 287.19 378.455 289.417 382.172C292.854 387.906 296.044 393.023 300.265 397.678C300.46 397.885 300.441 398.209 300.243 398.393L299.891 398.528L299.894 398.531Z" fill="#59759C"/>
<path d="M303.405 397.431L303.064 397.302C302.852 397.117 302.839 396.798 303.02 396.587C304.598 394.813 306.977 394.744 309.089 394.67L309.537 394.665C309.798 394.681 310.051 394.868 310.057 395.154C310.068 395.432 309.853 395.665 309.562 395.679L309.119 395.693C307.123 395.751 305.063 395.817 303.787 397.258L303.408 397.434L303.405 397.431Z" fill="#59759C"/>
<path d="M312.18 421.349C312.026 421.349 311.877 421.283 311.778 421.153C311.602 420.936 311.646 420.612 311.863 420.441C312.521 419.927 313.172 419.451 313.829 418.976C315.111 418.052 316.324 417.172 317.467 416.042C319.535 413.971 321.622 411.007 323.187 407.897C325.403 403.481 323.852 398.358 322.494 393.834C320.184 386.152 316.648 378.988 313.238 372.056C311.696 368.932 310.101 365.715 308.632 362.465C308.525 362.212 308.632 361.904 308.894 361.791C309.152 361.673 309.455 361.791 309.576 362.041C311.025 365.283 312.614 368.498 314.146 371.602C317.583 378.57 321.133 385.772 323.465 393.546C324.886 398.24 326.489 403.571 324.094 408.351C322.464 411.606 320.368 414.59 318.188 416.765C316.983 417.953 315.686 418.89 314.423 419.801C313.783 420.265 313.131 420.73 312.488 421.239L312.18 421.349Z" fill="#59759C"/>
<path d="M224.42 377.465L224.057 377.316C219.564 372.895 222.245 360.35 223.538 354.334L223.694 353.597C223.758 353.314 224.035 353.146 224.308 353.209C224.577 353.259 224.745 353.528 224.69 353.806L224.541 354.543C223.381 359.938 220.678 372.568 224.775 376.59C224.968 376.788 224.981 377.116 224.775 377.311L224.42 377.465Z" fill="#59759C"/>
<path d="M264.999 414.54L264.872 414.535C264.614 414.46 264.441 414.185 264.515 413.913C265.054 411.821 266.11 411.675 267.138 411.535C267.38 411.504 267.639 411.466 267.905 411.403C268.205 411.339 268.554 411.397 268.967 411.46C269.374 411.532 269.83 411.601 270.13 411.518C270.408 411.449 270.628 411.18 270.883 410.875C271.183 410.495 271.535 410.083 272.066 409.885C273.086 409.511 274.114 409.665 275.033 409.797C275.794 409.907 276.512 410.022 277.131 409.819C277.799 409.599 278.338 409.101 278.91 408.579C279.485 408.042 280.079 407.512 280.838 407.209C281.533 406.943 282.281 406.879 283.076 406.813C283.876 406.747 284.693 406.687 285.438 406.382C286.596 405.925 287.555 405.238 288.578 404.52C289.026 404.196 289.486 403.877 289.964 403.566C293.97 400.981 297.443 399.532 300.292 399.268C300.559 399.249 300.809 399.441 300.837 399.73C300.861 400.013 300.658 400.258 300.375 400.28C297.702 400.533 294.375 401.924 290.508 404.421C290.049 404.721 289.601 405.031 289.164 405.345C288.144 406.074 287.08 406.827 285.815 407.325C284.926 407.68 284.03 407.754 283.153 407.825C282.441 407.877 281.764 407.943 281.206 408.155C280.618 408.381 280.12 408.834 279.6 409.318C278.97 409.896 278.327 410.498 277.436 410.781C276.595 411.056 275.715 410.93 274.876 410.798C274.015 410.671 273.19 410.559 272.42 410.831C272.14 410.935 271.904 411.207 271.664 411.502C271.348 411.895 270.985 412.335 270.399 412.494C269.877 412.64 269.308 412.547 268.799 412.459C268.554 412.426 268.233 412.368 268.123 412.393C267.826 412.459 267.537 412.503 267.278 412.536C266.305 412.673 265.857 412.736 265.486 414.158C265.433 414.389 265.227 414.535 264.993 414.535L264.999 414.54Z" fill="#59759C"/>
<path d="M267.636 426.829L267.515 426.815C267.24 426.741 267.072 426.468 267.149 426.196C267.85 423.422 267.482 419.336 266.305 416.891C266.178 416.638 266.294 416.338 266.539 416.215C266.789 416.094 267.097 416.195 267.221 416.443C268.505 419.118 268.906 423.422 268.128 426.449C268.073 426.683 267.864 426.831 267.636 426.831V426.829Z" fill="#59759C"/>
<path d="M270.927 424.635C270.641 424.635 270.424 424.415 270.424 424.132C270.424 423.615 270.427 423.081 270.446 422.539C270.493 419.941 270.545 417.26 269.387 415.156C269.25 414.906 269.335 414.598 269.585 414.469C269.836 414.334 270.146 414.425 270.281 414.667C271.574 417.004 271.519 419.952 271.466 422.556C271.45 423.087 271.436 423.617 271.436 424.129C271.436 424.415 271.216 424.632 270.93 424.632L270.927 424.635Z" fill="#59759C"/>
<path d="M275.979 423.54L275.836 423.516C275.561 423.439 275.41 423.153 275.489 422.891C276.207 420.463 275.597 416.075 274.227 413.867C274.079 413.627 274.158 413.311 274.389 413.154C274.623 413.017 274.939 413.088 275.091 413.328C276.606 415.778 277.266 420.483 276.463 423.177C276.402 423.392 276.199 423.54 275.976 423.54H275.979Z" fill="#59759C"/>
<path d="M269.83 406.428L269.509 406.321C266.371 403.698 262.752 401.539 259.263 399.466C255.817 397.403 252.254 395.292 249.089 392.696C243.76 388.321 239.528 383.412 235.398 376.791C235.246 376.555 235.31 376.238 235.552 376.093C235.794 375.939 236.11 376.01 236.258 376.249C240.339 382.775 244.494 387.603 249.746 391.912C252.839 394.458 256.376 396.551 259.783 398.586C263.311 400.681 266.954 402.853 270.166 405.526C270.38 405.708 270.408 406.032 270.229 406.252L269.833 406.428H269.83Z" fill="#59759C"/>
<path d="M283.651 399.411C283.494 399.411 283.321 399.331 283.233 399.18C281.762 396.974 279.438 395.206 277.183 393.498C273.949 391.048 270.603 388.508 269.555 384.551C269.484 384.27 269.654 383.995 269.924 383.926C270.193 383.852 270.474 384.017 270.545 384.289C271.497 387.908 274.557 390.232 277.799 392.682C280.123 394.444 282.523 396.268 284.08 398.619C284.236 398.852 284.165 399.169 283.942 399.32L283.651 399.411Z" fill="#59759C"/>
<path d="M331.329 414.216C329.998 414.216 328.722 414.078 327.661 413.877C327.375 413.822 327.21 413.558 327.254 413.278C327.312 413.003 327.578 412.827 327.856 412.871C330.6 413.41 334.783 413.446 337.544 411.779C340.838 409.81 342.367 403.643 340.472 400.007C340.346 399.757 340.434 399.449 340.689 399.325C340.937 399.188 341.242 399.284 341.371 399.537C343.53 403.659 341.819 410.402 338.069 412.659C336.163 413.811 333.653 414.213 331.332 414.213L331.329 414.216Z" fill="#59759C"/>
<path d="M329.729 409.277L329.418 409.17C329.193 409.002 329.157 408.683 329.333 408.46C330.741 406.662 331.535 404.196 331.412 401.987C331.403 401.712 331.618 401.473 331.904 401.462C332.182 401.418 332.421 401.66 332.44 401.941C332.566 404.377 331.689 407.11 330.136 409.087C330.031 409.217 329.885 409.277 329.731 409.277H329.729Z" fill="#59759C"/>
<path d="M350.795 400.948L350.393 400.742C350.217 400.522 350.258 400.203 350.481 400.027C353.08 398.025 353.558 395.415 354.081 392.633C354.339 391.244 354.6 389.795 355.148 388.401C355.252 388.139 355.544 388.005 355.813 388.115C356.074 388.208 356.201 388.508 356.094 388.766C355.588 390.081 355.326 391.475 355.079 392.817C354.551 395.66 354.004 398.591 351.105 400.841L350.792 400.948H350.795Z" fill="#31427A"/>
<path d="M435.488 320.204L435.185 320.113C431.894 317.778 425.251 315.939 421.266 316.247C420.991 316.288 420.741 316.062 420.722 315.785C420.691 315.502 420.903 315.254 421.189 315.235C425.448 314.905 432.271 316.791 435.785 319.28C436.016 319.436 436.068 319.758 435.906 319.992C435.807 320.124 435.653 320.204 435.488 320.204Z" fill="#31427A"/>
<path d="M391.167 360.79L391.046 360.771C388.816 360.205 386.105 360.26 383.479 360.309C381.386 360.35 379.216 360.397 377.281 360.119C376.764 360.042 376.216 359.976 375.628 359.902C371.693 359.396 366.312 358.695 363.43 356.517C363.21 356.347 363.166 356.03 363.339 355.805C363.507 355.577 363.831 355.533 364.049 355.706C366.71 357.716 371.943 358.398 375.757 358.898C376.346 358.973 376.898 359.036 377.424 359.105C379.28 359.366 381.4 359.336 383.459 359.286C386.151 359.231 388.94 359.176 391.293 359.787C391.571 359.855 391.731 360.136 391.665 360.405C391.601 360.639 391.401 360.787 391.17 360.787L391.167 360.79Z" fill="#31427A"/>
<path d="M403.236 363.859L402.903 363.741C401.272 362.385 398.847 360.642 396.787 361.208C396.515 361.28 396.235 361.126 396.161 360.845C396.084 360.581 396.251 360.295 396.515 360.229C399.034 359.525 401.754 361.453 403.566 362.957C403.783 363.138 403.805 363.457 403.632 363.672L403.236 363.853V363.859Z" fill="#31427A"/>
<path d="M356.503 325.247L356.113 325.062C355.926 324.851 355.962 324.537 356.171 324.35C360.826 320.358 365.951 316.351 372.864 315.023C373.134 314.968 373.403 315.15 373.456 315.422C373.511 315.702 373.335 315.969 373.06 316.027C366.391 317.308 361.39 321.227 356.836 325.131L356.503 325.249V325.247Z" fill="#31427A"/>
<defs>
<filter id="filter0_f_305_2280" x="80.0547" y="71.1377" width="483.852" height="466.806" filterUnits="userSpaceOnUse" color-interpolation-filters="sRGB">
<feFlood flood-opacity="0" result="BackgroundImageFix"/>
<feBlend mode="normal" in="SourceGraphic" in2="BackgroundImageFix" result="shape"/>
<feGaussianBlur stdDeviation="35" result="effect1_foregroundBlur_305_2280"/>
</filter>
</defs>
</svg>
