<svg width="624" height="565" viewBox="0 0 624 565" fill="none" xmlns="http://www.w3.org/2000/svg">
<g filter="url(#filter0_f_305_1059)">
<path d="M257.688 171.275C257.688 171.275 181.608 200.016 175.737 240.756C169.867 281.494 187.548 316.174 164.554 340.967C141.557 365.76 110.052 464.582 232.616 490.748C310.742 507.427 348.208 457.944 376.399 410.646C392.62 383.433 450.947 380.141 476.388 336.662C526.64 250.77 388.194 145.226 257.688 171.276L257.688 171.275Z" fill="#BAF5F3"/>
</g>
<path d="M296.416 487.548C288.91 474.487 285.93 425.785 287.451 417.324C290.975 397.685 325.78 395.671 349.951 395.671C374.122 395.671 408.93 397.685 412.453 417.324C413.972 425.785 410.992 474.487 403.485 487.548H296.416Z" fill="#4C4C4D"/>
<path d="M255.516 269.791C256.357 291.506 253.884 309.841 241.027 323.169C228.169 336.494 247.233 345.343 259.371 329.894C217.601 380.933 231.271 426.419 274.56 399.73C258.64 454.015 355.279 482.914 388.194 403.806C393.701 434.164 449.063 434.79 420.161 346.258C432.939 365.39 447.496 353.241 431.081 324.008C418.025 300.757 430.293 280.657 430.293 280.657L255.516 269.791Z" fill="#242425"/>
<path d="M293.391 416.324C293.391 416.324 260.173 435.781 223.198 463.629C223.314 469.147 218.357 472.931 210.808 476.58C206.27 480.84 202.44 482.948 201.177 480.868C199.86 478.71 205.287 474.413 206.468 473.149C206.216 473.24 199.01 477.792 197.316 478.679C193.478 480.747 191.005 477.311 194.022 474.948C196.537 472.951 202.613 468.781 202.922 468.549C202.559 468.643 194.424 472.26 192.931 472.94C188.538 474.977 185.668 470.388 190.656 467.96C194.044 466.309 200.103 463.629 200.545 463.249C200.265 463.162 195.319 464.045 192.347 464.357C187.464 464.853 186.365 460.768 191.772 459.233C196.027 458.057 206.092 454.686 206.092 454.686C206.092 454.686 200.171 450.44 202.548 447.208C204.961 443.967 215.065 451.695 215.065 451.695C215.065 451.695 256.173 421.737 287.151 405.698C292.014 412.018 293.391 416.326 293.391 416.326V416.324Z" fill="#FCC7A5"/>
<path d="M278.106 412.038C279.251 413.814 281.848 417.848 284.035 421.289C281.913 423.088 278.313 425.638 272.872 427.955C274.427 426.139 276.106 423.465 274.971 421.264C273.444 418.321 267.824 419.108 265.575 419.55C269.764 417.675 273.985 415.208 278.106 412.035V412.038Z" fill="#EBAD86"/>
<path d="M213.321 460.825C213.309 460.788 213.318 460.768 213.312 460.726C213.258 460.491 213.006 460.341 212.765 460.394C208.63 461.307 206.559 457.565 205.984 455.205C205.933 454.953 205.678 454.811 205.432 454.874C205.179 454.925 205.041 455.199 205.089 455.42C205.752 458.1 208.131 462.34 212.958 461.281C213.182 461.247 213.332 461.035 213.321 460.825Z" fill="#CE7755"/>
<path d="M361.015 398.835C361.015 398.835 350.566 393.827 344.019 391.088C344.164 384.125 346.404 376.576 346.404 376.576L333.912 373.859C333.912 373.859 331.652 385.026 331.298 389.555C321.842 390.878 309.268 391.799 309.268 391.799C309.268 391.799 299.688 419.848 331.887 422.213C340.365 422.83 360.984 412.089 361.015 398.838V398.835Z" fill="#FCC7A5"/>
<path d="M333.422 379.318L344.257 380.907C344.257 380.907 342.832 386.34 342.9 392.082C339.878 389.64 334.298 388.085 331.57 391.909C331.765 387.06 333.422 379.318 333.422 379.318Z" fill="#EBAD86"/>
<path d="M279.93 485.265C284.126 466.734 288.794 443.293 291.856 424.326C291.98 423.646 284.165 428.983 281.299 430.49C276.543 423.813 272.342 413.556 272.036 408.452C285.012 398.529 304.801 390.949 322.148 390.292C316.979 407.908 346.124 409.151 350.999 394.271C357.406 396.376 380.113 400.571 391.446 421.131C388.104 428.096 375.572 434.441 372.074 436.552C370.465 435.693 369.437 432.994 368.53 431.311C368.87 447.894 372.479 468.665 378.19 486.534C346.319 490.032 309.889 489.4 279.93 485.265Z" fill="#624EA0"/>
<path d="M373.955 436.495C375.754 439.971 377.717 467.294 374.122 469.572C371.473 471.249 349.843 465.943 341.192 463.839C332.496 461.723 314.359 473.11 315.54 475.138C316.724 477.166 325.836 473.781 326.511 473.107C325.123 477.11 331.289 475.09 332.473 474.413C331.329 477.6 344.878 476.22 347.583 475.883C360.078 482.614 374.269 483.809 380.351 483.554C391.376 483.089 391.687 451.355 384.617 429.422C380.317 432.124 373.952 436.492 373.952 436.492L373.955 436.495Z" fill="#FCC7A5"/>
<path d="M383.586 428.722C381.679 430.425 378.425 433.317 374.822 435.521C375.371 437.234 376.119 439.112 376.881 441.172C376.881 438.778 377.77 436.461 380.068 435.535C383.144 434.3 384.994 435.073 386.41 436.875C385.419 433.844 384.169 432.119 383.586 428.722Z" fill="#EBAD86"/>
<path d="M390.784 418.372C388.767 420.437 374.159 432.328 370.071 434.07C370.734 437.044 371.635 438.594 371.635 438.594C371.635 438.594 384.45 432.413 393.483 423.861C392.033 420.737 390.784 418.372 390.784 418.372Z" fill="white"/>
<path d="M325.324 390.062C322.772 395.739 323.834 402.339 332.847 403.625C343.798 405.186 348.43 396.246 348.931 393.257C351.571 393.73 354.707 394.943 354.707 394.943C354.707 394.943 351.894 412.879 330.683 409.123C314.687 406.29 316.854 394.127 318.599 390.476C321.687 389.985 325.327 390.065 325.327 390.065L325.324 390.062Z" fill="white"/>
<path opacity="0.1" d="M364.106 342.102C366.29 342.102 368.423 341.896 370.493 341.508L372.612 330.854L333.034 322.384C338.524 334.038 350.373 342.105 364.108 342.105L364.106 342.102Z" fill="white"/>
<path d="M430.31 238.422C404.647 190.943 342.144 168.463 296.391 197.654C262.96 218.981 275.676 232.974 275.676 232.974C275.676 232.974 249.646 226.76 241.616 258.797C238.973 269.349 243.851 309.088 264.45 310.555C264.45 310.555 313.081 312.728 340.77 312.909C368.085 317.441 421.858 324.053 421.858 324.053C451.289 287.979 439.364 255.177 430.308 238.424L430.31 238.422Z" fill="#242425"/>
<path d="M265.121 307.918C261.453 350.793 292.465 382.196 333.754 385.728C375.037 389.26 410.938 363.585 414.606 320.704C418.274 277.832 387.656 241.758 346.373 238.226C305.087 234.691 268.79 265.046 265.121 307.918Z" fill="#FCC7A5"/>
<path d="M268.073 308.496C268.073 308.496 267.815 299.7 257.436 297.284C246.491 294.746 240.435 308.801 245.406 318.155C250.38 327.494 262.711 329.038 267.317 322.673L268.073 308.493V308.496Z" fill="#FCC7A5"/>
<path d="M254.841 300.833C262.201 300.442 266.472 313.829 255.898 319.22C261.124 310.77 257.728 307.238 252.031 310.881C252.448 307.963 254.47 306.343 258.773 307.195C258.909 303.289 254.841 300.833 254.841 300.833Z" fill="#D48566"/>
<path d="M412.057 320.846C412.057 320.846 413.808 312.223 424.444 311.609C435.664 310.966 439.239 325.848 432.758 334.219C426.268 342.578 413.856 342.003 410.397 334.95L412.057 320.846Z" fill="#FCC7A5"/>
<path d="M426.402 315.544C419.212 313.906 412.731 326.376 422.238 333.483C418.524 324.268 422.47 321.365 427.461 325.92C427.549 322.976 425.832 321.033 421.447 321.141C421.977 317.271 426.402 315.544 426.402 315.544Z" fill="#D48566"/>
<path d="M336.011 310.532C336.354 315.081 347.554 321.251 342.776 326.336C339.816 329.483 333.774 328.1 334.357 321.299C334.694 317.359 336.011 310.532 336.011 310.532Z" fill="#F68F7A"/>
<path d="M310.393 335.748C310.013 340.159 303.034 343.159 294.799 342.453C286.565 341.748 280.197 337.601 280.576 333.193C280.956 328.783 287.936 325.783 296.17 326.489C304.405 327.194 310.772 331.341 310.393 335.748Z" fill="#F68F7A"/>
<path d="M395.072 343.009C394.693 347.419 387.713 350.419 379.478 349.714C371.244 349.008 364.876 344.861 365.256 340.454C365.632 336.043 372.615 333.043 380.847 333.749C389.081 334.454 395.449 338.601 395.072 343.012V343.009Z" fill="#F68F7A"/>
<path d="M358.916 341.428C353.443 337.046 350.73 342.966 337.728 341.808C324.454 340.624 323.16 334.08 316.339 338.479C310.775 342.068 313.265 365.364 335.043 367.024C356.984 368.681 364.125 345.598 358.916 341.428Z" fill="#612C2D"/>
<path d="M320.474 360.925C323.834 364.141 328.593 366.531 335.043 367.024C341.088 367.48 346.005 366.058 349.855 363.67C346.274 362.104 341.402 360.818 335.011 360.254C328.916 359.716 324.117 360.078 320.471 360.925H320.474Z" fill="#ED756D"/>
<path d="M356.885 340.205C352.56 338.477 349.03 342.816 337.728 341.808C326.287 340.788 323.743 335.791 318.891 337.247C318.438 343.465 327.683 348.878 336.889 349.581C346.013 350.269 356.435 346.366 356.885 340.205Z" fill="white"/>
<path d="M313.656 305.55C315.783 313.002 311.806 320.676 304.77 322.693C297.731 324.701 290.298 320.291 288.168 312.835C286.04 305.371 290.02 297.703 297.051 295.686C304.093 293.681 311.526 298.094 313.656 305.55Z" fill="white"/>
<path d="M308.77 306.943C310.081 311.541 307.628 316.274 303.291 317.518C298.952 318.758 294.366 316.036 293.051 311.439C291.74 306.836 294.193 302.108 298.53 300.862C302.872 299.624 307.455 302.346 308.77 306.943Z" fill="#231F20"/>
<path d="M299.844 306.742C299.697 308.136 298.51 309.145 297.204 309.003C295.895 308.861 294.955 307.629 295.097 306.238C295.247 304.853 296.425 303.842 297.731 303.966C299.042 304.119 299.991 305.357 299.844 306.742Z" fill="white"/>
<path d="M306.308 313.269C306.22 314.133 305.487 314.756 304.668 314.674C303.861 314.589 303.271 313.818 303.362 312.954C303.464 312.099 304.186 311.47 305.002 311.555C305.812 311.64 306.402 312.411 306.308 313.269Z" fill="white"/>
<path d="M287.261 302.014C287.261 302.014 298.901 290.678 312.631 300.7C299.785 284.07 287.261 302.014 287.261 302.014Z" fill="#734431"/>
<path d="M367.179 310.139C363.814 317.121 366.426 325.361 373.017 328.545C379.612 331.723 387.687 328.644 391.056 321.659C394.424 314.668 391.806 306.434 385.22 303.25C378.62 300.074 370.547 303.159 367.179 310.141V310.139Z" fill="white"/>
<path d="M371.757 312.346C369.68 316.651 371.292 321.733 375.357 323.696C379.424 325.656 384.404 323.755 386.483 319.45C388.56 315.136 386.945 310.06 382.886 308.097C378.815 306.139 373.836 308.04 371.759 312.346H371.757Z" fill="#231F20"/>
<path d="M380.589 313.668C380.495 315.065 381.492 316.26 382.804 316.345C384.118 316.427 385.251 315.377 385.351 313.98C385.441 312.589 384.453 311.391 383.141 311.295C381.824 311.221 380.677 312.28 380.586 313.668H380.589Z" fill="white"/>
<path d="M373.105 318.997C373.043 319.864 373.663 320.603 374.484 320.66C375.297 320.713 376.008 320.056 376.062 319.187C376.107 318.325 375.504 317.583 374.686 317.529C373.873 317.476 373.162 318.133 373.108 318.997H373.105Z" fill="white"/>
<path d="M393.789 311.15C393.789 311.15 384.252 297.998 369.015 305.536C384.506 291.335 393.789 311.15 393.789 311.15Z" fill="#734431"/>
<path d="M376.244 290.418C379.051 283.223 392.823 285.231 396.234 298.287C390.668 291.072 376.244 290.418 376.244 290.418Z" fill="#242425"/>
<path d="M308.081 284.574C306.54 277.008 292.626 276.642 287.043 288.925C293.757 282.764 308.081 284.574 308.081 284.574Z" fill="#242425"/>
<path d="M295.377 248.477C278.789 263.275 287.247 269.224 294.284 266.558C303.314 263.139 304.008 250.967 304.008 250.967C304.008 250.967 351.818 292.457 373.655 278.257C385.008 270.872 371.269 251.381 371.269 251.381C371.269 251.381 387.172 277.9 398.681 271.665C416.634 261.941 368.114 230.385 342.878 230.473C317.642 230.561 295.38 248.477 295.38 248.477H295.377Z" fill="#242425"/>
<path d="M381.002 276.895C362.494 275.337 346.172 289.132 344.614 307.64C344.543 308.485 344.515 309.326 344.506 310.164L334.354 309.309C334.487 308.485 334.598 307.652 334.669 306.805C336.224 288.293 322.432 271.972 303.923 270.417C285.417 268.861 269.093 282.651 267.535 301.159C265.977 319.668 279.772 335.993 298.28 337.548C314.121 338.879 328.349 328.967 333.105 314.478L344.878 315.47C347.144 330.545 359.52 342.695 375.357 344.026C393.865 345.581 410.19 331.792 411.745 313.28C413.3 294.769 399.508 278.45 381 276.895H381.002ZM375.802 338.788C360.177 337.477 348.54 323.702 349.854 308.079C351.166 292.46 364.944 280.818 380.563 282.132C396.183 283.441 407.825 297.219 406.51 312.841C405.199 328.46 391.421 340.103 375.802 338.788ZM298.725 332.31C283.103 330.999 271.464 317.223 272.775 301.601C274.089 285.982 287.865 274.343 303.487 275.654C319.109 276.968 330.748 290.744 329.434 306.363C328.122 321.985 314.347 333.622 298.725 332.31Z" fill="#624EA0"/>
<path d="M445.185 484.704H168.499V504.901H445.185V484.704Z" fill="#00B7C6"/>
<path d="M181.173 478.693C181.173 480.339 182.507 484.724 184.153 484.724H342.215C343.861 484.724 345.198 480.339 345.198 478.693C345.198 477.047 343.864 475.713 342.215 475.713H184.153C182.507 475.713 181.173 477.05 181.173 478.693Z" fill="#5D5E5E"/>
<path d="M180.892 389.087H309.812C317.684 389.087 316.412 394.838 316.412 394.838L320.341 476.92H182.379L174.289 394.838C174.289 394.838 173.7 389.087 180.889 389.087H180.892Z" fill="#787979"/>
<path d="M230.161 435.931C230.161 444.868 237.407 452.114 246.344 452.114C255.281 452.114 262.527 444.868 262.527 435.931C262.527 426.994 255.281 419.748 246.344 419.748C237.407 419.748 230.161 426.994 230.161 435.931Z" fill="#A3A2A2"/>
<path d="M211.887 390.79C212.431 390.609 230.6 457.224 236.46 476.917H229.812L201.454 389.938C201.454 389.938 211.25 391.003 211.887 390.787V390.79Z" fill="#878787"/>
<path d="M277.894 389.088L287.049 389.3L318.571 439.914L320.341 476.917H309.668C298.762 457.853 265.592 394.77 262.376 389.085H277.894V389.088Z" fill="#878787"/>
<path d="M310.982 391.22H179.722C177.08 391.22 175.479 391.988 174.505 392.965C174.981 391.286 176.448 389.087 180.895 389.087H309.815C314.531 389.087 315.962 391.15 316.356 392.804C315.37 391.903 313.721 391.22 310.985 391.22H310.982Z" fill="#959595"/>
<path d="M312.291 391.218C312.291 391.218 259.583 391.645 179.309 391.218C270.016 390.048 312.291 391.218 312.291 391.218Z" fill="#B1B0B0"/>
<path d="M570.289 416.466C566.015 416.265 560.984 415.701 560.233 415.33C557.001 413.729 561.61 410.14 563.207 406.908L578.764 375.48C577.626 375.52 576.696 375.483 576.045 375.46C575.915 375.46 575.804 375.455 575.708 375.452C572.102 375.37 569.249 372.381 569.332 368.778C569.411 365.172 572.399 362.32 576.005 362.399C576.153 362.402 576.328 362.407 576.527 362.416C578.722 362.501 576.328 361.107 580.702 356.691C582.951 354.419 593.486 355.671 596.092 357.532C598.698 359.391 599.57 362.872 598.151 365.741L576.699 412.857C575.473 415.336 572.892 416.59 570.289 416.466Z" fill="#EE3D96"/>
<path d="M559.599 415.548C558.805 415.48 558.018 415.268 557.262 414.897C554.035 413.296 552.71 409.381 554.31 406.147L569.867 374.718C568.728 374.758 567.799 374.724 567.15 374.698C567.023 374.696 566.913 374.69 566.816 374.687C563.21 374.605 560.355 371.619 560.437 368.011C560.516 364.405 563.505 361.552 567.108 361.634C567.261 361.634 567.434 361.643 567.638 361.651C569.83 361.733 574.396 361.903 578.77 357.49C581.022 355.213 584.597 354.909 587.203 356.771C589.809 358.629 590.681 362.107 589.259 364.98L567.139 412.041C565.913 414.514 562.205 415.775 559.604 415.551L559.599 415.548Z" fill="#EF58A0"/>
<path d="M578.796 358.484C582.62 354.717 589.109 356.79 589.931 362.266C589.988 360.153 589.019 358.062 587.197 356.765C584.591 354.904 581.019 355.207 578.765 357.484C574.391 361.9 569.825 361.73 567.632 361.645C567.431 361.64 567.255 361.631 567.103 361.628C564.576 361.572 562.355 362.963 561.222 365.039C565.499 359.521 571.23 365.928 578.79 358.481L578.796 358.484Z" fill="#F6A9CB"/>
<path d="M554.523 407.079C554.523 407.079 569.088 378.12 569.867 374.718L554.31 406.147C553.415 407.951 553.438 409.965 554.185 411.673C554.217 410.758 554.092 407.948 554.523 407.079Z" fill="#F6A9CB"/>
<path d="M588.815 365.696L566.969 412.299C572.195 402.535 578.053 393.212 588.815 365.696Z" fill="#F6A9CB"/>
<path d="M30.4981 287.461C28.4472 287.223 26.7703 285.725 26.2548 283.728C24.8526 278.286 29.0251 268.876 32.9483 261.995C33.7273 260.627 34.5346 259.336 35.3164 258.089C37.3758 254.798 39.319 251.69 39.1745 249.438C39.1235 248.611 38.7638 248.302 38.5003 248.141C38.0301 247.858 37.186 247.71 36.2115 248.141C34.1522 249.056 38.5145 249.639 38.5117 249.665C38.2879 252.073 30.7077 256.339 27.909 255.353C25.5608 254.526 23.8243 252.226 24.2577 249.175C24.5127 247.373 26.4105 243.294 31.7444 239.983C35.3986 237.714 41.0412 236.244 42.1176 236.329C46.2193 236.663 40.0441 238.53 43.1742 240.425C46.123 242.209 47.9501 245.283 48.1795 248.855C48.5081 254.004 45.6896 258.511 42.9646 262.865C42.2338 264.035 41.4746 265.244 40.7863 266.454C39.4124 268.867 38.0414 271.437 37.0217 273.966C39.6221 273.813 41.4916 273.366 45.5678 268.822C48.2135 265.87 54.2697 263.324 56.2498 264.831C58.2298 266.341 58.193 270.335 56.7625 272.371C49.2842 283.022 40.9137 282.764 37.5599 282.966C36.9962 283 36.2342 283.045 35.9594 283.13C35.8745 283.223 40.5087 282.391 39.9082 283.243C37.7015 286.37 32.835 287.727 30.5037 287.455L30.4981 287.461Z" fill="#005A9D"/>
<path d="M43.1713 237.603C43.1203 237.572 43.0665 237.535 43.0127 237.504C42.3612 237.108 42.1147 236.717 42.0921 236.337C40.9675 236.269 35.373 237.734 31.7416 239.991C26.6399 243.158 24.6854 247.025 24.3002 248.934C24.4673 250.855 25.9828 253.226 27.7107 253.832C29.1667 254.344 30.77 252.82 30.1893 251.435C28.0789 246.402 31.6084 243.048 32.4101 242.512C32.9596 242.144 37.37 247.832 37.8176 247.906C38.1292 247.495 38.3218 247.101 38.3558 246.747C38.3558 246.722 33.9964 246.135 36.0557 245.22C37.033 244.787 37.8799 244.934 38.3473 245.22C38.6108 245.379 44.3979 242.107 44.4517 242.934C44.4885 243.498 48.1738 248.863 43.5877 251.008C43.701 246.419 39.1405 248.877 39.1745 249.444C39.3189 251.696 37.3757 254.803 35.3164 258.095C34.5374 259.341 33.7273 260.63 32.9483 262.001C29.7389 267.632 26.3623 274.958 26.0083 280.413C26.0338 280.546 26.0621 280.677 26.0961 280.807C26.6116 282.804 28.6001 285.654 30.3394 284.543C32.5942 283.102 28.7389 276.467 35.0048 266.208C35.5486 265.315 35.7129 280.311 35.7979 280.218C36.0727 280.133 36.8347 280.085 37.3984 280.054C40.7551 279.852 49.1256 280.11 56.601 269.459C57.0825 268.774 57.4026 267.873 57.5471 266.913C57.3063 266.069 56.8786 265.329 56.2469 264.845C54.2668 263.335 48.2106 265.885 45.5649 268.836C41.4887 273.38 39.6192 273.825 37.0188 273.98C37.4324 272.952 37.9083 271.915 38.4153 270.887C37.9111 270.981 37.404 271.023 36.8658 271.057C37.8799 268.525 39.2509 265.955 40.6276 263.545C41.3159 262.338 42.0723 261.126 42.8059 259.956C45.2392 256.067 47.7461 252.056 48.0208 247.577C47.4798 244.563 45.7604 242.008 43.1742 240.442C41.4689 239.411 42.5255 238.385 43.1742 237.615L43.1713 237.603Z" fill="#0068AD"/>
<path d="M38.5116 249.67C38.5116 249.67 38.4294 249.653 38.2963 249.628C38.0357 250.237 37.7128 250.869 37.353 251.523C38.0244 250.866 38.4606 250.22 38.5116 249.668V249.67Z" fill="#0068AD"/>
<path d="M38.5569 284.359C37.8148 284.713 36.9678 284.872 36.1067 284.773C34.0558 284.543 32.4214 282.948 32.1438 280.903C31.1438 273.564 34.6337 266.185 38.5569 259.307C39.3359 257.939 40.146 256.647 40.925 255.401C42.9815 252.109 44.9275 249.002 44.7831 246.75C44.7293 245.923 44.3723 245.614 44.1061 245.453C43.6387 245.169 42.7917 245.022 41.8173 245.453C39.758 246.367 38.8997 248.974 38.8912 249.002C38.2283 251.401 35.7497 252.812 33.3477 252.149C30.9484 251.489 29.5377 249.008 30.1977 246.608C30.3847 245.94 32.1381 240.096 37.8006 237.379C37.9167 237.323 38.0357 237.269 38.1547 237.215C41.6728 235.652 45.6414 235.847 48.7686 237.742C51.7203 239.527 53.5445 242.6 53.7739 246.172C54.1054 251.322 51.2869 255.826 48.559 260.182C47.8282 261.352 47.069 262.565 46.3807 263.771C45.004 266.185 43.6359 268.754 42.6189 271.286C45.2193 271.131 47.4628 270.995 51.1651 266.142C52.672 264.162 55.5019 263.78 57.4819 265.29C59.4619 266.797 59.8443 269.626 58.3373 271.606C52.131 279.75 46.5138 280.087 43.1571 280.286C42.5934 280.32 41.8315 280.365 41.5595 280.45C41.4745 280.543 41.1913 280.906 40.8259 281.886C40.4038 283.002 39.5738 283.872 38.5541 284.362L38.5569 284.359Z" fill="#0088CE"/>
<path d="M38.5569 284.359C37.8148 284.713 36.9678 284.872 36.1067 284.773C34.0558 284.543 32.4214 282.948 32.1438 280.903C31.1438 273.564 34.6337 266.185 38.5569 259.307C39.3359 257.939 40.146 256.647 40.925 255.401C42.9815 252.109 44.9275 249.002 44.7831 246.75C44.7293 245.923 44.3723 245.614 44.1061 245.453C43.6387 245.169 42.7917 245.022 41.8173 245.453C39.758 246.367 38.8997 248.974 38.8912 249.002C38.2283 251.401 35.7497 252.812 33.3477 252.149C30.9484 251.489 29.5377 249.008 30.1977 246.608C30.3847 245.94 32.1381 240.096 37.8006 237.379C37.9167 237.323 38.0357 237.269 38.1547 237.215C41.6728 235.652 45.6414 235.847 48.7686 237.742C51.7203 239.527 53.5445 242.6 53.7739 246.172C54.1054 251.322 51.2869 255.826 48.559 260.182C47.8282 261.352 47.069 262.565 46.3807 263.771C45.004 266.185 43.6359 268.754 42.6189 271.286C45.2193 271.131 47.4628 270.995 51.1651 266.142C52.672 264.162 55.5019 263.78 57.4819 265.29C59.4619 266.797 59.8443 269.626 58.3373 271.606C52.131 279.75 46.5138 280.087 43.1571 280.286C42.5934 280.32 41.8315 280.365 41.5595 280.45C41.4745 280.543 41.1913 280.906 40.8259 281.886C40.4038 283.002 39.5738 283.872 38.5541 284.362L38.5569 284.359Z" fill="#0088CE"/>
<path d="M51.1708 266.14C47.4685 270.995 45.2279 271.128 42.6247 271.284C43.0467 270.239 43.5283 269.185 44.0438 268.14L31.988 279.116C32.0135 279.714 32.0617 280.306 32.1438 280.903C32.4214 282.949 34.0559 284.543 36.1067 284.773C36.9678 284.872 37.8148 284.713 38.557 284.359C39.5796 283.869 40.4095 283 40.8288 281.884C41.197 280.903 41.4774 280.544 41.5624 280.447C41.8372 280.362 42.5963 280.317 43.16 280.283C44.4829 280.204 46.157 280.105 48.0804 279.513L56.2866 264.633C54.4822 263.981 52.3945 264.536 51.1708 266.142V266.14Z" fill="#009BDD"/>
<path d="M48.7744 237.742C48.1767 237.38 47.545 237.079 46.8935 236.841L31.8634 251.427C32.2968 251.75 32.7982 251.999 33.3505 252.152C35.7498 252.815 38.2312 251.404 38.8941 249.005C38.8997 248.976 39.7608 246.37 41.8202 245.455C42.7946 245.022 43.6416 245.169 44.109 245.455C44.3752 245.614 44.7322 245.926 44.786 246.753C44.9304 249.005 42.9844 252.112 40.9279 255.404C40.1489 256.653 39.3388 257.942 38.5598 259.31C37.4551 261.245 36.3843 263.222 35.441 265.225L53.7853 246.169C53.553 242.597 51.7317 239.527 48.78 237.742H48.7744Z" fill="#009BDD"/>
<path d="M51.8846 266.57C53.4227 264.825 55.8871 264.199 58.4733 266.321C58.2071 265.936 57.8813 265.584 57.4904 265.29C55.5104 263.78 52.6834 264.162 51.1736 266.142C48.4542 269.712 46.5988 271.301 42.6274 271.287C43.1458 271.822 44.9021 272.057 46.4742 271.36C48.5307 270.451 49.6723 269.088 51.8846 266.573V266.57Z" fill="#63CDF6"/>
<path d="M30.9257 247.452C31.1098 246.784 32.6083 240.903 38.2708 238.187C38.3869 238.13 38.7977 237.855 38.9195 237.802C42.4376 236.238 47.0294 237.15 50.1566 239.045C50.5164 239.263 50.8591 239.501 51.1849 239.753C50.4994 238.974 49.6921 238.294 48.7771 237.742C45.6499 235.847 41.6813 235.652 38.1632 237.215C38.0442 237.269 37.9252 237.323 37.8091 237.379C32.1466 240.096 30.3903 245.937 30.2062 246.608C29.6595 248.6 30.5348 250.645 32.2202 251.665C31.4951 250.605 30.566 248.787 30.9314 247.452H30.9257Z" fill="#63CDF6"/>
<path d="M32.8378 281.218C31.3507 273.963 35.0445 267.477 38.9677 260.596C39.7495 259.228 41.3471 256.928 42.1261 255.681C44.1854 252.393 46.157 247.852 44.5707 245.968C45.2873 248.722 42.9787 252.107 40.9222 255.398C40.1432 256.647 39.3331 257.936 38.5541 259.304C34.6309 266.185 31.1411 273.564 32.141 280.901C32.3279 282.28 33.1381 283.458 34.2711 284.147C33.8831 283.58 33.1721 282.869 32.835 281.218H32.8378Z" fill="#63CDF6"/>
<path d="M109.249 476.523L112.107 473.246L142.776 473.869L140.051 476.849L109.249 476.523Z" fill="#48484A"/>
<path d="M112.107 473.246L142.776 473.869C142.776 473.869 136.088 474.119 127.14 473.912C118.673 473.716 112.107 473.249 112.107 473.249V473.246Z" fill="#8D8E92"/>
<path d="M142.776 473.869L116.24 425.094L88.8904 421.802L112.107 473.246L142.776 473.869Z" fill="#545456"/>
<path d="M137.091 468.926L114.381 426.575L92.4142 423.927L112.806 468.026L137.091 468.926Z" fill="#00B7C6"/>
<path d="M118.645 434.512L103.697 448.339L100.592 441.611L98.5327 437.158C102.099 435.646 112.894 431.065 116.056 429.688L118.647 434.515L118.645 434.512Z" fill="#9FDAE0"/>
<path d="M108.396 458.5L106.218 453.783C109.249 451.2 118.438 443.348 121.809 440.427L125.157 446.659L108.396 458.5Z" fill="#9FDAE0"/>
<path d="M109.249 476.524L112.107 473.246L88.8904 421.802L86.4005 425.252L109.249 476.524Z" fill="#414042"/>
<path d="M100.906 447.259C103.816 453.706 112.11 473.246 112.11 473.246L88.8932 421.802C88.8932 421.802 98.0115 440.841 100.909 447.259H100.906Z" fill="#8D8E92"/>
<path d="M115.2 469.533C114.347 468.776 113.146 468.737 112.526 469.442C111.903 470.147 112.098 471.326 112.954 472.085C113.809 472.841 115.007 472.878 115.634 472.175C116.251 471.476 116.064 470.289 115.203 469.533H115.2Z" fill="#414042"/>
<path d="M114.84 469.935C114.263 469.422 113.444 469.394 113.016 469.873C112.603 470.354 112.724 471.164 113.311 471.68C113.9 472.195 114.719 472.224 115.138 471.739C115.56 471.261 115.435 470.451 114.843 469.935H114.84Z" fill="#9B9DA0"/>
<path d="M350.99 89.0928C351.214 89.1239 351.444 89.0843 351.656 88.971C352.2 88.6877 352.415 88.0164 352.129 87.4725L320.185 24.6499C319.899 24.106 319.231 23.8935 318.684 24.1768C318.137 24.4629 317.925 25.1314 318.211 25.6781L350.152 88.5008C350.325 88.8322 350.645 89.0446 350.99 89.09V89.0928Z" fill="#656668"/>
<path d="M350.883 89.9198C351.268 89.9736 351.67 89.9113 352.041 89.7187C352.993 89.223 353.37 88.0446 352.874 87.0843L332.876 48.6593C332.377 47.7047 331.202 47.3365 330.247 47.8265C329.289 48.3279 328.921 49.5034 329.417 50.4581L349.413 88.8887C349.716 89.4722 350.277 89.8376 350.886 89.9198H350.883Z" fill="#EF58A0"/>
<path d="M301.323 8.24609L303.189 10.7502L298.091 32.1905L296.408 29.8253L301.323 8.24609Z" fill="#48484A"/>
<path d="M303.189 10.75L298.091 32.1904C298.091 32.1904 298.932 27.457 300.436 21.2053C301.861 15.2907 303.189 10.75 303.189 10.75Z" fill="#8D8E92"/>
<path d="M298.091 32.1906L336.368 20.9761L342.838 2.2749L303.189 10.7502L298.091 32.1906Z" fill="#545456"/>
<path d="M302.427 28.9498L335.609 19.4435L340.81 4.42188L306.747 12.0389L302.427 28.9498Z" fill="#CBEBF4"/>
<path d="M329.394 21.231L321.959 8.63421L327.157 7.47849L330.598 6.70801C331.119 9.44152 332.692 17.7185 333.176 20.1461L329.397 21.2339L329.394 21.231Z" fill="#E9F7FD"/>
<path d="M314.109 10.3877L317.749 9.57471C319.106 12.0986 323.222 19.7411 324.76 22.5511L319.874 23.9533L314.109 10.3877Z" fill="#E9F7FD"/>
<path d="M301.323 8.24586L303.189 10.7499L342.838 2.27462L340.796 0L301.323 8.24586Z" fill="#414042"/>
<path d="M323.137 6.83831C318.168 7.89773 303.189 10.753 303.189 10.753L342.838 2.2749C342.838 2.2749 328.083 5.78173 323.137 6.83831Z" fill="#8D8E92"/>
<path d="M305.328 13.4865C305.988 13.0049 306.198 12.1665 305.798 11.6254C305.402 11.0816 304.541 11.0391 303.875 11.5206C303.212 12.0079 303.005 12.8435 303.405 13.3874C303.804 13.9284 304.66 13.9794 305.328 13.4865Z" fill="#414042"/>
<path d="M305.096 13.175C305.546 12.8464 305.694 12.2798 305.419 11.9031C305.141 11.5377 304.558 11.5037 304.102 11.8323C303.654 12.1665 303.51 12.7387 303.781 13.1041C304.056 13.4752 304.643 13.512 305.093 13.1721L305.096 13.175Z" fill="#9B9DA0"/>
<path d="M346.665 12.6962L363.536 7.10449L364.431 14.3448L346.665 12.6962Z" fill="#FFD200"/>
<path d="M351.999 22.9873L369.491 26.1316L366.819 32.9243L351.999 22.9873Z" fill="#FFD200"/>
<path d="M292.015 20.2676L283.415 35.8217L277.84 31.1082L292.015 20.2676Z" fill="#FFD200"/>
<path d="M301.272 36.2808L301.204 54.0557L294.051 52.6025L301.272 36.2808Z" fill="#FFD200"/>
<path d="M6.94167 237.986C21.3117 219.638 43.007 215.27 62.1558 211.418C85.7518 206.67 106.13 202.569 106.229 173.761C106.334 143.992 116.37 137.31 122.341 135.979C122.911 135.851 123.494 135.761 124.08 135.71C133.595 134.86 144.269 143.859 151.277 158.64C151.654 159.436 151.314 160.388 150.518 160.767C150.348 160.847 150.164 160.898 149.977 160.915C149.314 160.974 148.676 160.609 148.39 160.008C142.062 146.658 132.4 138.171 124.341 138.894C123.902 138.933 123.46 139.001 123.035 139.097C114.452 141.012 109.489 153.652 109.422 173.772C109.314 205.189 86.7121 209.735 62.7847 214.551C44.1826 218.293 23.102 222.536 9.45424 239.957C1.3755 250.274 1.12623 263.689 8.76873 276.762C16.7823 290.466 34.3476 303.496 52.4171 301.882C53.1366 301.817 53.8618 301.729 54.5728 301.621C71.5489 299.021 84.1797 283.271 90.1368 257.273C96.1279 231.113 113.486 213.092 137.759 207.823C140.436 207.243 143.187 206.823 145.934 206.577C165.811 204.801 185.034 212.002 194.908 224.921C203.395 236.022 203.942 250.072 196.452 264.482C196.2 264.969 195.724 265.289 195.177 265.338C194.874 265.366 194.571 265.304 194.299 265.165C193.92 264.967 193.642 264.635 193.515 264.227C193.387 263.822 193.424 263.389 193.622 263.012C202.449 246.027 197.815 233.977 192.373 226.862C183.147 214.789 165.044 208.073 146.257 209.752C143.632 209.988 141 210.39 138.436 210.945C115.424 215.939 98.9548 233.088 93.2527 257.987C86.984 285.348 73.4213 301.967 55.06 304.78C54.2895 304.898 53.502 304.992 52.7231 305.063C49.7233 305.332 46.6413 305.238 43.5622 304.788C28.8834 302.641 14.1451 292.271 6.01822 278.374C-2.31828 264.111 -1.9812 249.393 6.95017 237.991L6.94167 237.986Z" fill="#EF58A0"/>
<path d="M188.566 259.579C187.957 263.751 190.843 267.632 195.016 268.244C199.194 268.856 203.072 265.967 203.681 261.791C204.293 257.616 201.404 253.738 197.228 253.126C193.053 252.514 189.175 255.404 188.563 259.579H188.566Z" fill="#624EA0"/>
<path d="M139.139 153.252C138.53 157.428 141.416 161.308 145.595 161.92C149.767 162.532 153.648 159.643 154.26 155.467C154.872 151.292 151.985 147.411 147.807 146.8C143.632 146.188 139.754 149.077 139.142 153.252H139.139Z" fill="#624EA0"/>
<path d="M45.0551 334.837C45.1655 334.814 45.2817 334.8 45.395 334.8C46.14 334.8 46.7971 335.327 46.9558 336.058C47.1427 336.919 46.5932 337.769 45.7321 337.956C30.4329 341.29 19.7 349.502 19.6291 357.926C19.5555 366.719 30.7445 374.409 50.3295 379.029C80.908 386.238 80.2253 409.285 79.503 433.683C78.9421 452.647 78.3076 474.141 92.1905 491.372C97.9691 498.542 106.062 502.332 115.597 502.332C119.543 502.332 123.678 501.669 127.885 500.363C143.971 495.372 161.01 480.376 162.457 461.372C163.766 444.246 151.28 428.383 127.301 416.701C103.175 404.945 89.5448 383.961 89.9017 359.127C90.2303 336.352 102.394 315.048 119.48 307.323C123.848 305.349 128.392 304.349 132.978 304.349C141.615 304.349 150.396 307.952 158.367 314.768C159.035 315.337 159.115 316.348 158.543 317.02C158.24 317.374 157.798 317.578 157.33 317.578C156.951 317.578 156.582 317.442 156.293 317.195C148.77 310.762 140.974 307.502 133.122 307.502C128.958 307.502 124.811 308.422 120.797 310.235C104.799 317.467 93.4057 337.593 93.0941 359.175C92.7542 382.723 105.733 402.642 128.701 413.828C153.934 426.122 167.055 443.093 165.644 461.615C165.358 465.391 164.486 469.162 163.052 472.819C160.285 479.883 155.401 486.56 148.929 492.126C143.003 497.222 135.864 501.233 128.834 503.414C124.293 504.825 119.823 505.539 115.549 505.539C105.054 505.539 96.1194 501.332 89.7091 493.378C75.0869 475.232 75.7384 453.112 76.3163 433.581C77.0244 409.526 77.6363 388.751 49.6015 382.14C20.6262 375.307 16.3886 364.019 16.4424 357.9C16.5302 347.819 28.0308 338.551 45.0607 334.84L45.0551 334.837Z" fill="#624EA0"/>
<path d="M151.812 321.342C155.738 322.881 160.174 320.946 161.715 317.017C163.256 313.085 161.316 308.655 157.387 307.117C153.455 305.576 149.025 307.513 147.487 311.442C145.949 315.371 147.883 319.804 151.812 321.342Z" fill="#EF58A0"/>
<path d="M37.0642 345.442C40.9931 346.983 45.4262 345.046 46.9671 341.117C48.5053 337.188 46.5677 332.758 42.6417 331.217C38.7128 329.679 34.2825 331.613 32.7387 335.542C31.2006 339.471 33.1381 343.904 37.0642 345.442Z" fill="#EF58A0"/>
<path d="M433.463 185.488C439.429 175.846 450.224 169.039 463.86 166.325C468.121 165.478 472.729 165.048 477.556 165.048C495.034 165.048 523.87 170.809 561.998 198.261C574.572 207.314 588.021 212.299 599.868 212.299C605.774 212.299 610.887 211.056 614.654 208.699C618.793 206.11 620.705 202.546 620.033 198.671C618.523 189.941 605.289 182.021 584.636 177.486C563.876 172.925 550.996 165.399 546.353 155.114C542.144 145.788 546.447 137.885 546.631 137.554C546.911 137.047 547.446 136.732 548.024 136.732C548.293 136.732 548.56 136.8 548.795 136.931C549.562 137.356 549.846 138.327 549.424 139.095C549.273 139.378 545.772 146.12 549.279 153.842C553.443 163.005 565.907 170.101 585.319 174.367C607.612 179.265 621.41 187.924 623.175 198.127C624.07 203.289 621.58 208.13 616.345 211.404C611.991 214.129 606.25 215.568 599.74 215.568C587.381 215.568 573.314 210.342 560.131 200.852C522.689 173.894 494.578 168.237 477.59 168.237C472.965 168.237 468.554 168.648 464.481 169.458C451.722 171.999 441.669 178.287 436.177 187.168C430.138 196.932 429.027 207.215 432.877 217.727C439.358 235.397 457.901 248.503 472.39 253.203C473.228 253.478 473.687 254.378 473.415 255.214C473.225 255.797 472.71 256.225 472.098 256.307C472.033 256.316 471.97 256.319 471.905 256.319C471.738 256.319 471.571 256.293 471.404 256.242C456.207 251.308 436.729 237.496 429.883 218.823C425.733 207.509 426.974 195.983 433.463 185.488Z" fill="#00A4B7"/>
<path d="M541.101 144.361C541.642 148.545 545.472 151.499 549.656 150.958C553.84 150.417 556.794 146.587 556.256 142.403C555.718 138.22 551.885 135.265 547.701 135.806C543.515 136.347 540.56 140.177 541.101 144.361Z" fill="#624EA0"/>
<path d="M460.206 253.664C460.747 257.851 464.577 260.806 468.761 260.265C472.945 259.723 475.899 255.894 475.358 251.707C474.817 247.523 470.987 244.569 466.803 245.11C462.62 245.648 459.665 249.478 460.206 253.664Z" fill="#624EA0"/>
<path d="M457.453 345.227C465.314 331.316 482.732 314.98 502.393 311.989C504.418 311.683 506.447 311.524 508.427 311.524C517.998 311.524 526.961 315.196 534.348 322.138C542.611 329.903 547.132 341.837 547.073 355.742C547.007 371.789 540.311 404.795 496.229 445.554C476.188 464.083 471.444 484.212 475.514 495.075C477.228 499.647 480.335 502.227 484.267 502.346C484.363 502.346 484.462 502.349 484.559 502.349C493.346 502.349 503.631 490.956 512.078 471.875C520.686 452.438 530.629 441.314 541.631 438.818C543.161 438.47 544.713 438.294 546.245 438.294C553.752 438.294 558.585 442.416 558.786 442.591C559.111 442.869 559.307 443.257 559.338 443.685C559.369 444.107 559.236 444.518 558.961 444.838C558.655 445.195 558.213 445.399 557.743 445.399C557.366 445.399 556.998 445.265 556.709 445.019C556.667 444.985 552.489 441.501 546.172 441.501C544.88 441.501 543.574 441.651 542.291 441.946C532.482 444.198 523.046 454.996 515.001 473.173C505.891 493.746 494.799 505.544 484.567 505.542C484.437 505.542 484.307 505.542 484.176 505.536C478.942 505.386 474.695 501.984 472.526 496.199C467.945 483.974 472.829 462.851 494.065 443.215C537.26 403.277 543.821 371.262 543.886 355.734C543.937 342.723 539.776 331.619 532.167 324.47C525.278 317.991 517.341 314.708 508.574 314.708C506.721 314.708 504.804 314.856 502.878 315.15C484.273 317.983 467.736 333.543 460.24 346.805C459.954 347.304 459.422 347.615 458.847 347.615C458.572 347.615 458.303 347.544 458.068 347.408C457.532 347.111 457.212 346.519 457.255 345.899C457.272 345.678 457.34 345.448 457.456 345.233L457.453 345.227Z" fill="#009CDE"/>
<path d="M553.214 435.81C549.004 435.507 545.347 438.671 545.042 442.88C544.738 447.086 547.905 450.746 552.109 451.049C556.318 451.355 559.978 448.188 560.281 443.979C560.587 439.77 557.415 436.113 553.211 435.807L553.214 435.81Z" fill="#3DB5B9"/>
<path d="M462.209 334.766C458.003 334.463 454.343 337.624 454.037 341.834C453.737 346.043 456.901 349.697 461.11 350.003C465.316 350.309 468.973 347.142 469.279 342.936C469.585 338.723 466.418 335.066 462.209 334.763V334.766Z" fill="#624EA0"/>
<path d="M173.879 35.9069C185.407 21.6133 203.148 12.1664 221.343 10.6367C231.107 9.81527 240.641 11.3222 248.913 14.9905C274.681 26.4231 285.848 55.8573 279.548 95.7467C273.027 137.183 288.998 154.411 299.099 160.994C306.725 165.96 315.778 168.164 325.281 167.365C332.822 166.73 340.269 164.164 346.821 159.946C364.936 148.276 373.105 127.028 369.238 101.647C363.196 61.9815 369.867 34.1138 388.025 23.1797C392.548 20.4547 397.715 18.8316 403.375 18.3557C411.969 17.6334 421.852 19.5256 432.752 23.9842C443.666 28.4457 455.68 35.5131 468.461 44.9827C468.914 45.317 469.158 45.8722 469.098 46.433C469.07 46.7163 468.965 46.9854 468.792 47.2177C468.517 47.5859 468.098 47.8182 467.642 47.8578C467.257 47.889 466.872 47.7814 466.56 47.5491C441.817 29.2133 419.974 20.2564 403.397 21.6501C398.27 22.0807 393.653 23.5168 389.67 25.9161C372.944 35.9918 366.647 63.4205 372.394 101.168C376.397 127.455 367.485 150.431 348.549 162.631C341.563 167.132 333.612 169.869 325.553 170.546C315.33 171.404 305.58 169.028 297.357 163.671C286.607 156.666 269.586 138.463 276.395 95.251C282.434 56.8912 271.945 28.7034 247.618 17.911C239.814 14.4495 230.812 13.0303 221.581 13.8065C204.267 15.2625 187.362 24.2731 176.363 37.9124C165.083 51.8972 143.918 91.3731 190.9 155.697C191.416 156.408 191.26 157.408 190.552 157.926C190.314 158.099 190.036 158.204 189.744 158.229C189.183 158.278 188.651 158.034 188.322 157.581C140.034 91.4637 162.134 50.4667 173.879 35.9097V35.9069Z" fill="#EF58A0"/>
<path d="M464.815 53.6646C469.01 54.1037 472.772 51.0614 473.211 46.8634C473.653 42.6682 470.605 38.9093 466.41 38.4674C462.215 38.0255 458.456 41.0706 458.014 45.2686C457.575 49.4638 460.617 53.2256 464.815 53.6646Z" fill="#3DB5B9"/>
<path d="M190.71 164.436C194.905 164.878 198.667 161.83 199.106 157.637C199.548 153.439 196.503 149.68 192.305 149.241C188.107 148.799 184.351 151.845 183.909 156.043C183.467 160.238 186.515 163.999 190.71 164.439V164.436Z" fill="#624EA0"/>
<path d="M547.951 313.414C571.932 325.144 600.882 315.215 612.618 291.234C624.348 267.25 614.413 238.297 590.435 226.565C566.454 214.832 537.501 224.766 525.765 248.747C514.035 272.728 523.97 301.681 547.948 313.414H547.951Z" fill="#00B7C6"/>
<path d="M566.978 307.771C566.598 309.419 561.717 308.887 560.406 307.335C559.091 305.782 560.097 304.221 562.598 304.153C564.768 304.097 567.357 306.119 566.978 307.771ZM529.705 292.211C533.717 299.321 539.685 305.428 547.296 309.626C548.319 309.02 552.919 310.085 553.962 309.507C555.786 308.496 555.803 306.536 555.296 304.513C554.998 303.309 552.253 300.97 551.809 299.817C550.851 297.335 553.661 294.35 556.199 295.146C558.533 295.882 559.717 298.842 562.125 299.332C564.338 299.774 566.292 297.913 568.456 297.27C571.81 296.276 575.209 298.273 578.495 299.474C580.974 300.38 582.597 305.071 585.231 305.077C587.092 304.213 587.698 297.162 586.531 295.471C585.361 293.783 583.653 292.163 583.778 290.115C583.84 289.169 584.308 288.271 584.294 287.319C584.248 283.948 579.076 283.416 577.308 280.543C576.291 278.886 576.609 276.784 576.487 274.85C576.297 271.836 574.427 267.488 571.292 266.405C571.042 266.32 570.768 266.258 570.513 266.326C569.793 266.524 569.708 267.488 569.317 268.119C568.485 269.459 565.604 268.604 564.168 269.255C563.032 269.771 563.131 271.533 563.216 272.776C563.25 273.243 563.394 273.705 563.474 274.167C563.768 275.799 562.629 280.824 559.919 279.682C559.712 279.591 559.536 279.441 559.369 279.288C557.621 277.626 556.924 274.946 557.644 272.643C558.307 270.51 561.244 270.091 562.791 268.482C564.343 266.867 567.47 263.918 567.689 261.695C567.901 259.474 563.281 256.865 561.069 257.165C559.579 257.375 558.539 258.672 557.502 259.76C554.684 262.717 550.846 264.683 546.801 265.238C544.025 265.618 538.702 262.355 537.566 264.91C536.968 266.255 536.481 270.575 536.056 271.983C535.459 273.923 532.088 274.629 531.099 276.41C529.425 279.405 532.609 282.495 531.487 285.736C530.807 287.696 531.504 291.14 529.705 292.2V292.211ZM546.818 246.71C545.081 246.619 540.991 247.71 541.13 245.974C541.226 244.707 542.645 240.461 543.26 239.348C544.322 237.408 545.662 235.943 546.506 233.898C547.497 231.51 548.713 230.062 550.843 228.598C551.432 228.193 552.367 227.762 553.225 227.272C563.032 223.567 574.088 223.239 584.495 226.944C582.427 228.621 578.736 228.578 576.943 230.771C576.164 231.728 575.849 233 575.048 233.938C573.184 236.113 568.915 234.98 568.374 232.17C568.196 231.23 568.363 230.207 567.938 229.346C567.247 227.938 565.306 227.655 563.799 228.068C561.038 228.827 559.015 231.122 557.16 233.303C555.562 235.184 553.911 237.917 555.386 239.895C556.519 241.413 566.17 237.881 566.53 239.739C566.827 241.26 560.426 246.234 558.995 246.826C555.061 248.458 552.132 247.18 550.588 247.163C548.849 247.143 548.56 246.801 546.82 246.707L546.818 246.71ZM609.045 265.629C607.099 265.216 605.201 264.372 603.227 264.564C600.513 264.825 598.406 266.93 596.009 268.227C593.613 269.519 589.908 269.575 588.885 267.051C588.064 265.02 589.596 262.757 589.361 260.582C589.197 259.109 588.24 257.794 588.197 256.316C588.143 254.573 589.344 253.092 590.132 251.537C592.491 246.866 588.871 243.826 587.126 239.447C586.537 237.966 586.452 236.274 586.954 234.756C587.228 233.935 587.659 233.153 587.849 232.309C588.146 230.969 587.82 229.578 587.667 228.204C588.208 228.442 588.752 228.694 589.29 228.955C590.812 229.7 592.282 230.524 593.687 231.414C593.401 231.671 592.99 231.785 592.61 231.907C591.936 232.122 591.279 232.445 590.8 232.966C590.324 233.484 590.05 234.226 590.214 234.915C590.31 235.323 590.548 235.68 590.826 235.997C591.576 236.847 592.44 237.368 593.554 237.249C594.517 237.15 595.48 237.158 596.44 237.325C598.072 237.612 600.173 238.464 600.159 240.433C600.151 241.419 599.542 242.314 599.485 243.297C599.389 245.053 601.04 246.407 602.675 247.061C604.309 247.713 606.145 248.027 607.465 249.189C609.476 250.95 609.683 254.134 611.626 255.973C612.034 256.364 612.473 256.681 612.923 256.936C613.833 260.012 614.416 263.179 614.662 266.394C612.479 267.077 611.983 266.097 609.734 265.762C609.504 265.728 609.278 265.689 609.048 265.638L609.045 265.629ZM543.246 255.758C541.135 256.208 539.144 258.78 541.362 259.57C543.58 260.358 547.441 260.199 546.478 258.794C545.515 257.392 545.693 255.245 543.248 255.755L543.246 255.758ZM533.017 260.185C530.128 262.145 524.842 270.193 528.618 270.989C532.397 271.79 534.742 268.264 534.464 265.833C534.187 263.406 535.697 258.364 533.017 260.182V260.185Z" fill="white"/>
<path d="M462.022 136.353C462.022 130.597 457.354 125.929 451.595 125.929C445.836 125.929 441.168 130.597 441.168 136.353C441.168 142.109 445.836 146.78 451.595 146.78C457.354 146.78 462.022 142.112 462.022 136.353Z" fill="#EF58A0"/>
<path d="M81.4123 367.129C82.5 361.475 78.8006 356.008 73.1466 354.921C67.4898 353.833 62.0256 357.532 60.935 363.186C59.8473 368.84 63.5495 374.307 69.2063 375.395C74.8603 376.483 80.3245 372.781 81.4123 367.127V367.129Z" fill="#00B7C6"/>
<path d="M511.007 146.921C511.007 143.298 508.07 140.361 504.447 140.361C500.824 140.361 497.886 143.298 497.886 146.921C497.886 150.544 500.824 153.482 504.447 153.482C508.07 153.482 511.007 150.544 511.007 146.921Z" fill="#EF58A0"/>
<path d="M318.064 83.8865C317.582 78.1475 312.537 73.8901 306.798 74.3716C301.062 74.8532 296.799 79.8925 297.283 85.6343C297.765 91.3732 302.81 95.6307 308.546 95.1491C314.285 94.6676 318.545 89.6255 318.064 83.8865Z" fill="#624EA0"/>
<path d="M517.63 355.532C517.63 349.771 512.962 345.105 507.203 345.105C501.444 345.105 496.776 349.771 496.776 355.532C496.776 361.294 501.444 365.957 507.203 365.957C512.962 365.957 517.63 361.291 517.63 355.532Z" fill="#624EA0"/>
<path d="M263.801 180.063C264.382 174.336 260.209 169.22 254.482 168.639C248.751 168.059 243.638 172.234 243.058 177.962C242.477 183.692 246.65 188.805 252.38 189.386C258.108 189.966 263.221 185.794 263.801 180.063Z" fill="#FFD200"/>
<path d="M600.553 143.42C600.553 137.661 595.885 132.993 590.129 132.993C584.373 132.993 579.702 137.661 579.702 143.42C579.702 149.179 584.37 153.844 590.129 153.844C595.888 153.844 600.553 149.176 600.553 143.42Z" fill="#FFD200"/>
<path d="M148.073 367.891C148.073 362.133 143.405 357.464 137.649 357.464C131.893 357.464 127.222 362.133 127.222 367.891C127.222 373.65 131.89 378.318 137.649 378.318C143.408 378.318 148.073 373.65 148.073 367.891Z" fill="#FFD200"/>
<path d="M614.481 334.848C614.481 329.09 609.813 324.424 604.057 324.424C598.301 324.424 593.63 329.093 593.63 334.848C593.63 340.604 598.298 345.275 604.057 345.275C609.816 345.275 614.481 340.607 614.481 334.848Z" fill="#624EA0"/>
<path d="M95.7341 98.6447C95.8899 98.5031 96.0089 98.3161 96.0684 98.0952C96.2412 97.4578 95.9579 96.7921 95.3772 96.4749C92.8561 95.0954 90.5758 93.3023 88.61 91.141C78.9393 80.5299 79.7098 64.0325 90.3181 54.3646C100.929 44.6996 117.427 45.4672 127.094 56.0784C129.052 58.2255 130.624 60.6616 131.771 63.313C132.032 63.922 132.672 64.2648 133.323 64.1486C133.949 64.0381 134.369 63.4405 134.258 62.8144C134.199 62.4745 133.998 62.1969 133.726 62.0298C132.493 59.2878 130.839 56.7639 128.794 54.5232C118.271 42.9717 100.315 42.136 88.7658 52.6622C77.2142 63.1855 76.3814 81.1446 86.9047 92.6933C88.9556 94.9453 91.3123 96.829 93.9184 98.302C94.06 98.5909 94.3178 98.8147 94.652 98.9081C95.0458 99.013 95.4508 98.9025 95.7313 98.6447H95.7341Z" fill="#00B7C6"/>
<path d="M88.7686 52.6619C93.0912 48.7217 98.3147 46.3734 103.708 45.5859C103.903 45.8749 104.054 46.2035 104.133 46.566C104.232 47.0051 104.218 47.4442 104.116 47.8549C99.1333 48.5716 94.3121 50.73 90.3209 54.3643C86.3608 57.976 83.769 62.5366 82.5849 67.3889C82.1657 67.454 81.7238 67.4229 81.2961 67.2841C80.9448 67.1708 80.6332 66.9923 80.3669 66.7714C81.6643 61.514 84.48 56.5738 88.7714 52.6619H88.7686Z" fill="#0C99A8"/>
<path d="M102.64 49.515C103.323 48.8946 103.66 47.94 103.447 46.9741C103.133 45.5436 101.714 44.6372 100.283 44.9544C95.601 45.9883 91.2472 48.246 87.6979 51.4837C84.1712 54.6931 81.5369 58.7749 80.0667 63.293C79.6107 64.6895 80.3727 66.188 81.772 66.6441C83.1657 67.0973 84.6641 66.3325 85.1174 64.9388C86.3042 61.296 88.4316 58.0016 91.2755 55.4126C94.1422 52.798 97.6519 50.9766 101.431 50.1438C101.898 50.039 102.312 49.8181 102.643 49.515H102.64Z" fill="#EF58A0"/>
<path d="M79.9393 63.9898C80.2424 64.4091 80.6758 64.7377 81.2055 64.9133C82.5481 65.3467 83.99 64.613 84.4262 63.2732C85.5678 59.772 87.6129 56.6051 90.3464 54.1152C93.1026 51.6026 96.4791 49.852 100.108 49.0504C100.558 48.9513 100.955 48.736 101.275 48.4471C101.929 47.8522 102.255 46.9344 102.051 46.0053C101.966 45.6229 101.799 45.2801 101.569 44.9912C102.482 45.2461 103.229 45.9855 103.447 46.9741C103.66 47.9372 103.323 48.8918 102.64 49.515C102.306 49.8152 101.895 50.039 101.428 50.1438C97.6519 50.9766 94.1422 52.798 91.2727 55.4126C88.4287 58.0044 86.3014 61.2988 85.1145 64.9388C84.6613 66.3324 83.1628 67.0973 81.7692 66.644C80.6049 66.2645 79.8826 65.1597 79.9393 63.9927V63.9898Z" fill="#EF58A0"/>
<path d="M131.774 63.313C131.069 61.6842 130.205 60.1376 129.188 58.6872C129.327 58.7411 129.454 58.7637 129.562 58.7354C130.513 58.5116 130.021 57.2313 128.922 55.458C131.086 57.9649 132.771 60.7749 133.941 63.8285C133.78 63.99 133.57 64.1089 133.326 64.1514C132.675 64.2647 132.035 63.922 131.774 63.3158V63.313Z" fill="#0C99A8"/>
<path d="M86.1285 90.9736C87.3976 92.2285 89.3209 93.5117 89.9583 93.067C90.1028 92.965 90.1849 92.8658 90.2104 92.7582C91.7825 94.2142 93.5133 95.4606 95.3772 96.4803C95.955 96.7947 96.2411 97.4632 96.0683 98.1006C96.0089 98.3187 95.8899 98.5057 95.7341 98.6501C95.7341 98.6558 95.7227 98.6586 95.7171 98.6615C92.5105 97.0837 89.6779 94.9592 87.2899 92.339C86.8849 91.8942 86.4968 91.441 86.1285 90.9765V90.9736Z" fill="#0C99A8"/>
<path d="M117.302 48.2488C117.333 48.2205 117.359 48.1865 117.376 48.144C117.444 47.9882 117.37 47.8069 117.214 47.7361C114.591 46.6002 107.671 45.7079 105.274 46.2008C105.107 46.2348 105 46.3991 105.037 46.5662C105.071 46.7333 105.235 46.8382 105.402 46.8042C107.668 46.3396 114.481 47.2206 116.973 48.3026C117.089 48.3508 117.214 48.3253 117.305 48.246L117.302 48.2488Z" fill="#C2DDDE"/>
<path d="M133.672 66.4315C134.258 67.0745 135.244 67.1198 135.884 66.5363C136.524 65.9528 136.572 64.9642 135.989 64.324L133.87 62.0012C133.289 61.361 132.298 61.3157 131.661 61.8964C131.02 62.4799 130.972 63.4714 131.556 64.1115L133.672 66.4343V66.4315Z" fill="#EF58A0"/>
<path d="M130.131 61.0356L137.918 69.9358C138.456 70.5476 138.81 71.2643 138.992 72.0036C139.405 73.723 138.884 75.6067 137.459 76.8531L136.856 77.3262C134.816 79.1107 131.72 78.9039 129.936 76.8673L122.146 67.9642C120.361 65.9276 120.568 62.8286 122.608 61.0497L123.211 60.5767C124.282 59.6362 125.647 59.2566 126.964 59.3954C128.145 59.5229 129.284 60.0725 130.131 61.0356Z" fill="#242425"/>
<path d="M124.146 65.7147C123.027 64.2899 121.469 65.3833 122.746 66.8648C124.582 69.0034 125.638 70.298 126.956 71.8276C128.083 73.1363 129.463 71.8984 128.363 70.6152C126.91 68.9241 124.146 65.7119 124.146 65.7119V65.7147Z" fill="#646363"/>
<path d="M98.0513 98.8856C98.632 99.5257 98.5895 100.514 97.9493 101.098C97.3091 101.681 96.3205 101.636 95.737 100.993L93.621 98.6703C93.0375 98.0301 93.0828 97.0387 93.723 96.4552C94.366 95.8716 95.3546 95.9198 95.9381 96.56L98.0541 98.8827L98.0513 98.8856Z" fill="#EF58A0"/>
<path d="M93.0148 94.8515L101.156 103.434C101.714 104.024 102.391 104.446 103.119 104.695C104.79 105.267 106.714 104.919 108.085 103.619L108.611 103.061C110.577 101.2 110.659 98.0949 108.796 96.1291L100.657 87.5461C98.7934 85.5831 95.6917 85.4981 93.7258 87.3648L93.2017 87.9229C92.165 88.9001 91.6608 90.2258 91.6778 91.5458C91.6948 92.7355 92.1367 93.9224 93.0176 94.8515H93.0148Z" fill="#242425"/>
<path d="M99.2324 88.0051C98.0342 86.6454 96.5443 87.8294 97.9039 89.2373C99.8641 91.2626 100.994 92.492 102.397 93.9423C103.6 95.183 104.903 93.8658 103.731 92.6534C102.181 91.0473 99.2324 88.0022 99.2324 88.0022V88.0051Z" fill="#646363"/>
<path opacity="0.3" d="M188.705 99.1599C203.893 113.995 228.249 113.703 243.089 98.5056C257.921 83.3055 257.632 58.956 242.432 44.1214C227.237 29.2868 202.882 29.5757 188.048 44.7701C173.21 59.973 173.505 84.3168 188.705 99.1599Z" fill="white"/>
<path opacity="0.3" d="M179.805 88.6451C180.127 89.4439 180.476 90.2258 180.867 91.0076C178.349 96.1517 177.683 99.9786 179.388 101.653C182.892 105.063 195.305 98.2733 209.338 85.8918C217.255 79.0594 223.762 72.2412 229.787 64.7347C241.044 51.019 246.989 39.1671 243.61 35.8557C241.913 34.1958 238.078 34.9606 232.999 37.5922C232.217 37.2324 231.43 36.901 230.625 36.5894C242.777 28.3719 252.595 24.9868 256.346 28.6551C262.739 34.8983 249.148 59.1855 225.988 82.9062C202.831 106.63 178.878 120.799 172.488 114.555C168.729 110.896 171.882 100.996 179.807 88.648L179.805 88.6451Z" fill="white"/>
<path d="M192.88 94.8802C205.712 107.409 226.277 107.163 238.809 94.3278C251.338 81.4874 251.094 60.928 238.256 48.3963C225.422 35.8674 204.851 36.1111 192.325 48.9487C179.793 61.7863 180.045 82.3457 192.88 94.883V94.8802Z" fill="#00B7C6"/>
<path d="M244.395 80.6971C243.018 84.9574 240.664 88.9854 237.322 92.4016C225.745 104.256 206.752 104.489 194.905 92.9171C183.054 81.3372 182.83 62.3528 194.398 50.4981C194.483 50.4131 194.574 50.3338 194.665 50.2432C194.364 52.0249 195.837 52.8605 200.089 51.1694C206.426 48.6484 208.751 52.8634 206.516 56.4807C204.273 60.098 200.681 68.3778 199.851 72.5418C198.732 78.21 202.01 77.8276 205.763 75.5105C210.349 72.6891 218.133 64.0609 220.447 66.4233C222.966 68.9982 218.204 78.8473 221.799 79.1306C225.388 79.4139 235.271 73.2585 233.735 68.2192C232.211 63.1827 238.846 58.6901 240.378 64.0552C241.91 69.4259 237.95 79.4252 242.032 79.8643C242.976 79.9662 243.757 80.2665 244.392 80.6942L244.395 80.6971Z" fill="#009EAC"/>
<path d="M228.022 51.6109C228.79 56.9052 220.836 57.1771 218.87 54.8968C216.898 52.6222 215.267 49.2825 211.717 47.9115C208.168 46.549 213.573 42.5833 216.601 42.9118C221.028 43.3821 227.249 46.3167 228.019 51.6109H228.022Z" fill="#009EAC"/>
<path d="M184.13 84.5324C184.41 85.2179 184.708 85.8892 185.036 86.5606C182.886 90.9682 182.314 94.2541 183.773 95.6845C186.776 98.6078 197.418 92.7896 209.457 82.1756C216.241 76.3148 221.818 70.4739 226.985 64.0324C236.639 52.2684 241.735 42.1077 238.84 39.2722C237.384 37.8445 234.098 38.5017 229.739 40.765C229.067 40.4534 228.39 40.1673 227.705 39.8982C238.123 32.8534 246.542 29.9499 249.757 33.097C255.244 38.4479 243.587 59.2707 223.728 79.6064C203.871 99.9505 183.334 112.1 177.856 106.743C174.629 103.605 177.332 95.118 184.13 84.5324Z" fill="#FFD200"/>
<path opacity="0.3" d="M384.203 96.4748C395.276 116.25 420.277 123.303 440.052 112.233C459.824 101.16 466.883 76.1533 455.813 56.3842C444.737 36.6094 419.736 29.5533 399.961 40.6233C380.181 51.7018 373.13 76.7057 384.203 96.4748Z" fill="white"/>
<path d="M391.061 92.6367C400.012 108.619 420.223 114.321 436.208 105.369C452.196 96.4183 457.895 76.2044 448.949 60.2254C439.995 44.2379 419.787 38.5386 403.797 47.487C387.818 56.4381 382.116 76.6463 391.061 92.6367Z" fill="#AFC8DB"/>
<path d="M394.429 57.1517C394.214 56.7693 394.035 56.3671 393.888 55.9705C396.52 52.611 399.842 49.7075 403.797 47.4867C405.015 46.8069 406.247 46.2262 407.499 45.7163C408.459 46.4358 409.298 47.3564 409.924 48.4781C412.317 52.7526 410.791 58.163 406.513 60.5594C402.236 62.9502 396.823 61.4262 394.429 57.1517Z" fill="#356073"/>
<path d="M436.44 83.8354C438.18 82.8582 440.372 83.4814 441.341 85.2206C442.318 86.9514 441.692 89.1467 439.956 90.1211C438.225 91.0899 436.03 90.4724 435.058 88.7388C434.084 86.9995 434.707 84.8099 436.44 83.8354Z" fill="#356073"/>
<path d="M428.135 75.5243C425.11 70.1082 427.039 63.2787 432.446 60.2478C437.857 57.2225 444.695 59.1487 447.72 64.5562C450.748 69.9638 448.819 76.8018 443.412 79.8327C437.998 82.8608 431.16 80.9261 428.132 75.5243H428.135Z" fill="#356073"/>
<path d="M403.137 82.9941C404.27 85.011 403.542 87.5604 401.531 88.6878C399.505 89.818 396.959 89.0985 395.829 87.0817C394.701 85.0648 395.415 82.5126 397.435 81.3795C399.454 80.2521 402.004 80.9716 403.134 82.9913L403.137 82.9941Z" fill="#356073"/>
<path d="M406.182 106.576C406.624 105.349 407.488 104.27 408.714 103.585C411.422 102.066 414.841 103.035 416.348 105.735C417.014 106.916 417.201 108.233 416.98 109.457C413.244 109.111 409.59 108.137 406.182 106.579V106.576Z" fill="#356073"/>
<path d="M68.2432 176.837C68.6512 176.483 68.6965 175.866 68.3424 175.455L61.8953 168.025C61.5412 167.617 60.9208 167.572 60.5129 167.926C60.105 168.283 60.0597 168.9 60.4138 169.311L66.8609 176.738C67.215 177.146 67.8325 177.189 68.2461 176.834L68.2432 176.837Z" fill="#E0383A"/>
<path d="M66.334 178.101C67.1271 179.021 68.5265 179.117 69.4386 178.319C70.3563 177.526 70.4583 176.135 69.6567 175.217C68.8607 174.296 67.4699 174.197 66.5521 174.999C65.6343 175.795 65.5352 177.183 66.334 178.101Z" fill="#FFD200"/>
<path d="M93.7569 142.542C93.7965 142.015 93.4 141.556 92.8703 141.52L83.2647 140.84C82.7379 140.803 82.2761 141.202 82.2393 141.729C82.2025 142.256 82.5991 142.718 83.1259 142.755L92.7286 143.434C93.2612 143.468 93.7201 143.075 93.7512 142.542H93.7569Z" fill="#E0383A"/>
<path d="M93.3151 144.74C94.5048 144.822 95.533 143.927 95.6208 142.74C95.7002 141.556 94.805 140.525 93.621 140.438C92.4313 140.358 91.4059 141.25 91.3209 142.437C91.2331 143.627 92.131 144.653 93.3151 144.74Z" fill="#FFD200"/>
<path d="M30.5122 197.428C29.9881 197.388 29.5859 196.932 29.6227 196.405L30.3025 186.8C30.3394 186.273 30.7954 185.876 31.3308 185.907C31.8577 185.947 32.2514 186.403 32.2174 186.936L31.5347 196.538C31.4951 197.065 31.0419 197.465 30.5093 197.428H30.5122Z" fill="#E0383A"/>
<path d="M30.178 203.756C29.9599 204.926 28.8325 205.696 27.6654 205.478C26.4927 205.26 25.7222 204.133 25.9432 202.963C26.1641 201.793 27.2859 201.022 28.4558 201.243C29.6256 201.459 30.3961 202.586 30.178 203.756Z" fill="#FFD200"/>
<path d="M43.3271 148.304C60.7876 133.152 79.4633 125.033 89.0037 127.679C92.383 134.038 81.7974 152.938 62.1501 169.993C42.5 187.043 22.3853 195.745 16.5472 190.258C15.2725 180.434 25.8694 163.455 43.3271 148.306V148.304Z" fill="#EF58A0"/>
<path d="M82.9616 143.018C82.9815 143.001 82.9956 142.978 83.007 142.953C83.0268 142.885 82.9843 142.808 82.9135 142.786C74.3815 140.381 61.0794 141.791 60.9462 141.803C60.8726 141.814 60.8159 141.879 60.8273 141.953C60.8329 142.026 60.9009 142.08 60.9746 142.072C61.1105 142.058 74.3589 140.655 82.8342 143.046C82.8795 143.055 82.9276 143.046 82.9588 143.018H82.9616Z" fill="#FFD200"/>
<path d="M32.75 186.59C32.784 186.564 32.8038 186.516 32.7925 186.468C31.6226 177.738 34.8802 164.815 34.9142 164.688C34.934 164.614 34.8887 164.543 34.8179 164.521C34.7442 164.504 34.6734 164.549 34.6507 164.62C34.6196 164.753 31.345 177.721 32.5291 186.505C32.5404 186.579 32.6084 186.63 32.682 186.621C32.7104 186.615 32.733 186.607 32.75 186.59Z" fill="#FFD200"/>
<path d="M60.2919 168.741C60.3457 168.693 60.3514 168.605 60.306 168.551L48.4769 154.918C48.4287 154.861 48.3409 154.856 48.2871 154.904C48.2304 154.955 48.2248 155.04 48.2701 155.096L60.0993 168.727C60.1502 168.784 60.2296 168.792 60.2919 168.741Z" fill="#FFD200"/>
<path d="M72.5743 132.823L79.8996 131.104L80.2735 132.702C80.2792 132.724 80.2848 132.747 80.2933 132.77C80.5171 133.727 79.0611 134.886 77.0386 135.361C75.0133 135.837 73.1947 135.446 72.9681 134.492C72.9596 134.466 72.9596 134.447 72.9567 134.424L72.5772 132.826L72.5743 132.823Z" fill="#FFD200"/>
<path d="M72.5743 132.823C72.8009 133.781 74.6195 134.172 76.6449 133.69C78.6674 133.217 80.1233 132.056 79.8996 131.104C79.6758 130.146 77.8516 129.756 75.8319 130.231C73.8065 130.705 72.3477 131.869 72.5715 132.823H72.5743Z" fill="#FFF462"/>
<path d="M79.4038 131.985C79.1772 131.027 77.3558 130.637 75.3333 131.112C74.1323 131.396 73.1295 131.923 72.5658 132.5C72.6791 131.622 74.0303 130.656 75.8318 130.231C77.8515 129.756 79.6729 130.146 79.8995 131.104C79.9902 131.492 79.8004 131.911 79.4123 132.305C79.4237 132.197 79.4237 132.087 79.4038 131.985Z" fill="#FFF9B0"/>
<path d="M24.558 174.492L21.8217 181.497L23.3513 182.094C23.3711 182.1 23.3881 182.114 23.4136 182.117C24.3314 182.474 25.6826 181.196 26.4361 179.265C27.1924 177.33 27.0649 175.469 26.15 175.112C26.1301 175.103 26.1075 175.098 26.082 175.089V175.084L24.5552 174.489L24.558 174.492Z" fill="#FFD200"/>
<path d="M24.5582 174.492C25.476 174.849 25.6006 176.707 24.8499 178.642C24.0936 180.576 22.7368 181.859 21.8218 181.5C20.9125 181.143 20.7794 179.287 21.5357 177.347C22.2892 175.412 23.6461 174.138 24.5582 174.492Z" fill="#FFF462"/>
<path d="M22.7621 181.131C21.8471 180.777 21.7168 178.916 22.4732 176.984C22.9235 175.834 23.5836 174.916 24.2379 174.438C23.3513 174.429 22.2041 175.63 21.5355 177.347C20.7792 179.284 20.9095 181.14 21.8216 181.499C22.1927 181.644 22.6374 181.519 23.0822 181.191C22.9717 181.191 22.8669 181.174 22.7649 181.131H22.7621Z" fill="#FFF9B0"/>
<path d="M48.7574 154.553C40.4945 161.728 31.7643 167.059 23.7932 170.192C16.1054 156.15 17.414 139.744 27.9629 130.588C38.5117 121.433 54.9411 122.453 67.7588 132.039C63.5325 139.489 57.0231 147.383 48.7574 154.55V154.553Z" fill="#00B7C6"/>
<path d="M31.3366 132.316C40.1348 124.682 53.961 125.676 64.8242 133.874C64.252 134.905 63.6204 135.945 62.9405 136.99C59.6716 134.412 44.6047 124.118 31.3337 132.316H31.3366Z" fill="white"/>
<path d="M60.5496 168.138C78.2991 152.734 89.3691 135.645 87.6128 127.277C88.0632 127.353 88.491 127.444 88.9045 127.56C93.5161 134.115 81.9645 153.128 62.3144 170.177C42.6642 187.227 22.2125 195.983 16.3772 190.496C16.3205 190.068 16.2894 189.629 16.2809 189.176C24.3115 192.094 42.7917 183.545 60.5496 168.138Z" fill="#FFD200"/>
<path d="M520.437 114.729L518.774 121.286L521.421 121.957L523.084 115.401L520.437 114.729Z" fill="#21282C"/>
<path d="M520.464 114.741L519.719 117.676L522.365 118.348L523.111 115.414L520.464 114.741Z" fill="#131B1F"/>
<path d="M519.105 119.94L518.619 121.854L521.263 122.525L521.749 120.611L519.105 119.94Z" fill="#131B1F"/>
<path d="M501.436 117.997L538.286 127.362L537.937 125.32L502.716 116.369L501.436 117.997Z" fill="#2F373C"/>
<path d="M473.469 104.52C473.387 104.851 473.585 105.188 473.913 105.273L568.541 129.319C568.873 129.404 569.21 129.203 569.295 128.872L583.234 74.0119C583.319 73.6804 583.118 73.3462 582.787 73.2612L488.159 49.2148C487.827 49.1298 487.49 49.3309 487.408 49.6623L473.469 104.522V104.52Z" fill="#2F373C"/>
<path d="M488.746 50.8283L475.198 104.135L567.994 127.72L581.542 74.4128L488.746 50.8283Z" fill="#21282C"/>
<path d="M489.234 51.3915L475.931 103.735L567.541 127.018L580.845 74.6746L489.234 51.3915Z" fill="#9FDAE0"/>
<path d="M475.913 103.726L567.524 127.005L580.826 74.6602L475.913 103.726Z" fill="#00B7C6"/>
<path d="M163.987 230.567L131.012 236.187C131.012 236.187 107.909 257.967 104.442 262.046C112.682 259.803 142.484 252.993 142.484 252.993L163.99 230.564L163.987 230.567Z" fill="#624EA0"/>
<path d="M163.987 230.567C168.259 230.578 173.748 241.818 171.239 246.988C168.732 252.16 149.11 271.193 149.11 271.193C149.11 271.193 151.804 260.417 141.87 252.953C151.529 242.815 158.407 235.918 163.984 230.567H163.987Z" fill="#624EA0"/>
<path d="M115.172 270.85C115.172 270.85 113.169 274.065 112.152 275.331C111.127 276.592 109.702 279.509 112.175 279.291C115.401 279.008 148.538 270.043 148.538 270.043L149.645 265.856L115.175 270.847L115.172 270.85Z" fill="#624EA0"/>
<path d="M107.286 261.261C109.141 262.706 114.566 268.394 113.648 275.629C126.667 272.751 148.92 267.309 148.92 267.309C148.92 267.309 151.478 258.378 142.484 252.996C134.25 254.916 107.289 261.261 107.289 261.261H107.286Z" fill="#FAEECD"/>
<path d="M149.113 271.193C149.3 271.097 149.439 270.938 149.543 270.74C152.011 265.774 149.954 259.644 147.453 255.919C145.487 252.99 143.303 251.424 141.586 251.713C138.422 252.262 106.592 260.46 105.241 260.811C104.649 260.967 104.328 261.641 104.53 262.318C104.728 262.987 105.377 263.406 105.971 263.259C106.306 263.168 139.074 254.727 142.161 254.194C142.708 254.103 144.158 254.999 145.674 257.259C147.688 260.264 149.371 265.04 147.728 268.924C134.975 271.952 112.028 277.309 111.793 277.362C111.192 277.496 110.855 278.161 111.05 278.841C111.243 279.524 111.878 279.963 112.481 279.818C112.713 279.762 136.236 274.275 148.883 271.272C148.965 271.258 149.048 271.23 149.118 271.19L149.113 271.193Z" fill="#503E84"/>
<path d="M140.442 257.242C140.442 257.242 122.001 260.837 113.716 264.072C121.939 262.638 140.442 257.242 140.442 257.242Z" fill="#BDB085"/>
<path d="M146.821 261.191C146.821 261.191 138.437 261.755 120.69 268.114C128.916 266.681 146.821 261.191 146.821 261.191Z" fill="#BDB085"/>
<path d="M141.861 266.134C141.861 266.134 123.421 269.723 115.135 272.966C123.364 271.524 141.861 266.134 141.861 266.134Z" fill="#BDB085"/>
<path d="M135.813 275.969C135.813 275.969 136.108 276.442 136.394 276.77C136.652 274.694 136.728 273.283 137.346 270.468C137.346 270.468 139.629 273.836 141.295 275.932C141.578 276.275 141.768 276.329 142.059 276.547C140.535 271.216 139.62 265.239 139.762 263.987C139.603 263.862 139.357 263.474 139.179 263.097C136.388 264.553 135.811 275.966 135.811 275.966L135.813 275.969Z" fill="#D87625"/>
<path d="M133.893 264.967C133.893 264.967 133.638 270.029 135.813 275.969C136.077 273.898 136.306 272.456 136.918 269.627C136.918 269.627 139.649 274.167 141.295 275.935C139.618 270.448 139.04 264.349 139.181 263.1C135.864 263.304 133.893 264.964 133.893 264.964V264.967Z" fill="#FABF17"/>
<path d="M139.881 269.967L134.122 268.989C134.19 269.556 134.289 270.185 134.42 270.853L136.456 271.87C136.581 271.216 136.737 270.488 136.915 269.629C136.915 269.629 138.034 271.488 139.269 273.289L140.762 274.04C140.405 272.649 140.111 271.264 139.878 269.967H139.881Z" fill="#FFD660"/>
<path d="M133.964 267.457C133.992 267.848 134.04 268.281 134.094 268.734L139.439 267.092C139.303 265.961 139.221 265.001 139.181 264.276L133.966 267.454L133.964 267.457Z" fill="#FFD660"/>
<path d="M136.182 273.411C135.828 273.312 135.292 273.153 134.901 273.054C134.998 273.42 135.105 273.788 135.219 274.173L136.023 274.437C136.068 274.091 136.119 273.754 136.182 273.411Z" fill="#FFD660"/>
<path d="M441.729 421.99C440.545 423.732 440.42 425.918 440.5 426.853C441.584 425.256 442.454 424.261 442.896 424.018C442.536 424.814 441.89 425.522 441.284 428.527C440.718 431.334 441.426 433.113 441.426 433.113C441.426 433.113 442.936 433.244 445.76 431.734C448.015 430.524 448.689 429.326 449.25 428.476C448.842 430.218 448.009 431.156 447.533 431.824C448.856 431.646 451.091 430.051 451.89 428.924C454.634 425.035 452.298 423.822 449.255 421.672C446.213 419.525 444.482 417.93 441.726 421.99H441.729Z" fill="#FFE000"/>
<path d="M474.863 403.807C474.863 403.807 481.055 415.928 473.14 427.128C473.14 427.128 471.656 427.921 471.718 425.751C471.778 423.579 473.78 418.908 467.506 414.48L474.863 403.809V403.807Z" fill="#00B7C6"/>
<path d="M458.481 392.697C458.481 392.697 444.986 390.904 437.072 402.104C437.072 402.104 436.817 403.767 438.845 402.988C440.876 402.209 444.604 398.756 450.878 403.186L458.481 392.694V392.697Z" fill="#00B7C6"/>
<path d="M465.183 380.485L474.18 386.845L483.182 393.207C481.669 397.796 479.392 402.657 476.154 407.24C469.449 416.726 463.688 420.616 457.292 423.241L451.402 419.083L445.51 414.919C445.848 408.01 447.593 401.283 454.295 391.796C457.535 387.213 461.362 383.445 465.183 380.485Z" fill="#EF58A0"/>
<path d="M462.951 402.733C466.282 405.09 470.894 404.294 473.242 400.965C475.596 397.637 474.806 393.031 471.477 390.677C468.146 388.32 463.538 389.116 461.184 392.448C458.832 395.776 459.623 400.382 462.954 402.733H462.951Z" fill="#F04E63"/>
<path d="M445.587 415.001L451.388 419.097L457.192 423.199C457.342 423.309 457.382 423.519 457.274 423.669L456.362 424.955C456.258 425.108 456.045 425.145 455.895 425.04L450.088 420.935L444.287 416.837C444.131 416.729 444.097 416.519 444.205 416.366L445.114 415.077C445.221 414.927 445.431 414.888 445.587 414.998V415.001Z" fill="#EF58A0"/>
<path d="M461.184 392.448C458.832 395.776 459.623 400.382 462.954 402.733C466.285 405.09 470.897 404.294 473.245 400.965C475.599 397.637 474.809 393.031 471.48 390.677C468.149 388.32 463.54 389.116 461.186 392.448H461.184ZM463.084 393.788C464.696 391.507 467.854 390.963 470.135 392.575C472.415 394.184 472.953 397.343 471.344 399.623C469.733 401.906 466.574 402.447 464.294 400.841C462.014 399.223 461.472 396.068 463.084 393.785V393.788Z" fill="white"/>
<path d="M470.135 392.575C472.415 394.184 472.953 397.342 471.344 399.623C469.732 401.906 466.574 402.447 464.294 400.841C462.014 399.223 461.472 396.068 463.084 393.784C464.696 391.504 467.854 390.96 470.135 392.572V392.575Z" fill="#74CDD9"/>
<path d="M482.463 375.129C484.429 376.514 486.559 382.97 483.179 393.21L474.177 386.848L465.181 380.488C473.704 373.888 480.497 373.741 482.463 375.132V375.129Z" fill="#00B7C6"/>
<path d="M457.133 410.166C457.167 410.177 457.204 410.194 457.238 410.22H457.246L457.524 410.418L457.833 410.639H457.841C457.875 410.667 457.901 410.696 457.926 410.724C457.971 410.778 458.017 410.846 458.051 410.922C458.314 411.276 458.688 411.99 458.062 412.871L449.335 423.375L448.927 423.927L448.629 424.346C448.539 424.477 448.377 424.536 448.227 424.499C448.165 424.491 448.103 424.468 448.052 424.431L448.043 424.426L447.765 424.233L447.46 424.012H447.448C447.275 423.882 447.236 423.644 447.355 423.471L447.652 423.049L448.066 422.434L455.045 410.716C455.838 409.588 456.909 410.078 457.136 410.166H457.133Z" fill="#00B7C6"/>
<path d="M232.515 126.586C231.339 125.977 230.113 125.062 228.829 123.841C227.546 122.62 226.64 121.414 226.113 120.218C225.481 118.907 225.549 117.782 226.32 116.844C228.217 114.703 230.659 113.273 233.653 112.553C236.645 111.831 239.486 111.967 242.174 112.955C245.375 114.168 248.763 116.312 250.675 118.808C252.584 121.303 253.816 123.954 254.289 126.818C254.762 129.682 254.476 132.685 253.071 135.381C251.709 137.996 250.063 140.296 247.392 141.996C244.638 143.772 240.667 143.905 236.225 143.035C235.16 142.823 234.342 143.429 233.775 144.854C233.571 145.42 232.855 145.576 231.625 145.321C230.396 145.066 229.107 144.63 227.761 144.021C226.416 143.409 225.249 142.732 224.266 141.984C223.283 141.239 222.952 140.644 223.28 140.205C224.031 137.633 224.943 135.665 226.022 134.299C227.099 132.937 228.353 131.931 229.787 131.291C231.594 130.484 232.88 129.855 234.985 130.254C237.084 130.654 239.273 127.932 238.775 126.77C237.942 124.824 235.832 125.076 234.956 126.238C234.322 127.034 233.509 127.15 232.52 126.583L232.515 126.586Z" fill="#EF58A0"/>
<path d="M222.467 154.887C220.422 154.088 218.946 152.788 218.043 150.989C217.139 149.191 217.23 147.59 218.314 146.191C219.19 145.032 220.484 144.378 222.195 144.219C223.909 144.064 225.552 144.497 227.124 145.522C228.268 146.287 229.178 147.177 229.852 148.188C230.526 149.199 230.761 150.27 230.563 151.406C230.297 153.015 229.351 154.176 227.73 154.881C226.107 155.59 224.354 155.59 222.467 154.887Z" fill="#EF58A0"/>
<path d="M507.294 217.443L510.228 212.831L484.375 196.807L481.437 201.422L507.294 217.443Z" fill="#FFCF2A"/>
<path d="M499.623 229.499L502.453 225.052L476.568 209.01L473.738 213.458L499.623 229.499Z" fill="#DF8D19"/>
<path d="M502.416 225.111L507.384 217.299L481.655 201.354L476.684 209.169L502.416 225.111Z" fill="#FFD200"/>
<path d="M484.344 196.742C485.216 197.855 485.205 200.946 482.103 206.302C479.262 211.206 474.967 214.101 473.687 213.395C470.54 207.843 465.96 199.682 464.351 196.804C463.994 196.173 464.135 195.524 464.985 195.558C469.237 195.722 482.131 196.255 484.346 196.739L484.344 196.742Z" fill="#FFDA94"/>
<path d="M470.013 199.609C468.937 201.359 468.067 202.144 467.478 202.376C467.348 202.144 467.214 201.912 467.084 201.685C465.917 199.612 464.937 197.858 464.348 196.807C463.991 196.176 464.132 195.527 464.982 195.561C466.291 195.612 468.415 195.697 470.795 195.804C470.812 195.804 470.826 195.804 470.843 195.804C470.993 196.323 471.194 197.685 470.01 199.606L470.013 199.609Z" fill="#242425"/>
<path d="M472.126 198.501C471.458 197.963 482.766 200.464 483.012 201.113C483.16 201.495 472.699 198.963 472.126 198.501Z" fill="#FBB25B"/>
<path d="M469.617 202.43C468.971 201.866 475.401 210.996 475.982 211.2C476.367 211.336 471.594 204.149 469.617 202.43Z" fill="#FBB25B"/>
<path d="M471.194 200.246C470.526 199.708 479.842 204.991 480.092 205.639C480.236 206.022 471.766 200.708 471.194 200.246Z" fill="#E2843F"/>
<path d="M506.257 222.007C508.288 218.794 509.922 215.033 509.976 212.577C511.648 213.639 513.121 214.579 515.466 216.069C516.928 217.001 514.486 222.74 512.458 225.952C510.407 229.153 506.597 233.932 504.821 232.805C503.297 231.833 501.47 230.669 499.334 229.309C501.538 228.219 504.212 225.207 506.26 222.009L506.257 222.007Z" fill="#EF58A0"/>
<path d="M502.186 219.423C504.215 216.211 505.849 212.449 505.903 209.991C507.574 211.056 509.481 212.274 511.826 213.767C511.772 216.225 510.138 219.984 508.11 223.199C506.059 226.4 503.385 229.411 501.181 230.502C499.657 229.533 497.396 228.086 495.258 226.726C497.462 225.638 500.136 222.624 502.186 219.423Z" fill="#B3BDBD"/>
<path d="M510.35 219.041C509.727 220.432 508.954 221.862 508.11 223.197C507.237 224.559 506.248 225.888 505.232 227.049L499.311 223.273C500.328 222.112 501.314 220.783 502.189 219.421C503.033 218.086 503.807 216.656 504.427 215.265L510.35 219.038V219.041Z" fill="#D1DCDB"/>
<path d="M507.447 210.974C507.67 211.115 507.628 211.09 507.767 211.178C507.716 213.634 506.079 217.395 504.05 220.607C502 223.808 499.326 226.82 497.122 227.91C497.105 227.899 497.088 227.887 497.074 227.879C496.938 227.791 496.85 227.737 496.804 227.706C499.008 226.616 501.682 223.604 503.733 220.404C505.764 217.191 507.399 213.43 507.45 210.974H507.447Z" fill="#777F7F"/>
<path d="M510.152 212.702C510.376 212.843 510.333 212.818 510.472 212.906C510.418 215.361 508.787 219.123 506.756 222.335C504.705 225.536 502.031 228.547 499.827 229.635C499.81 229.624 499.793 229.615 499.779 229.604C499.643 229.516 499.558 229.462 499.507 229.431C501.711 228.343 504.385 225.332 506.436 222.129C508.467 218.916 510.101 215.155 510.152 212.699V212.702Z" fill="#777F7F"/>
<path d="M190.798 307.941C191.452 307.828 192.073 308.267 192.186 308.918L193.373 315.754C193.486 316.408 193.047 317.031 192.396 317.144C191.741 317.258 191.118 316.819 191.005 316.164L189.818 309.329C189.705 308.675 190.146 308.052 190.798 307.938V307.941Z" fill="#242425"/>
<path d="M178.196 325.447C177.881 325.501 177.561 325.433 177.298 325.246L171.624 321.249C171.36 321.065 171.185 320.79 171.131 320.473C171.077 320.155 171.148 319.835 171.332 319.572C171.516 319.311 171.794 319.136 172.111 319.079C172.425 319.025 172.746 319.096 173.009 319.28L178.68 323.277C179.221 323.659 179.354 324.407 178.972 324.954C178.788 325.215 178.51 325.39 178.196 325.444V325.447Z" fill="#242425"/>
<path d="M174.128 339.491C173.901 339.72 173.604 339.845 173.284 339.851L166.344 339.907C166.021 339.91 165.718 339.788 165.491 339.562C165.262 339.338 165.134 339.035 165.131 338.712C165.131 338.392 165.25 338.089 165.477 337.859C165.704 337.63 166.004 337.502 166.324 337.5L173.264 337.446C173.924 337.44 174.471 337.976 174.476 338.641C174.476 338.961 174.357 339.264 174.131 339.491H174.128Z" fill="#242425"/>
<path d="M224.47 327.625C224.181 327.486 223.855 327.467 223.552 327.571L217 329.857C216.697 329.962 216.453 330.18 216.315 330.469C216.173 330.758 216.156 331.084 216.261 331.39C216.368 331.693 216.587 331.937 216.873 332.078C217.162 332.214 217.487 332.234 217.793 332.132L224.345 329.846C224.971 329.628 225.3 328.942 225.085 328.314C224.98 328.013 224.762 327.77 224.47 327.628V327.625Z" fill="#242425"/>
<path d="M211.564 312.403C211.748 312.139 212.023 311.966 212.34 311.913C212.658 311.859 212.975 311.93 213.238 312.116C213.782 312.499 213.91 313.25 213.53 313.791L209.394 319.666C209.21 319.929 208.933 320.102 208.618 320.158C208.301 320.212 207.984 320.141 207.72 319.954C207.457 319.77 207.281 319.493 207.227 319.178C207.171 318.861 207.244 318.541 207.429 318.28L211.564 312.405V312.403Z" fill="#242425"/>
<path d="M177.731 341.126C175.972 330.988 182.765 321.343 192.903 319.583C203.041 317.824 212.683 324.617 214.442 334.755C216.184 344.794 206.522 351.145 207.327 355.782L207.502 356.799C208.259 361.164 205.332 365.32 200.967 366.076C196.599 366.832 192.444 363.909 191.685 359.544L191.509 358.527C190.807 354.473 179.394 350.729 177.728 341.126H177.731Z" fill="#FFD200"/>
<path d="M182.113 343.191C185.682 344.947 190.832 341.795 193.611 336.146C196.39 330.498 195.75 324.495 192.18 322.739C188.608 320.983 183.461 324.139 180.683 329.784C177.901 335.432 178.544 341.435 182.113 343.191Z" fill="#FFDB52"/>
<path d="M210.703 343.33C211.731 343.506 212.833 342.072 213.162 340.132C213.49 338.192 212.921 336.475 211.893 336.302C210.862 336.127 209.76 337.56 209.431 339.5C209.103 341.441 209.672 343.157 210.703 343.33Z" fill="#FFDB52"/>
<path d="M212.187 335.446C212.76 335.438 213.21 334.554 213.19 333.475C213.173 332.395 212.694 331.529 212.122 331.537C211.55 331.549 211.1 332.429 211.12 333.509C211.137 334.588 211.615 335.458 212.19 335.446H212.187Z" fill="#FFFACE"/>
<path d="M181.493 335.619C181.725 335.511 181.889 335.282 181.901 335.01C182.037 332.152 183.198 329.441 185.167 327.373C185.436 327.09 185.425 326.642 185.144 326.373C184.861 326.101 184.413 326.113 184.144 326.396C181.94 328.707 180.643 331.744 180.493 334.939C180.476 335.33 180.776 335.662 181.164 335.679C181.283 335.684 181.396 335.662 181.496 335.616L181.493 335.619Z" fill="#FFFACE"/>
<path d="M197.072 361.323L196.339 357.093C196.112 355.773 197.18 354.482 198.727 354.213L199.132 354.142C200.678 353.876 202.12 354.731 202.352 356.048L203.086 360.277C203.313 361.597 202.245 362.889 200.698 363.155L200.29 363.226C198.746 363.495 197.305 362.64 197.072 361.32V361.323ZM198.865 355.02C197.843 355.198 197.132 356.054 197.282 356.929L198.016 361.158C198.169 362.034 199.126 362.603 200.149 362.422L200.556 362.351C201.582 362.172 202.29 361.317 202.14 360.442L201.406 356.213C201.253 355.337 200.296 354.771 199.273 354.949L198.865 355.02Z" fill="#D97A23"/>
<path d="M201.539 355.065C201.664 355.043 201.769 354.952 201.789 354.839L203.341 345.573C203.364 345.434 203.253 345.312 203.092 345.298C202.93 345.287 202.783 345.389 202.76 345.528L201.208 354.793C201.185 354.932 201.296 355.054 201.454 355.068C201.483 355.068 201.514 355.068 201.539 355.065Z" fill="#D97A23"/>
<path d="M199.8 354.479C199.945 354.454 200.055 354.338 200.049 354.207L199.667 346.163C199.661 346.024 199.525 345.922 199.361 345.936C199.2 345.95 199.072 346.072 199.081 346.211L199.463 354.255C199.469 354.394 199.605 354.496 199.766 354.482C199.778 354.482 199.789 354.482 199.797 354.479H199.8Z" fill="#D97A23"/>
<path d="M196.769 355.893C196.798 355.89 196.823 355.881 196.851 355.867C196.999 355.802 197.061 355.649 196.993 355.527L192.41 347.324C192.342 347.199 192.166 347.154 192.019 347.219C191.872 347.287 191.809 347.437 191.877 347.562L196.461 355.765C196.517 355.867 196.642 355.915 196.769 355.893Z" fill="#D97A23"/>
<path d="M198.208 354.754C198.208 354.754 198.228 354.751 198.239 354.748C198.395 354.706 198.492 354.564 198.452 354.431L196.101 346.729C196.061 346.596 195.902 346.522 195.744 346.565C195.588 346.607 195.495 346.749 195.534 346.882L197.885 354.584C197.922 354.709 198.064 354.779 198.211 354.754H198.208Z" fill="#D97A23"/>
<path d="M196.429 351.74C196.503 352.151 196.948 352.414 197.429 352.332L199.715 351.935C200.194 351.853 200.528 351.451 200.455 351.04C200.384 350.629 199.936 350.366 199.455 350.448L197.169 350.845C196.69 350.927 196.356 351.329 196.427 351.74H196.429Z" fill="#D97A23"/>
<path d="M201.511 346.522C201.556 346.514 201.602 346.505 201.647 346.497C202.477 346.324 203.177 345.896 203.573 345.324C203.709 345.126 203.641 344.876 203.417 344.769C203.194 344.661 202.899 344.735 202.76 344.933C202.505 345.304 202.035 345.582 201.469 345.701C200.826 345.837 200.149 345.74 199.661 345.446C199.472 345.33 199.2 345.361 199.033 345.517C198.135 346.352 196.959 346.553 195.724 346.08C195.497 345.995 195.22 346.08 195.098 346.276C194.942 346.519 194.546 346.754 194.087 346.876C193.724 346.97 193.002 347.075 192.282 346.706C192.061 346.593 191.767 346.661 191.622 346.859C191.481 347.055 191.543 347.307 191.764 347.42C192.512 347.8 193.441 347.888 194.316 347.661C194.863 347.519 195.336 347.267 195.662 346.958C197.01 347.358 198.373 347.12 199.429 346.304C200.044 346.573 200.777 346.652 201.511 346.525V346.522Z" fill="#D97A23"/>
<path d="M194.166 369.35C194.645 372.104 198.234 373.778 202.188 373.095C206.14 372.41 208.955 369.622 208.479 366.869C208.004 364.116 204.412 362.441 200.46 363.124C196.509 363.81 193.693 366.597 194.169 369.35H194.166Z" fill="#242425"/>
<path d="M207.454 356.507L208.712 363.75C208.882 364.739 208.865 365.719 208.681 366.651C205.771 367.158 197.837 368.818 194.056 369.472C193.489 368.591 193.084 367.589 192.894 366.495L191.636 359.252L207.451 356.51L207.454 356.507Z" fill="#B4B4B5"/>
<path d="M190.668 359.872C190.792 360.595 191.484 361.079 192.206 360.954L207.497 358.3C208.222 358.176 208.706 357.484 208.581 356.762C208.457 356.037 207.766 355.553 207.043 355.68L191.753 358.334C191.03 358.462 190.543 359.15 190.668 359.872Z" fill="#E8E8E8"/>
<path d="M191.503 364.679C191.628 365.402 192.316 365.889 193.042 365.762L208.332 363.107C209.055 362.983 209.542 362.292 209.417 361.569C209.292 360.844 208.604 360.36 207.879 360.487L192.588 363.139C191.866 363.263 191.379 363.954 191.506 364.677L191.503 364.679Z" fill="#E8E8E8"/>
<path d="M192.336 369.483C192.461 370.209 193.149 370.693 193.874 370.568L209.165 367.917C209.89 367.792 210.375 367.104 210.25 366.379C210.122 365.654 209.434 365.169 208.712 365.297L193.421 367.951C192.696 368.076 192.212 368.767 192.336 369.486V369.483Z" fill="#E8E8E8"/>
<path d="M432.186 462.632C432.186 465.488 434.5 467.805 437.355 467.805C440.211 467.805 442.528 465.491 442.528 462.632C442.528 459.774 440.214 457.46 437.355 457.46C434.497 457.46 432.186 459.774 432.186 462.632Z" fill="#242425"/>
<path d="M394.933 159.96C394.933 162.815 397.248 165.132 400.103 165.132C402.958 165.132 405.275 162.818 405.275 159.96C405.275 157.102 402.961 154.788 400.103 154.788C397.245 154.788 394.933 157.102 394.933 159.96Z" fill="#242425"/>
<path d="M46.6272 99.4263C46.6272 102.282 48.9415 104.599 51.7996 104.599C54.6578 104.599 56.9721 102.284 56.9721 99.4263C56.9721 96.5682 54.6578 94.2539 51.7996 94.2539C48.9415 94.2539 46.6272 96.5682 46.6272 99.4263Z" fill="#242425"/>
<path d="M62.3031 327.594C62.3031 330.449 64.6174 332.766 67.4755 332.766C70.3337 332.766 72.6451 330.452 72.6451 327.594C72.6451 324.736 70.3308 322.421 67.4755 322.421C64.6202 322.421 62.3031 324.736 62.3031 327.594Z" fill="#242425"/>
<path d="M121.693 361.121C121.693 355.634 126.157 351.17 131.644 351.17C137.131 351.17 141.595 355.634 141.595 361.121C141.595 366.608 137.131 371.072 131.644 371.072C126.157 371.072 121.693 366.608 121.693 361.121ZM123.865 361.121C123.865 365.41 127.355 368.9 131.644 368.9C135.932 368.9 139.422 365.41 139.422 361.121C139.422 356.832 135.932 353.343 131.644 353.343C127.355 353.343 123.865 356.832 123.865 361.121Z" fill="#242425"/>
<path d="M304.538 138.998C304.538 134.783 307.965 131.356 312.18 131.356C316.395 131.356 319.823 134.783 319.823 138.998C319.823 143.213 316.392 146.641 312.18 146.641C307.968 146.641 304.538 143.213 304.538 138.998ZM306.71 138.998C306.71 142.015 309.163 144.468 312.18 144.468C315.197 144.468 317.65 142.015 317.65 138.998C317.65 135.982 315.197 133.529 312.18 133.529C309.163 133.529 306.71 135.982 306.71 138.998Z" fill="#242425"/>
<path d="M531.224 475.787C531.224 471.572 534.651 468.145 538.866 468.145C543.081 468.145 546.509 471.572 546.509 475.787C546.509 480.002 543.079 483.43 538.866 483.43C534.654 483.43 531.224 480.002 531.224 475.787ZM533.397 475.787C533.397 478.804 535.85 481.257 538.866 481.257C541.883 481.257 544.336 478.804 544.336 475.787C544.336 472.77 541.883 470.317 538.866 470.317C535.85 470.317 533.397 472.77 533.397 475.787Z" fill="#242425"/>
<path d="M214.116 218.406C214.116 214.191 217.544 210.764 221.759 210.764C225.974 210.764 229.401 214.191 229.401 218.406C229.401 222.621 225.971 226.049 221.759 226.049C217.547 226.049 214.116 222.621 214.116 218.406ZM216.289 218.406C216.289 221.423 218.742 223.876 221.759 223.876C224.776 223.876 227.229 221.423 227.229 218.406C227.229 215.389 224.776 212.936 221.759 212.936C218.742 212.936 216.289 215.389 216.289 218.406Z" fill="#242425"/>
<path d="M496.027 268.432L486.232 278.227L496.027 288.022L505.821 278.227L496.027 268.432Z" fill="#EF58A0"/>
<path d="M188.751 176.871L178.956 186.666L188.751 196.461L198.545 186.666L188.751 176.871Z" fill="#00B7C6"/>
<defs>
<filter id="filter0_f_305_1059" x="73.0935" y="97.248" width="483.852" height="466.806" filterUnits="userSpaceOnUse" color-interpolation-filters="sRGB">
<feFlood flood-opacity="0" result="BackgroundImageFix"/>
<feBlend mode="normal" in="SourceGraphic" in2="BackgroundImageFix" result="shape"/>
<feGaussianBlur stdDeviation="35" result="effect1_foregroundBlur_305_1059"/>
</filter>
</defs>
</svg>
